solid OpenSCAD_Model
  facet normal -1 0 0
    outer loop
      vertex -100 -100 -100
      vertex -100 100 100
      vertex -100 100 -100
    endloop
  endfacet
  facet normal -1 -0 0
    outer loop
      vertex -100 100 100
      vertex -100 -100 -100
      vertex -100 -100 100
    endloop
  endfacet
  facet normal 0 0 1
    outer loop
      vertex 100 100 100
      vertex 90 90 100
      vertex 100 -100 100
    endloop
  endfacet
  facet normal 0 0 1
    outer loop
      vertex 100 100 100
      vertex -90 90 100
      vertex 90 90 100
    endloop
  endfacet
  facet normal 0 0 1
    outer loop
      vertex -90 90 100
      vertex -100 100 100
      vertex -90 -90 100
    endloop
  endfacet
  facet normal -0 0 1
    outer loop
      vertex -100 100 100
      vertex -90 90 100
      vertex 100 100 100
    endloop
  endfacet
  facet normal -0 0 1
    outer loop
      vertex 90 -90 100
      vertex 100 -100 100
      vertex 90 90 100
    endloop
  endfacet
  facet normal -0 0 1
    outer loop
      vertex -90 -90 100
      vertex 100 -100 100
      vertex 90 -90 100
    endloop
  endfacet
  facet normal 0 0 1
    outer loop
      vertex -90 -90 100
      vertex -100 -100 100
      vertex 100 -100 100
    endloop
  endfacet
  facet normal 0 0 1
    outer loop
      vertex -100 -100 100
      vertex -90 -90 100
      vertex -100 100 100
    endloop
  endfacet
  facet normal 1 -0 0
    outer loop
      vertex 100 -100 100
      vertex 100 100 -100
      vertex 100 100 100
    endloop
  endfacet
  facet normal 1 0 0
    outer loop
      vertex 100 100 -100
      vertex 100 -100 100
      vertex 100 -100 -100
    endloop
  endfacet
  facet normal 0 1 -0
    outer loop
      vertex 100 100 -100
      vertex -100 100 100
      vertex 100 100 100
    endloop
  endfacet
  facet normal 0 1 0
    outer loop
      vertex -100 100 100
      vertex 100 100 -100
      vertex -100 100 -100
    endloop
  endfacet
  facet normal 0 0 -1
    outer loop
      vertex -100 -100 -100
      vertex 100 100 -100
      vertex 100 -100 -100
    endloop
  endfacet
  facet normal -0 0 -1
    outer loop
      vertex 100 100 -100
      vertex -100 -100 -100
      vertex -100 100 -100
    endloop
  endfacet
  facet normal 0 -1 0
    outer loop
      vertex -100 -100 -100
      vertex 100 -100 100
      vertex -100 -100 100
    endloop
  endfacet
  facet normal 0 -1 -0
    outer loop
      vertex 100 -100 100
      vertex -100 -100 -100
      vertex 100 -100 -100
    endloop
  endfacet
  facet normal 1 -0 0
    outer loop
      vertex -99.225 -99.225 -13.8375
      vertex -99.225 -4.6125 -98.99
      vertex -99.225 -4.6125 -13.8375
    endloop
  endfacet
  facet normal 1 0 0
    outer loop
      vertex -99.225 -4.6125 -98.99
      vertex -99.225 -99.225 -13.8375
      vertex -99.225 -99.225 -98.99
    endloop
  endfacet
  facet normal 1 -0 0
    outer loop
      vertex -99.225 4.6125 -13.8375
      vertex -99.225 99.225 -98.99
      vertex -99.225 99.225 -13.8375
    endloop
  endfacet
  facet normal 1 0 0
    outer loop
      vertex -99.225 99.225 -98.99
      vertex -99.225 4.6125 -13.8375
      vertex -99.225 4.6125 -98.99
    endloop
  endfacet
  facet normal 1 -0 0
    outer loop
      vertex -99.225 4.6125 81.1625
      vertex -99.225 99.225 4.6125
      vertex -99.225 99.225 81.1625
    endloop
  endfacet
  facet normal 1 0 0
    outer loop
      vertex -99.225 99.225 4.6125
      vertex -99.225 4.6125 81.1625
      vertex -99.225 4.6125 4.6125
    endloop
  endfacet
  facet normal 1 -0 0
    outer loop
      vertex -99.225 -99.225 81.1625
      vertex -99.225 -4.6125 4.6125
      vertex -99.225 -4.6125 81.1625
    endloop
  endfacet
  facet normal 1 0 0
    outer loop
      vertex -99.225 -4.6125 4.6125
      vertex -99.225 -99.225 81.1625
      vertex -99.225 -99.225 4.6125
    endloop
  endfacet
  facet normal -1 0 0
    outer loop
      vertex 99.225 4.6125 -98.99
      vertex 99.225 99.225 -13.8375
      vertex 99.225 99.225 -98.99
    endloop
  endfacet
  facet normal -1 -0 0
    outer loop
      vertex 99.225 99.225 -13.8375
      vertex 99.225 4.6125 -98.99
      vertex 99.225 4.6125 -13.8375
    endloop
  endfacet
  facet normal -1 0 0
    outer loop
      vertex 99.225 -99.225 -98.99
      vertex 99.225 -4.6125 -13.8375
      vertex 99.225 -4.6125 -98.99
    endloop
  endfacet
  facet normal -1 -0 0
    outer loop
      vertex 99.225 -4.6125 -13.8375
      vertex 99.225 -99.225 -98.99
      vertex 99.225 -99.225 -13.8375
    endloop
  endfacet
  facet normal -1 0 0
    outer loop
      vertex 99.225 -99.225 4.6125
      vertex 99.225 -4.6125 81.1625
      vertex 99.225 -4.6125 4.6125
    endloop
  endfacet
  facet normal -1 -0 0
    outer loop
      vertex 99.225 -4.6125 81.1625
      vertex 99.225 -99.225 4.6125
      vertex 99.225 -99.225 81.1625
    endloop
  endfacet
  facet normal -1 0 0
    outer loop
      vertex 99.225 4.6125 4.6125
      vertex 99.225 99.225 81.1625
      vertex 99.225 99.225 4.6125
    endloop
  endfacet
  facet normal -1 -0 0
    outer loop
      vertex 99.225 99.225 81.1625
      vertex 99.225 4.6125 4.6125
      vertex 99.225 4.6125 81.1625
    endloop
  endfacet
  facet normal -0 0 1
    outer loop
      vertex -98.99 -4.495 -98.99
      vertex -4.495 -98.99 -98.99
      vertex -4.495 -4.495 -98.99
    endloop
  endfacet
  facet normal 0 0 1
    outer loop
      vertex -99.225 -99.225 -98.99
      vertex -4.495 -98.99 -98.99
      vertex -98.99 -4.495 -98.99
    endloop
  endfacet
  facet normal 0 0 1
    outer loop
      vertex -99.225 -99.225 -98.99
      vertex -98.99 -4.495 -98.99
      vertex -99.225 -4.6125 -98.99
    endloop
  endfacet
  facet normal 0 0 1
    outer loop
      vertex -4.495 -98.99 -98.99
      vertex -99.225 -99.225 -98.99
      vertex -4.6125 -99.225 -98.99
    endloop
  endfacet
  facet normal 0 0 1
    outer loop
      vertex 99.225 99.225 -98.99
      vertex 98.99 4.495 -98.99
      vertex 99.225 4.6125 -98.99
    endloop
  endfacet
  facet normal 0 0 1
    outer loop
      vertex 4.495 98.99 -98.99
      vertex 99.225 99.225 -98.99
      vertex 4.6125 99.225 -98.99
    endloop
  endfacet
  facet normal 0 0 1
    outer loop
      vertex 99.225 99.225 -98.99
      vertex 4.495 98.99 -98.99
      vertex 98.99 4.495 -98.99
    endloop
  endfacet
  facet normal 0 0 1
    outer loop
      vertex 98.99 4.495 -98.99
      vertex 4.495 98.99 -98.99
      vertex 4.495 4.495 -98.99
    endloop
  endfacet
  facet normal -0 0 1
    outer loop
      vertex -99.225 99.225 -98.99
      vertex -4.495 98.99 -98.99
      vertex -4.6125 99.225 -98.99
    endloop
  endfacet
  facet normal 0 0 1
    outer loop
      vertex -4.495 98.99 -98.99
      vertex -98.99 4.495 -98.99
      vertex -4.495 4.495 -98.99
    endloop
  endfacet
  facet normal 0 0 1
    outer loop
      vertex -4.495 98.99 -98.99
      vertex -99.225 99.225 -98.99
      vertex -98.99 4.495 -98.99
    endloop
  endfacet
  facet normal 0 0 1
    outer loop
      vertex -98.99 4.495 -98.99
      vertex -99.225 99.225 -98.99
      vertex -99.225 4.6125 -98.99
    endloop
  endfacet
  facet normal 0 0 1
    outer loop
      vertex 98.99 -4.495 -98.99
      vertex 99.225 -99.225 -98.99
      vertex 99.225 -4.6125 -98.99
    endloop
  endfacet
  facet normal -0 0 1
    outer loop
      vertex 4.495 -98.99 -98.99
      vertex 99.225 -99.225 -98.99
      vertex 98.99 -4.495 -98.99
    endloop
  endfacet
  facet normal 0 0 1
    outer loop
      vertex 4.495 -98.99 -98.99
      vertex 98.99 -4.495 -98.99
      vertex 4.495 -4.495 -98.99
    endloop
  endfacet
  facet normal 0 0 1
    outer loop
      vertex 99.225 -99.225 -98.99
      vertex 4.495 -98.99 -98.99
      vertex 4.6125 -99.225 -98.99
    endloop
  endfacet
  facet normal 0 1 -0
    outer loop
      vertex -4.6125 -99.225 -98.99
      vertex -99.225 -99.225 -13.8375
      vertex -4.6125 -99.225 -13.8375
    endloop
  endfacet
  facet normal 0 1 0
    outer loop
      vertex -99.225 -99.225 -13.8375
      vertex -4.6125 -99.225 -98.99
      vertex -99.225 -99.225 -98.99
    endloop
  endfacet
  facet normal 0 1 -0
    outer loop
      vertex 99.225 -99.225 -98.99
      vertex 4.6125 -99.225 -13.8375
      vertex 99.225 -99.225 -13.8375
    endloop
  endfacet
  facet normal 0 1 0
    outer loop
      vertex 4.6125 -99.225 -13.8375
      vertex 99.225 -99.225 -98.99
      vertex 4.6125 -99.225 -98.99
    endloop
  endfacet
  facet normal 0 1 -0
    outer loop
      vertex -4.6125 -99.225 4.6125
      vertex -99.225 -99.225 81.1625
      vertex -4.6125 -99.225 81.1625
    endloop
  endfacet
  facet normal 0 1 0
    outer loop
      vertex -99.225 -99.225 81.1625
      vertex -4.6125 -99.225 4.6125
      vertex -99.225 -99.225 4.6125
    endloop
  endfacet
  facet normal 0 1 -0
    outer loop
      vertex 99.225 -99.225 4.6125
      vertex 4.6125 -99.225 81.1625
      vertex 99.225 -99.225 81.1625
    endloop
  endfacet
  facet normal 0 1 0
    outer loop
      vertex 4.6125 -99.225 81.1625
      vertex 99.225 -99.225 4.6125
      vertex 4.6125 -99.225 4.6125
    endloop
  endfacet
  facet normal 0 -1 0
    outer loop
      vertex 4.6125 99.225 -98.99
      vertex 99.225 99.225 -13.8375
      vertex 4.6125 99.225 -13.8375
    endloop
  endfacet
  facet normal 0 -1 -0
    outer loop
      vertex 99.225 99.225 -13.8375
      vertex 4.6125 99.225 -98.99
      vertex 99.225 99.225 -98.99
    endloop
  endfacet
  facet normal 0 -1 0
    outer loop
      vertex -99.225 99.225 -98.99
      vertex -4.6125 99.225 -13.8375
      vertex -99.225 99.225 -13.8375
    endloop
  endfacet
  facet normal 0 -1 -0
    outer loop
      vertex -4.6125 99.225 -13.8375
      vertex -99.225 99.225 -98.99
      vertex -4.6125 99.225 -98.99
    endloop
  endfacet
  facet normal 0 -1 0
    outer loop
      vertex -99.225 99.225 4.6125
      vertex -4.6125 99.225 81.1625
      vertex -99.225 99.225 81.1625
    endloop
  endfacet
  facet normal 0 -1 -0
    outer loop
      vertex -4.6125 99.225 81.1625
      vertex -99.225 99.225 4.6125
      vertex -4.6125 99.225 4.6125
    endloop
  endfacet
  facet normal 0 -1 0
    outer loop
      vertex 4.6125 99.225 4.6125
      vertex 99.225 99.225 81.1625
      vertex 4.6125 99.225 81.1625
    endloop
  endfacet
  facet normal 0 -1 -0
    outer loop
      vertex 99.225 99.225 81.1625
      vertex 4.6125 99.225 4.6125
      vertex 99.225 99.225 4.6125
    endloop
  endfacet
  facet normal 0 -0.894427 0.447214
    outer loop
      vertex -4.495 -4.495 -98.99
      vertex -90 0 -90
      vertex -98.99 -4.495 -98.99
    endloop
  endfacet
  facet normal 0 -0.894427 0.447214
    outer loop
      vertex -90 0 -90
      vertex -4.495 -4.495 -98.99
      vertex 0 0 -90
    endloop
  endfacet
  facet normal 0 -0.894427 0.447214
    outer loop
      vertex 4.495 -4.495 -98.99
      vertex 90 0 -90
      vertex 0 0 -90
    endloop
  endfacet
  facet normal 0 -0.894427 0.447214
    outer loop
      vertex 90 0 -90
      vertex 4.495 -4.495 -98.99
      vertex 98.99 -4.495 -98.99
    endloop
  endfacet
  facet normal 0 0.894427 0.447214
    outer loop
      vertex -4.495 4.495 -98.99
      vertex -90 0 -90
      vertex 0 0 -90
    endloop
  endfacet
  facet normal 0 0.894427 0.447214
    outer loop
      vertex -90 0 -90
      vertex -4.495 4.495 -98.99
      vertex -98.99 4.495 -98.99
    endloop
  endfacet
  facet normal -0 0.894427 0.447214
    outer loop
      vertex 4.495 4.495 -98.99
      vertex 90 0 -90
      vertex 98.99 4.495 -98.99
    endloop
  endfacet
  facet normal 0 0.894427 0.447214
    outer loop
      vertex 90 0 -90
      vertex 4.495 4.495 -98.99
      vertex 0 0 -90
    endloop
  endfacet
  facet normal 0.894427 -0 0.447214
    outer loop
      vertex 0 -90 -90
      vertex 4.495 -4.495 -98.99
      vertex 0 0 -90
    endloop
  endfacet
  facet normal 0.894427 0 0.447214
    outer loop
      vertex 4.495 -4.495 -98.99
      vertex 0 -90 -90
      vertex 4.495 -98.99 -98.99
    endloop
  endfacet
  facet normal 0.894427 0 0.447214
    outer loop
      vertex 0 90 -90
      vertex 4.495 4.495 -98.99
      vertex 4.495 98.99 -98.99
    endloop
  endfacet
  facet normal 0.894427 0 0.447214
    outer loop
      vertex 4.495 4.495 -98.99
      vertex 0 90 -90
      vertex 0 0 -90
    endloop
  endfacet
  facet normal -0.894427 0 0.447214
    outer loop
      vertex -4.495 -4.495 -98.99
      vertex 0 -90 -90
      vertex 0 0 -90
    endloop
  endfacet
  facet normal -0.894427 0 0.447214
    outer loop
      vertex 0 -90 -90
      vertex -4.495 -4.495 -98.99
      vertex -4.495 -98.99 -98.99
    endloop
  endfacet
  facet normal -0.894427 0 0.447214
    outer loop
      vertex -4.495 4.495 -98.99
      vertex 0 90 -90
      vertex -4.495 98.99 -98.99
    endloop
  endfacet
  facet normal -0.894427 0 0.447214
    outer loop
      vertex 0 90 -90
      vertex -4.495 4.495 -98.99
      vertex 0 0 -90
    endloop
  endfacet
  facet normal 0.447214 -0.894427 0
    outer loop
      vertex -99.225 -4.6125 -13.8375
      vertex -90 0 -90
      vertex -90 0 0
    endloop
  endfacet
  facet normal 0.447214 -0.894427 0
    outer loop
      vertex -99.225 -4.6125 -98.99
      vertex -90 0 -90
      vertex -99.225 -4.6125 -13.8375
    endloop
  endfacet
  facet normal 0.447214 -0.894427 0
    outer loop
      vertex -90 0 -90
      vertex -99.225 -4.6125 -98.99
      vertex -98.99 -4.495 -98.99
    endloop
  endfacet
  facet normal 0.447214 -0.894427 0
    outer loop
      vertex -90 0 0
      vertex -99.225 -4.6125 81.1625
      vertex -99.225 -4.6125 4.6125
    endloop
  endfacet
  facet normal 0.447214 -0.894427 0
    outer loop
      vertex -99.225 -4.6125 81.1625
      vertex -90 0 0
      vertex -90 0 95
    endloop
  endfacet
  facet normal 0.447214 0.894427 -0
    outer loop
      vertex -90 0 -90
      vertex -99.225 4.6125 -13.8375
      vertex -90 0 0
    endloop
  endfacet
  facet normal 0.447214 0.894427 2.82019e-16
    outer loop
      vertex -99.225 4.6125 -98.99
      vertex -90 0 -90
      vertex -98.99 4.495 -98.99
    endloop
  endfacet
  facet normal 0.447214 0.894427 0
    outer loop
      vertex -90 0 -90
      vertex -99.225 4.6125 -98.99
      vertex -99.225 4.6125 -13.8375
    endloop
  endfacet
  facet normal 0.447214 0.894427 -0
    outer loop
      vertex -90 0 0
      vertex -99.225 4.6125 81.1625
      vertex -90 0 95
    endloop
  endfacet
  facet normal 0.447214 0.894427 0
    outer loop
      vertex -99.225 4.6125 81.1625
      vertex -90 0 0
      vertex -99.225 4.6125 4.6125
    endloop
  endfacet
  facet normal -0.447214 0.894427 0
    outer loop
      vertex 99.225 4.6125 -13.8375
      vertex 90 0 -90
      vertex 90 0 0
    endloop
  endfacet
  facet normal -0.447214 0.894427 0
    outer loop
      vertex 99.225 4.6125 -98.99
      vertex 90 0 -90
      vertex 99.225 4.6125 -13.8375
    endloop
  endfacet
  facet normal -0.447214 0.894427 0
    outer loop
      vertex 90 0 -90
      vertex 99.225 4.6125 -98.99
      vertex 98.99 4.495 -98.99
    endloop
  endfacet
  facet normal -0.447214 0.894427 0
    outer loop
      vertex 90 0 0
      vertex 99.225 4.6125 81.1625
      vertex 99.225 4.6125 4.6125
    endloop
  endfacet
  facet normal -0.447214 0.894427 0
    outer loop
      vertex 99.225 4.6125 81.1625
      vertex 90 0 0
      vertex 90 0 95
    endloop
  endfacet
  facet normal -0.447214 -0.894427 0
    outer loop
      vertex 90 0 -90
      vertex 99.225 -4.6125 -13.8375
      vertex 90 0 0
    endloop
  endfacet
  facet normal -0.447214 -0.894427 2.82019e-16
    outer loop
      vertex 99.225 -4.6125 -98.99
      vertex 90 0 -90
      vertex 98.99 -4.495 -98.99
    endloop
  endfacet
  facet normal -0.447214 -0.894427 0
    outer loop
      vertex 90 0 -90
      vertex 99.225 -4.6125 -98.99
      vertex 99.225 -4.6125 -13.8375
    endloop
  endfacet
  facet normal -0.447214 -0.894427 0
    outer loop
      vertex 90 0 0
      vertex 99.225 -4.6125 81.1625
      vertex 90 0 95
    endloop
  endfacet
  facet normal -0.447214 -0.894427 -0
    outer loop
      vertex 99.225 -4.6125 81.1625
      vertex 90 0 0
      vertex 99.225 -4.6125 4.6125
    endloop
  endfacet
  facet normal -0.894427 -0.447214 0
    outer loop
      vertex 0 90 -90
      vertex -4.6125 99.225 -98.99
      vertex -4.495 98.99 -98.99
    endloop
  endfacet
  facet normal -0.894427 -0.447214 0
    outer loop
      vertex -4.6125 99.225 -98.99
      vertex 0 90 -90
      vertex -4.6125 99.225 -13.8375
    endloop
  endfacet
  facet normal -0.894427 -0.447214 0
    outer loop
      vertex -4.6125 99.225 -13.8375
      vertex 0 90 -90
      vertex 0 90 0
    endloop
  endfacet
  facet normal -0.894427 -0.447214 0
    outer loop
      vertex 0 90 0
      vertex -4.6125 99.225 81.1625
      vertex -4.6125 99.225 4.6125
    endloop
  endfacet
  facet normal -0.894427 -0.447214 0
    outer loop
      vertex -4.6125 99.225 81.1625
      vertex 0 90 0
      vertex 0 90 95
    endloop
  endfacet
  facet normal 0.894427 -0.447214 0
    outer loop
      vertex 0 90 -90
      vertex 4.6125 99.225 -98.99
      vertex 4.6125 99.225 -13.8375
    endloop
  endfacet
  facet normal 0.894427 -0.447214 0
    outer loop
      vertex 0 90 -90
      vertex 4.6125 99.225 -13.8375
      vertex 0 90 0
    endloop
  endfacet
  facet normal 0.894427 -0.447214 2.82019e-16
    outer loop
      vertex 4.6125 99.225 -98.99
      vertex 0 90 -90
      vertex 4.495 98.99 -98.99
    endloop
  endfacet
  facet normal 0.894427 -0.447214 0
    outer loop
      vertex 0 90 0
      vertex 4.6125 99.225 81.1625
      vertex 0 90 95
    endloop
  endfacet
  facet normal 0.894427 -0.447214 0
    outer loop
      vertex 4.6125 99.225 81.1625
      vertex 0 90 0
      vertex 4.6125 99.225 4.6125
    endloop
  endfacet
  facet normal 0.894427 0.447214 0
    outer loop
      vertex 4.6125 -99.225 -13.8375
      vertex 0 -90 -90
      vertex 0 -90 0
    endloop
  endfacet
  facet normal 0.894427 0.447214 -0
    outer loop
      vertex 4.6125 -99.225 -98.99
      vertex 0 -90 -90
      vertex 4.6125 -99.225 -13.8375
    endloop
  endfacet
  facet normal 0.894427 0.447214 0
    outer loop
      vertex 0 -90 -90
      vertex 4.6125 -99.225 -98.99
      vertex 4.495 -98.99 -98.99
    endloop
  endfacet
  facet normal 0.894427 0.447214 0
    outer loop
      vertex 4.6125 -99.225 81.1625
      vertex 0 -90 0
      vertex 0 -90 95
    endloop
  endfacet
  facet normal 0.894427 0.447214 0
    outer loop
      vertex 0 -90 0
      vertex 4.6125 -99.225 81.1625
      vertex 4.6125 -99.225 4.6125
    endloop
  endfacet
  facet normal -0.894427 0.447214 2.82019e-16
    outer loop
      vertex -4.6125 -99.225 -98.99
      vertex 0 -90 -90
      vertex -4.495 -98.99 -98.99
    endloop
  endfacet
  facet normal -0.894427 0.447214 0
    outer loop
      vertex 0 -90 -90
      vertex -4.6125 -99.225 -98.99
      vertex -4.6125 -99.225 -13.8375
    endloop
  endfacet
  facet normal -0.894427 0.447214 0
    outer loop
      vertex 0 -90 -90
      vertex -4.6125 -99.225 -13.8375
      vertex 0 -90 0
    endloop
  endfacet
  facet normal -0.894427 0.447214 0
    outer loop
      vertex -4.6125 -99.225 81.1625
      vertex 0 -90 0
      vertex -4.6125 -99.225 4.6125
    endloop
  endfacet
  facet normal -0.894427 0.447214 0
    outer loop
      vertex 0 -90 0
      vertex -4.6125 -99.225 81.1625
      vertex 0 -90 95
    endloop
  endfacet
  facet normal 0.83205 0 -0.5547
    outer loop
      vertex -90 -90 0
      vertex -99.225 -4.6125 -13.8375
      vertex -90 0 0
    endloop
  endfacet
  facet normal 0.83205 0 -0.5547
    outer loop
      vertex -99.225 -4.6125 -13.8375
      vertex -90 -90 0
      vertex -99.225 -99.225 -13.8375
    endloop
  endfacet
  facet normal 0.83205 0 -0.5547
    outer loop
      vertex -90 90 0
      vertex -99.225 4.6125 -13.8375
      vertex -99.225 99.225 -13.8375
    endloop
  endfacet
  facet normal 0.83205 0 -0.5547
    outer loop
      vertex -99.225 4.6125 -13.8375
      vertex -90 90 0
      vertex -90 0 0
    endloop
  endfacet
  facet normal 0.447214 0 0.894427
    outer loop
      vertex -99.225 -4.6125 4.6125
      vertex -90 -90 0
      vertex -90 0 0
    endloop
  endfacet
  facet normal 0.447214 0 0.894427
    outer loop
      vertex -90 -90 0
      vertex -99.225 -4.6125 4.6125
      vertex -99.225 -99.225 4.6125
    endloop
  endfacet
  facet normal 0.447214 -0 0.894427
    outer loop
      vertex -99.225 4.6125 4.6125
      vertex -90 90 0
      vertex -99.225 99.225 4.6125
    endloop
  endfacet
  facet normal 0.447214 0 0.894427
    outer loop
      vertex -90 90 0
      vertex -99.225 4.6125 4.6125
      vertex -90 0 0
    endloop
  endfacet
  facet normal -0.83205 0 -0.5547
    outer loop
      vertex 99.225 4.6125 -13.8375
      vertex 90 90 0
      vertex 99.225 99.225 -13.8375
    endloop
  endfacet
  facet normal -0.83205 -0 -0.5547
    outer loop
      vertex 90 90 0
      vertex 99.225 4.6125 -13.8375
      vertex 90 0 0
    endloop
  endfacet
  facet normal -0.83205 0 -0.5547
    outer loop
      vertex 99.225 -4.6125 -13.8375
      vertex 90 -90 0
      vertex 90 0 0
    endloop
  endfacet
  facet normal -0.83205 0 -0.5547
    outer loop
      vertex 90 -90 0
      vertex 99.225 -4.6125 -13.8375
      vertex 99.225 -99.225 -13.8375
    endloop
  endfacet
  facet normal -0.447214 0 0.894427
    outer loop
      vertex 90 90 0
      vertex 99.225 4.6125 4.6125
      vertex 99.225 99.225 4.6125
    endloop
  endfacet
  facet normal -0.447214 0 0.894427
    outer loop
      vertex 99.225 4.6125 4.6125
      vertex 90 90 0
      vertex 90 0 0
    endloop
  endfacet
  facet normal -0.447214 0 0.894427
    outer loop
      vertex 90 -90 0
      vertex 99.225 -4.6125 4.6125
      vertex 90 0 0
    endloop
  endfacet
  facet normal -0.447214 0 0.894427
    outer loop
      vertex 99.225 -4.6125 4.6125
      vertex 90 -90 0
      vertex 99.225 -99.225 4.6125
    endloop
  endfacet
  facet normal 0 -0.83205 -0.5547
    outer loop
      vertex 4.6125 99.225 -13.8375
      vertex 90 90 0
      vertex 0 90 0
    endloop
  endfacet
  facet normal 0 -0.83205 -0.5547
    outer loop
      vertex 90 90 0
      vertex 4.6125 99.225 -13.8375
      vertex 99.225 99.225 -13.8375
    endloop
  endfacet
  facet normal -0 -0.83205 -0.5547
    outer loop
      vertex -4.6125 99.225 -13.8375
      vertex -90 90 0
      vertex -99.225 99.225 -13.8375
    endloop
  endfacet
  facet normal 0 -0.83205 -0.5547
    outer loop
      vertex -90 90 0
      vertex -4.6125 99.225 -13.8375
      vertex 0 90 0
    endloop
  endfacet
  facet normal 0 -0.447214 0.894427
    outer loop
      vertex 4.6125 99.225 4.6125
      vertex 90 90 0
      vertex 99.225 99.225 4.6125
    endloop
  endfacet
  facet normal 0 -0.447214 0.894427
    outer loop
      vertex 90 90 0
      vertex 4.6125 99.225 4.6125
      vertex 0 90 0
    endloop
  endfacet
  facet normal 0 -0.447214 0.894427
    outer loop
      vertex -4.6125 99.225 4.6125
      vertex -90 90 0
      vertex 0 90 0
    endloop
  endfacet
  facet normal 0 -0.447214 0.894427
    outer loop
      vertex -90 90 0
      vertex -4.6125 99.225 4.6125
      vertex -99.225 99.225 4.6125
    endloop
  endfacet
  facet normal 0 0.83205 -0.5547
    outer loop
      vertex 4.6125 -99.225 -13.8375
      vertex 90 -90 0
      vertex 99.225 -99.225 -13.8375
    endloop
  endfacet
  facet normal 0 0.83205 -0.5547
    outer loop
      vertex 90 -90 0
      vertex 4.6125 -99.225 -13.8375
      vertex 0 -90 0
    endloop
  endfacet
  facet normal 0 0.83205 -0.5547
    outer loop
      vertex -4.6125 -99.225 -13.8375
      vertex -90 -90 0
      vertex 0 -90 0
    endloop
  endfacet
  facet normal 0 0.83205 -0.5547
    outer loop
      vertex -90 -90 0
      vertex -4.6125 -99.225 -13.8375
      vertex -99.225 -99.225 -13.8375
    endloop
  endfacet
  facet normal 0 0.447214 0.894427
    outer loop
      vertex 90 -90 0
      vertex 4.6125 -99.225 4.6125
      vertex 99.225 -99.225 4.6125
    endloop
  endfacet
  facet normal 0 0.447214 0.894427
    outer loop
      vertex 4.6125 -99.225 4.6125
      vertex 90 -90 0
      vertex 0 -90 0
    endloop
  endfacet
  facet normal -0 0.447214 0.894427
    outer loop
      vertex -90 -90 0
      vertex -4.6125 -99.225 4.6125
      vertex 0 -90 0
    endloop
  endfacet
  facet normal 0 0.447214 0.894427
    outer loop
      vertex -4.6125 -99.225 4.6125
      vertex -90 -90 0
      vertex -99.225 -99.225 4.6125
    endloop
  endfacet
  facet normal 1 0 0
    outer loop
      vertex -90 90 100
      vertex -90 0 95
      vertex -90 90 95
    endloop
  endfacet
  facet normal 1 -0 0
    outer loop
      vertex -90 -90 100
      vertex -90 0 95
      vertex -90 90 100
    endloop
  endfacet
  facet normal 1 0 0
    outer loop
      vertex -90 0 95
      vertex -90 -90 100
      vertex -90 -90 95
    endloop
  endfacet
  facet normal 0.83205 0 -0.5547
    outer loop
      vertex -90 -90 95
      vertex -99.225 -4.6125 81.1625
      vertex -90 0 95
    endloop
  endfacet
  facet normal 0.83205 0 -0.5547
    outer loop
      vertex -99.225 -4.6125 81.1625
      vertex -90 -90 95
      vertex -99.225 -99.225 81.1625
    endloop
  endfacet
  facet normal 0.83205 0 -0.5547
    outer loop
      vertex -90 90 95
      vertex -99.225 4.6125 81.1625
      vertex -99.225 99.225 81.1625
    endloop
  endfacet
  facet normal 0.83205 0 -0.5547
    outer loop
      vertex -99.225 4.6125 81.1625
      vertex -90 90 95
      vertex -90 0 95
    endloop
  endfacet
  facet normal -0.83205 0 -0.5547
    outer loop
      vertex 99.225 4.6125 81.1625
      vertex 90 90 95
      vertex 99.225 99.225 81.1625
    endloop
  endfacet
  facet normal -0.83205 -0 -0.5547
    outer loop
      vertex 90 90 95
      vertex 99.225 4.6125 81.1625
      vertex 90 0 95
    endloop
  endfacet
  facet normal -0.83205 0 -0.5547
    outer loop
      vertex 99.225 -4.6125 81.1625
      vertex 90 -90 95
      vertex 90 0 95
    endloop
  endfacet
  facet normal -0.83205 0 -0.5547
    outer loop
      vertex 90 -90 95
      vertex 99.225 -4.6125 81.1625
      vertex 99.225 -99.225 81.1625
    endloop
  endfacet
  facet normal -1 0 0
    outer loop
      vertex 90 0 95
      vertex 90 90 100
      vertex 90 90 95
    endloop
  endfacet
  facet normal -1 0 0
    outer loop
      vertex 90 -90 100
      vertex 90 0 95
      vertex 90 -90 95
    endloop
  endfacet
  facet normal -1 0 0
    outer loop
      vertex 90 0 95
      vertex 90 -90 100
      vertex 90 90 100
    endloop
  endfacet
  facet normal 0 -0.83205 -0.5547
    outer loop
      vertex 4.6125 99.225 81.1625
      vertex 90 90 95
      vertex 0 90 95
    endloop
  endfacet
  facet normal 0 -0.83205 -0.5547
    outer loop
      vertex 90 90 95
      vertex 4.6125 99.225 81.1625
      vertex 99.225 99.225 81.1625
    endloop
  endfacet
  facet normal -0 -0.83205 -0.5547
    outer loop
      vertex -4.6125 99.225 81.1625
      vertex -90 90 95
      vertex -99.225 99.225 81.1625
    endloop
  endfacet
  facet normal 0 -0.83205 -0.5547
    outer loop
      vertex -90 90 95
      vertex -4.6125 99.225 81.1625
      vertex 0 90 95
    endloop
  endfacet
  facet normal 0 -1 0
    outer loop
      vertex 0 90 95
      vertex -90 90 100
      vertex -90 90 95
    endloop
  endfacet
  facet normal 0 -1 0
    outer loop
      vertex -90 90 100
      vertex 0 90 95
      vertex 90 90 100
    endloop
  endfacet
  facet normal 0 -1 -0
    outer loop
      vertex 90 90 100
      vertex 0 90 95
      vertex 90 90 95
    endloop
  endfacet
  facet normal 0 1 0
    outer loop
      vertex 0 -90 95
      vertex 90 -90 100
      vertex 90 -90 95
    endloop
  endfacet
  facet normal 0 1 0
    outer loop
      vertex 90 -90 100
      vertex 0 -90 95
      vertex -90 -90 100
    endloop
  endfacet
  facet normal 0 1 0
    outer loop
      vertex -90 -90 100
      vertex 0 -90 95
      vertex -90 -90 95
    endloop
  endfacet
  facet normal 0 0.83205 -0.5547
    outer loop
      vertex 4.6125 -99.225 81.1625
      vertex 90 -90 95
      vertex 99.225 -99.225 81.1625
    endloop
  endfacet
  facet normal 0 0.83205 -0.5547
    outer loop
      vertex 90 -90 95
      vertex 4.6125 -99.225 81.1625
      vertex 0 -90 95
    endloop
  endfacet
  facet normal 0 0.83205 -0.5547
    outer loop
      vertex -4.6125 -99.225 81.1625
      vertex -90 -90 95
      vertex 0 -90 95
    endloop
  endfacet
  facet normal 0 0.83205 -0.5547
    outer loop
      vertex -90 -90 95
      vertex -4.6125 -99.225 81.1625
      vertex -99.225 -99.225 81.1625
    endloop
  endfacet
endsolid OpenSCAD_Model
