solid OpenSCAD_Model
  facet normal -1 0 0
    outer loop
      vertex -50 -50 -50
      vertex -50 50 50
      vertex -50 50 -50
    endloop
  endfacet
  facet normal -1 -0 0
    outer loop
      vertex -50 50 50
      vertex -50 -50 -50
      vertex -50 -50 50
    endloop
  endfacet
  facet normal 0 0 1
    outer loop
      vertex 50 50 50
      vertex 40 40 50
      vertex 50 -50 50
    endloop
  endfacet
  facet normal 0 0 1
    outer loop
      vertex 50 50 50
      vertex -40 40 50
      vertex 40 40 50
    endloop
  endfacet
  facet normal 0 0 1
    outer loop
      vertex -40 40 50
      vertex -50 50 50
      vertex -40 -40 50
    endloop
  endfacet
  facet normal -0 0 1
    outer loop
      vertex -50 50 50
      vertex -40 40 50
      vertex 50 50 50
    endloop
  endfacet
  facet normal -0 0 1
    outer loop
      vertex 40 -40 50
      vertex 50 -50 50
      vertex 40 40 50
    endloop
  endfacet
  facet normal -0 0 1
    outer loop
      vertex -40 -40 50
      vertex 50 -50 50
      vertex 40 -40 50
    endloop
  endfacet
  facet normal 0 0 1
    outer loop
      vertex -40 -40 50
      vertex -50 -50 50
      vertex 50 -50 50
    endloop
  endfacet
  facet normal 0 0 1
    outer loop
      vertex -50 -50 50
      vertex -40 -40 50
      vertex -50 50 50
    endloop
  endfacet
  facet normal 1 -0 0
    outer loop
      vertex 50 -50 50
      vertex 50 50 -50
      vertex 50 50 50
    endloop
  endfacet
  facet normal 1 0 0
    outer loop
      vertex 50 50 -50
      vertex 50 -50 50
      vertex 50 -50 -50
    endloop
  endfacet
  facet normal 0 1 -0
    outer loop
      vertex 50 50 -50
      vertex -50 50 50
      vertex 50 50 50
    endloop
  endfacet
  facet normal 0 1 0
    outer loop
      vertex -50 50 50
      vertex 50 50 -50
      vertex -50 50 -50
    endloop
  endfacet
  facet normal 0 0 -1
    outer loop
      vertex -50 -50 -50
      vertex 50 50 -50
      vertex 50 -50 -50
    endloop
  endfacet
  facet normal -0 0 -1
    outer loop
      vertex 50 50 -50
      vertex -50 -50 -50
      vertex -50 50 -50
    endloop
  endfacet
  facet normal 0 -1 0
    outer loop
      vertex -50 -50 -50
      vertex 50 -50 50
      vertex -50 -50 50
    endloop
  endfacet
  facet normal 0 -1 -0
    outer loop
      vertex 50 -50 50
      vertex -50 -50 -50
      vertex 50 -50 -50
    endloop
  endfacet
  facet normal 1 -0 0
    outer loop
      vertex -49.225 -49.225 -8.89286
      vertex -49.225 -2.66786 -48.99
      vertex -49.225 -2.66786 -8.89286
    endloop
  endfacet
  facet normal 1 0 0
    outer loop
      vertex -49.225 -2.66786 -48.99
      vertex -49.225 -49.225 -8.89286
      vertex -49.225 -49.225 -48.99
    endloop
  endfacet
  facet normal 1 -0 0
    outer loop
      vertex -49.225 2.66786 -8.89286
      vertex -49.225 49.225 -48.99
      vertex -49.225 49.225 -8.89286
    endloop
  endfacet
  facet normal 1 0 0
    outer loop
      vertex -49.225 49.225 -48.99
      vertex -49.225 2.66786 -8.89286
      vertex -49.225 2.66786 -48.99
    endloop
  endfacet
  facet normal 1 -0 0
    outer loop
      vertex -49.225 2.66786 31.1625
      vertex -49.225 49.225 2.66786
      vertex -49.225 49.225 31.1625
    endloop
  endfacet
  facet normal 1 0 0
    outer loop
      vertex -49.225 49.225 2.66786
      vertex -49.225 2.66786 31.1625
      vertex -49.225 2.66786 2.66786
    endloop
  endfacet
  facet normal 1 -0 0
    outer loop
      vertex -49.225 -49.225 31.1625
      vertex -49.225 -2.66786 2.66786
      vertex -49.225 -2.66786 31.1625
    endloop
  endfacet
  facet normal 1 0 0
    outer loop
      vertex -49.225 -2.66786 2.66786
      vertex -49.225 -49.225 31.1625
      vertex -49.225 -49.225 2.66786
    endloop
  endfacet
  facet normal -1 0 0
    outer loop
      vertex 49.225 2.66786 -48.99
      vertex 49.225 49.225 -8.89286
      vertex 49.225 49.225 -48.99
    endloop
  endfacet
  facet normal -1 -0 0
    outer loop
      vertex 49.225 49.225 -8.89286
      vertex 49.225 2.66786 -48.99
      vertex 49.225 2.66786 -8.89286
    endloop
  endfacet
  facet normal -1 0 0
    outer loop
      vertex 49.225 -49.225 -48.99
      vertex 49.225 -2.66786 -8.89286
      vertex 49.225 -2.66786 -48.99
    endloop
  endfacet
  facet normal -1 -0 0
    outer loop
      vertex 49.225 -2.66786 -8.89286
      vertex 49.225 -49.225 -48.99
      vertex 49.225 -49.225 -8.89286
    endloop
  endfacet
  facet normal -1 0 0
    outer loop
      vertex 49.225 2.66786 2.66786
      vertex 49.225 49.225 31.1625
      vertex 49.225 49.225 2.66786
    endloop
  endfacet
  facet normal -1 -0 0
    outer loop
      vertex 49.225 49.225 31.1625
      vertex 49.225 2.66786 2.66786
      vertex 49.225 2.66786 31.1625
    endloop
  endfacet
  facet normal -1 0 0
    outer loop
      vertex 49.225 -49.225 2.66786
      vertex 49.225 -2.66786 31.1625
      vertex 49.225 -2.66786 2.66786
    endloop
  endfacet
  facet normal -1 -0 0
    outer loop
      vertex 49.225 -2.66786 31.1625
      vertex 49.225 -49.225 2.66786
      vertex 49.225 -49.225 31.1625
    endloop
  endfacet
  facet normal 0 -1 0
    outer loop
      vertex 2.66786 49.225 -48.99
      vertex 49.225 49.225 -8.89286
      vertex 2.66786 49.225 -8.89286
    endloop
  endfacet
  facet normal 0 -1 -0
    outer loop
      vertex 49.225 49.225 -8.89286
      vertex 2.66786 49.225 -48.99
      vertex 49.225 49.225 -48.99
    endloop
  endfacet
  facet normal 0 -1 0
    outer loop
      vertex -49.225 49.225 -48.99
      vertex -2.66786 49.225 -8.89286
      vertex -49.225 49.225 -8.89286
    endloop
  endfacet
  facet normal 0 -1 -0
    outer loop
      vertex -2.66786 49.225 -8.89286
      vertex -49.225 49.225 -48.99
      vertex -2.66786 49.225 -48.99
    endloop
  endfacet
  facet normal 0 -1 0
    outer loop
      vertex -49.225 49.225 2.66786
      vertex -2.66786 49.225 31.1625
      vertex -49.225 49.225 31.1625
    endloop
  endfacet
  facet normal 0 -1 -0
    outer loop
      vertex -2.66786 49.225 31.1625
      vertex -49.225 49.225 2.66786
      vertex -2.66786 49.225 2.66786
    endloop
  endfacet
  facet normal 0 -1 0
    outer loop
      vertex 2.66786 49.225 2.66786
      vertex 49.225 49.225 31.1625
      vertex 2.66786 49.225 31.1625
    endloop
  endfacet
  facet normal 0 -1 -0
    outer loop
      vertex 49.225 49.225 31.1625
      vertex 2.66786 49.225 2.66786
      vertex 49.225 49.225 2.66786
    endloop
  endfacet
  facet normal -0 0 1
    outer loop
      vertex -48.99 -2.56714 -48.99
      vertex -2.56714 -48.99 -48.99
      vertex -2.56714 -2.56714 -48.99
    endloop
  endfacet
  facet normal 0 0 1
    outer loop
      vertex -49.225 -49.225 -48.99
      vertex -2.56714 -48.99 -48.99
      vertex -48.99 -2.56714 -48.99
    endloop
  endfacet
  facet normal 0 0 1
    outer loop
      vertex -49.225 -49.225 -48.99
      vertex -48.99 -2.56714 -48.99
      vertex -49.225 -2.66786 -48.99
    endloop
  endfacet
  facet normal 0 0 1
    outer loop
      vertex -2.56714 -48.99 -48.99
      vertex -49.225 -49.225 -48.99
      vertex -2.66786 -49.225 -48.99
    endloop
  endfacet
  facet normal 0 0 1
    outer loop
      vertex 49.225 49.225 -48.99
      vertex 48.99 2.56714 -48.99
      vertex 49.225 2.66786 -48.99
    endloop
  endfacet
  facet normal 0 0 1
    outer loop
      vertex 2.56714 48.99 -48.99
      vertex 49.225 49.225 -48.99
      vertex 2.66786 49.225 -48.99
    endloop
  endfacet
  facet normal 0 0 1
    outer loop
      vertex 49.225 49.225 -48.99
      vertex 2.56714 48.99 -48.99
      vertex 48.99 2.56714 -48.99
    endloop
  endfacet
  facet normal 0 0 1
    outer loop
      vertex 48.99 2.56714 -48.99
      vertex 2.56714 48.99 -48.99
      vertex 2.56714 2.56714 -48.99
    endloop
  endfacet
  facet normal -0 0 1
    outer loop
      vertex -49.225 49.225 -48.99
      vertex -2.56714 48.99 -48.99
      vertex -2.66786 49.225 -48.99
    endloop
  endfacet
  facet normal 0 0 1
    outer loop
      vertex -2.56714 48.99 -48.99
      vertex -48.99 2.56714 -48.99
      vertex -2.56714 2.56714 -48.99
    endloop
  endfacet
  facet normal 0 0 1
    outer loop
      vertex -2.56714 48.99 -48.99
      vertex -49.225 49.225 -48.99
      vertex -48.99 2.56714 -48.99
    endloop
  endfacet
  facet normal 0 0 1
    outer loop
      vertex -48.99 2.56714 -48.99
      vertex -49.225 49.225 -48.99
      vertex -49.225 2.66786 -48.99
    endloop
  endfacet
  facet normal 0 0 1
    outer loop
      vertex 48.99 -2.56714 -48.99
      vertex 49.225 -49.225 -48.99
      vertex 49.225 -2.66786 -48.99
    endloop
  endfacet
  facet normal -0 0 1
    outer loop
      vertex 2.56714 -48.99 -48.99
      vertex 49.225 -49.225 -48.99
      vertex 48.99 -2.56714 -48.99
    endloop
  endfacet
  facet normal 0 0 1
    outer loop
      vertex 2.56714 -48.99 -48.99
      vertex 48.99 -2.56714 -48.99
      vertex 2.56714 -2.56714 -48.99
    endloop
  endfacet
  facet normal 0 0 1
    outer loop
      vertex 49.225 -49.225 -48.99
      vertex 2.56714 -48.99 -48.99
      vertex 2.66786 -49.225 -48.99
    endloop
  endfacet
  facet normal 0 1 -0
    outer loop
      vertex -2.66786 -49.225 -48.99
      vertex -49.225 -49.225 -8.89286
      vertex -2.66786 -49.225 -8.89286
    endloop
  endfacet
  facet normal 0 1 0
    outer loop
      vertex -49.225 -49.225 -8.89286
      vertex -2.66786 -49.225 -48.99
      vertex -49.225 -49.225 -48.99
    endloop
  endfacet
  facet normal 0 1 -0
    outer loop
      vertex 49.225 -49.225 -48.99
      vertex 2.66786 -49.225 -8.89286
      vertex 49.225 -49.225 -8.89286
    endloop
  endfacet
  facet normal 0 1 0
    outer loop
      vertex 2.66786 -49.225 -8.89286
      vertex 49.225 -49.225 -48.99
      vertex 2.66786 -49.225 -48.99
    endloop
  endfacet
  facet normal 0 1 -0
    outer loop
      vertex -2.66786 -49.225 2.66786
      vertex -49.225 -49.225 31.1625
      vertex -2.66786 -49.225 31.1625
    endloop
  endfacet
  facet normal 0 1 0
    outer loop
      vertex -49.225 -49.225 31.1625
      vertex -2.66786 -49.225 2.66786
      vertex -49.225 -49.225 2.66786
    endloop
  endfacet
  facet normal 0 1 -0
    outer loop
      vertex 49.225 -49.225 2.66786
      vertex 2.66786 -49.225 31.1625
      vertex 49.225 -49.225 31.1625
    endloop
  endfacet
  facet normal 0 1 0
    outer loop
      vertex 2.66786 -49.225 31.1625
      vertex 49.225 -49.225 2.66786
      vertex 2.66786 -49.225 2.66786
    endloop
  endfacet
  facet normal 0 -0.919145 0.393919
    outer loop
      vertex -2.56714 -2.56714 -48.99
      vertex -43 0 -43
      vertex -48.99 -2.56714 -48.99
    endloop
  endfacet
  facet normal 0 -0.919145 0.393919
    outer loop
      vertex -43 0 -43
      vertex -2.56714 -2.56714 -48.99
      vertex 0 0 -43
    endloop
  endfacet
  facet normal 0 -0.919145 0.393919
    outer loop
      vertex 2.56714 -2.56714 -48.99
      vertex 43 0 -43
      vertex 0 0 -43
    endloop
  endfacet
  facet normal 0 -0.919145 0.393919
    outer loop
      vertex 43 0 -43
      vertex 2.56714 -2.56714 -48.99
      vertex 48.99 -2.56714 -48.99
    endloop
  endfacet
  facet normal 0 0.919145 0.393919
    outer loop
      vertex -2.56714 2.56714 -48.99
      vertex -43 0 -43
      vertex 0 0 -43
    endloop
  endfacet
  facet normal 0 0.919145 0.393919
    outer loop
      vertex -43 0 -43
      vertex -2.56714 2.56714 -48.99
      vertex -48.99 2.56714 -48.99
    endloop
  endfacet
  facet normal -0 0.919145 0.393919
    outer loop
      vertex 2.56714 2.56714 -48.99
      vertex 43 0 -43
      vertex 48.99 2.56714 -48.99
    endloop
  endfacet
  facet normal 0 0.919145 0.393919
    outer loop
      vertex 43 0 -43
      vertex 2.56714 2.56714 -48.99
      vertex 0 0 -43
    endloop
  endfacet
  facet normal 0.919145 -0 0.393919
    outer loop
      vertex 0 -43 -43
      vertex 2.56714 -2.56714 -48.99
      vertex 0 0 -43
    endloop
  endfacet
  facet normal 0.919145 0 0.393919
    outer loop
      vertex 2.56714 -2.56714 -48.99
      vertex 0 -43 -43
      vertex 2.56714 -48.99 -48.99
    endloop
  endfacet
  facet normal 0.919145 0 0.393919
    outer loop
      vertex 0 43 -43
      vertex 2.56714 2.56714 -48.99
      vertex 2.56714 48.99 -48.99
    endloop
  endfacet
  facet normal 0.919145 0 0.393919
    outer loop
      vertex 2.56714 2.56714 -48.99
      vertex 0 43 -43
      vertex 0 0 -43
    endloop
  endfacet
  facet normal -0.919145 0 0.393919
    outer loop
      vertex -2.56714 -2.56714 -48.99
      vertex 0 -43 -43
      vertex 0 0 -43
    endloop
  endfacet
  facet normal -0.919145 0 0.393919
    outer loop
      vertex 0 -43 -43
      vertex -2.56714 -2.56714 -48.99
      vertex -2.56714 -48.99 -48.99
    endloop
  endfacet
  facet normal -0.919145 0 0.393919
    outer loop
      vertex -2.56714 2.56714 -48.99
      vertex 0 43 -43
      vertex -2.56714 48.99 -48.99
    endloop
  endfacet
  facet normal -0.919145 0 0.393919
    outer loop
      vertex 0 43 -43
      vertex -2.56714 2.56714 -48.99
      vertex 0 0 -43
    endloop
  endfacet
  facet normal 0.39392 -0.919145 0
    outer loop
      vertex -49.225 -2.66786 -8.89286
      vertex -43 0 -43
      vertex -43 0 0
    endloop
  endfacet
  facet normal 0.39392 -0.919145 0
    outer loop
      vertex -49.225 -2.66786 -48.99
      vertex -43 0 -43
      vertex -49.225 -2.66786 -8.89286
    endloop
  endfacet
  facet normal 0.393938 -0.919137 -2.27882e-05
    outer loop
      vertex -43 0 -43
      vertex -49.225 -2.66786 -48.99
      vertex -48.99 -2.56714 -48.99
    endloop
  endfacet
  facet normal 0.39392 -0.919145 0
    outer loop
      vertex -43 0 0
      vertex -49.225 -2.66786 31.1625
      vertex -49.225 -2.66786 2.66786
    endloop
  endfacet
  facet normal 0.39392 -0.919145 0
    outer loop
      vertex -49.225 -2.66786 31.1625
      vertex -43 0 0
      vertex -43 0 40.5
    endloop
  endfacet
  facet normal 0.39392 0.919145 -0
    outer loop
      vertex -43 0 -43
      vertex -49.225 2.66786 -8.89286
      vertex -43 0 0
    endloop
  endfacet
  facet normal 0.393938 0.919137 -2.27882e-05
    outer loop
      vertex -49.225 2.66786 -48.99
      vertex -43 0 -43
      vertex -48.99 2.56714 -48.99
    endloop
  endfacet
  facet normal 0.39392 0.919145 0
    outer loop
      vertex -43 0 -43
      vertex -49.225 2.66786 -48.99
      vertex -49.225 2.66786 -8.89286
    endloop
  endfacet
  facet normal 0.39392 0.919145 -0
    outer loop
      vertex -43 0 0
      vertex -49.225 2.66786 31.1625
      vertex -43 0 40.5
    endloop
  endfacet
  facet normal 0.39392 0.919145 0
    outer loop
      vertex -49.225 2.66786 31.1625
      vertex -43 0 0
      vertex -49.225 2.66786 2.66786
    endloop
  endfacet
  facet normal -0.39392 0.919145 0
    outer loop
      vertex 49.225 2.66786 -8.89286
      vertex 43 0 -43
      vertex 43 0 0
    endloop
  endfacet
  facet normal -0.39392 0.919145 0
    outer loop
      vertex 49.225 2.66786 -48.99
      vertex 43 0 -43
      vertex 49.225 2.66786 -8.89286
    endloop
  endfacet
  facet normal -0.393938 0.919137 -2.27882e-05
    outer loop
      vertex 43 0 -43
      vertex 49.225 2.66786 -48.99
      vertex 48.99 2.56714 -48.99
    endloop
  endfacet
  facet normal -0.39392 0.919145 0
    outer loop
      vertex 43 0 0
      vertex 49.225 2.66786 31.1625
      vertex 49.225 2.66786 2.66786
    endloop
  endfacet
  facet normal -0.39392 0.919145 0
    outer loop
      vertex 49.225 2.66786 31.1625
      vertex 43 0 0
      vertex 43 0 40.5
    endloop
  endfacet
  facet normal -0.39392 -0.919145 0
    outer loop
      vertex 43 0 -43
      vertex 49.225 -2.66786 -8.89286
      vertex 43 0 0
    endloop
  endfacet
  facet normal -0.393938 -0.919137 -2.27882e-05
    outer loop
      vertex 49.225 -2.66786 -48.99
      vertex 43 0 -43
      vertex 48.99 -2.56714 -48.99
    endloop
  endfacet
  facet normal -0.39392 -0.919145 0
    outer loop
      vertex 43 0 -43
      vertex 49.225 -2.66786 -48.99
      vertex 49.225 -2.66786 -8.89286
    endloop
  endfacet
  facet normal -0.39392 -0.919145 0
    outer loop
      vertex 43 0 0
      vertex 49.225 -2.66786 31.1625
      vertex 43 0 40.5
    endloop
  endfacet
  facet normal -0.39392 -0.919145 -0
    outer loop
      vertex 49.225 -2.66786 31.1625
      vertex 43 0 0
      vertex 49.225 -2.66786 2.66786
    endloop
  endfacet
  facet normal -0.919137 -0.393938 -2.27882e-05
    outer loop
      vertex 0 43 -43
      vertex -2.66786 49.225 -48.99
      vertex -2.56714 48.99 -48.99
    endloop
  endfacet
  facet normal -0.919145 -0.39392 0
    outer loop
      vertex -2.66786 49.225 -48.99
      vertex 0 43 -43
      vertex -2.66786 49.225 -8.89286
    endloop
  endfacet
  facet normal -0.919145 -0.39392 0
    outer loop
      vertex -2.66786 49.225 -8.89286
      vertex 0 43 -43
      vertex 0 43 0
    endloop
  endfacet
  facet normal -0.919145 -0.39392 0
    outer loop
      vertex 0 43 0
      vertex -2.66786 49.225 31.1625
      vertex -2.66786 49.225 2.66786
    endloop
  endfacet
  facet normal -0.919145 -0.39392 0
    outer loop
      vertex -2.66786 49.225 31.1625
      vertex 0 43 0
      vertex 0 43 40.5
    endloop
  endfacet
  facet normal 0.919145 -0.39392 0
    outer loop
      vertex 0 43 -43
      vertex 2.66786 49.225 -48.99
      vertex 2.66786 49.225 -8.89286
    endloop
  endfacet
  facet normal 0.919145 -0.39392 0
    outer loop
      vertex 0 43 -43
      vertex 2.66786 49.225 -8.89286
      vertex 0 43 0
    endloop
  endfacet
  facet normal 0.919137 -0.393938 -2.27882e-05
    outer loop
      vertex 2.66786 49.225 -48.99
      vertex 0 43 -43
      vertex 2.56714 48.99 -48.99
    endloop
  endfacet
  facet normal 0.919145 -0.39392 0
    outer loop
      vertex 0 43 0
      vertex 2.66786 49.225 31.1625
      vertex 0 43 40.5
    endloop
  endfacet
  facet normal 0.919145 -0.39392 0
    outer loop
      vertex 2.66786 49.225 31.1625
      vertex 0 43 0
      vertex 2.66786 49.225 2.66786
    endloop
  endfacet
  facet normal 0.919145 0.39392 0
    outer loop
      vertex 2.66786 -49.225 -8.89286
      vertex 0 -43 -43
      vertex 0 -43 0
    endloop
  endfacet
  facet normal 0.919145 0.39392 -0
    outer loop
      vertex 2.66786 -49.225 -48.99
      vertex 0 -43 -43
      vertex 2.66786 -49.225 -8.89286
    endloop
  endfacet
  facet normal 0.919137 0.393938 -2.27882e-05
    outer loop
      vertex 0 -43 -43
      vertex 2.66786 -49.225 -48.99
      vertex 2.56714 -48.99 -48.99
    endloop
  endfacet
  facet normal 0.919145 0.39392 0
    outer loop
      vertex 2.66786 -49.225 31.1625
      vertex 0 -43 0
      vertex 0 -43 40.5
    endloop
  endfacet
  facet normal 0.919145 0.39392 0
    outer loop
      vertex 0 -43 0
      vertex 2.66786 -49.225 31.1625
      vertex 2.66786 -49.225 2.66786
    endloop
  endfacet
  facet normal -0.919137 0.393938 -2.27882e-05
    outer loop
      vertex -2.66786 -49.225 -48.99
      vertex 0 -43 -43
      vertex -2.56714 -48.99 -48.99
    endloop
  endfacet
  facet normal -0.919145 0.39392 0
    outer loop
      vertex 0 -43 -43
      vertex -2.66786 -49.225 -48.99
      vertex -2.66786 -49.225 -8.89286
    endloop
  endfacet
  facet normal -0.919145 0.39392 0
    outer loop
      vertex 0 -43 -43
      vertex -2.66786 -49.225 -8.89286
      vertex 0 -43 0
    endloop
  endfacet
  facet normal -0.919145 0.39392 0
    outer loop
      vertex -2.66786 -49.225 31.1625
      vertex 0 -43 0
      vertex -2.66786 -49.225 2.66786
    endloop
  endfacet
  facet normal -0.919145 0.39392 0
    outer loop
      vertex 0 -43 0
      vertex -2.66786 -49.225 31.1625
      vertex 0 -43 40.5
    endloop
  endfacet
  facet normal 0.819232 0 -0.573462
    outer loop
      vertex -43 -43 0
      vertex -49.225 -2.66786 -8.89286
      vertex -43 0 0
    endloop
  endfacet
  facet normal 0.819232 0 -0.573462
    outer loop
      vertex -49.225 -2.66786 -8.89286
      vertex -43 -43 0
      vertex -49.225 -49.225 -8.89286
    endloop
  endfacet
  facet normal 0.819232 0 -0.573462
    outer loop
      vertex -43 43 0
      vertex -49.225 2.66786 -8.89286
      vertex -49.225 49.225 -8.89286
    endloop
  endfacet
  facet normal 0.819232 0 -0.573462
    outer loop
      vertex -49.225 2.66786 -8.89286
      vertex -43 43 0
      vertex -43 0 0
    endloop
  endfacet
  facet normal 0.39392 0 0.919145
    outer loop
      vertex -49.225 -2.66786 2.66786
      vertex -43 -43 0
      vertex -43 0 0
    endloop
  endfacet
  facet normal 0.39392 0 0.919145
    outer loop
      vertex -43 -43 0
      vertex -49.225 -2.66786 2.66786
      vertex -49.225 -49.225 2.66786
    endloop
  endfacet
  facet normal 0.39392 -0 0.919145
    outer loop
      vertex -49.225 2.66786 2.66786
      vertex -43 43 0
      vertex -49.225 49.225 2.66786
    endloop
  endfacet
  facet normal 0.39392 0 0.919145
    outer loop
      vertex -43 43 0
      vertex -49.225 2.66786 2.66786
      vertex -43 0 0
    endloop
  endfacet
  facet normal -0.819232 0 -0.573462
    outer loop
      vertex 49.225 2.66786 -8.89286
      vertex 43 43 0
      vertex 49.225 49.225 -8.89286
    endloop
  endfacet
  facet normal -0.819232 -0 -0.573462
    outer loop
      vertex 43 43 0
      vertex 49.225 2.66786 -8.89286
      vertex 43 0 0
    endloop
  endfacet
  facet normal -0.819232 0 -0.573462
    outer loop
      vertex 49.225 -2.66786 -8.89286
      vertex 43 -43 0
      vertex 43 0 0
    endloop
  endfacet
  facet normal -0.819232 0 -0.573462
    outer loop
      vertex 43 -43 0
      vertex 49.225 -2.66786 -8.89286
      vertex 49.225 -49.225 -8.89286
    endloop
  endfacet
  facet normal -0.39392 0 0.919145
    outer loop
      vertex 43 43 0
      vertex 49.225 2.66786 2.66786
      vertex 49.225 49.225 2.66786
    endloop
  endfacet
  facet normal -0.39392 0 0.919145
    outer loop
      vertex 49.225 2.66786 2.66786
      vertex 43 43 0
      vertex 43 0 0
    endloop
  endfacet
  facet normal -0.39392 0 0.919145
    outer loop
      vertex 43 -43 0
      vertex 49.225 -2.66786 2.66786
      vertex 43 0 0
    endloop
  endfacet
  facet normal -0.39392 0 0.919145
    outer loop
      vertex 49.225 -2.66786 2.66786
      vertex 43 -43 0
      vertex 49.225 -49.225 2.66786
    endloop
  endfacet
  facet normal 0 -0.819232 -0.573462
    outer loop
      vertex 2.66786 49.225 -8.89286
      vertex 43 43 0
      vertex 0 43 0
    endloop
  endfacet
  facet normal 0 -0.819232 -0.573462
    outer loop
      vertex 43 43 0
      vertex 2.66786 49.225 -8.89286
      vertex 49.225 49.225 -8.89286
    endloop
  endfacet
  facet normal -0 -0.819232 -0.573462
    outer loop
      vertex -2.66786 49.225 -8.89286
      vertex -43 43 0
      vertex -49.225 49.225 -8.89286
    endloop
  endfacet
  facet normal 0 -0.819232 -0.573462
    outer loop
      vertex -43 43 0
      vertex -2.66786 49.225 -8.89286
      vertex 0 43 0
    endloop
  endfacet
  facet normal 0 -0.39392 0.919145
    outer loop
      vertex 2.66786 49.225 2.66786
      vertex 43 43 0
      vertex 49.225 49.225 2.66786
    endloop
  endfacet
  facet normal 0 -0.39392 0.919145
    outer loop
      vertex 43 43 0
      vertex 2.66786 49.225 2.66786
      vertex 0 43 0
    endloop
  endfacet
  facet normal 0 -0.39392 0.919145
    outer loop
      vertex -2.66786 49.225 2.66786
      vertex -43 43 0
      vertex 0 43 0
    endloop
  endfacet
  facet normal 0 -0.39392 0.919145
    outer loop
      vertex -43 43 0
      vertex -2.66786 49.225 2.66786
      vertex -49.225 49.225 2.66786
    endloop
  endfacet
  facet normal 0 0.819232 -0.573462
    outer loop
      vertex 2.66786 -49.225 -8.89286
      vertex 43 -43 0
      vertex 49.225 -49.225 -8.89286
    endloop
  endfacet
  facet normal 0 0.819232 -0.573462
    outer loop
      vertex 43 -43 0
      vertex 2.66786 -49.225 -8.89286
      vertex 0 -43 0
    endloop
  endfacet
  facet normal 0 0.819232 -0.573462
    outer loop
      vertex -2.66786 -49.225 -8.89286
      vertex -43 -43 0
      vertex 0 -43 0
    endloop
  endfacet
  facet normal 0 0.819232 -0.573462
    outer loop
      vertex -43 -43 0
      vertex -2.66786 -49.225 -8.89286
      vertex -49.225 -49.225 -8.89286
    endloop
  endfacet
  facet normal 0 0.39392 0.919145
    outer loop
      vertex 43 -43 0
      vertex 2.66786 -49.225 2.66786
      vertex 49.225 -49.225 2.66786
    endloop
  endfacet
  facet normal 0 0.39392 0.919145
    outer loop
      vertex 2.66786 -49.225 2.66786
      vertex 43 -43 0
      vertex 0 -43 0
    endloop
  endfacet
  facet normal -0 0.39392 0.919145
    outer loop
      vertex -43 -43 0
      vertex -2.66786 -49.225 2.66786
      vertex 0 -43 0
    endloop
  endfacet
  facet normal 0 0.39392 0.919145
    outer loop
      vertex -2.66786 -49.225 2.66786
      vertex -43 -43 0
      vertex -49.225 -49.225 2.66786
    endloop
  endfacet
  facet normal 1 -0 0
    outer loop
      vertex -40 -40 50
      vertex -40 40 45
      vertex -40 40 50
    endloop
  endfacet
  facet normal 1 0 0
    outer loop
      vertex -40 40 45
      vertex -40 -40 50
      vertex -40 -40 45
    endloop
  endfacet
  facet normal 0.83205 0 -0.5547
    outer loop
      vertex -40 40 45
      vertex -49.225 2.66786 31.1625
      vertex -49.225 49.225 31.1625
    endloop
  endfacet
  facet normal 0.83205 1.53359e-17 -0.5547
    outer loop
      vertex -40 40 45
      vertex -43 0 40.5
      vertex -49.225 2.66786 31.1625
    endloop
  endfacet
  facet normal 0.83205 0 -0.5547
    outer loop
      vertex -40 -40 45
      vertex -43 0 40.5
      vertex -40 40 45
    endloop
  endfacet
  facet normal 0.83205 -1.53359e-17 -0.5547
    outer loop
      vertex -40 -40 45
      vertex -49.225 -2.66786 31.1625
      vertex -43 0 40.5
    endloop
  endfacet
  facet normal 0.83205 0 -0.5547
    outer loop
      vertex -49.225 -2.66786 31.1625
      vertex -40 -40 45
      vertex -49.225 -49.225 31.1625
    endloop
  endfacet
  facet normal -0.83205 0 -0.5547
    outer loop
      vertex 49.225 2.66786 31.1625
      vertex 40 40 45
      vertex 49.225 49.225 31.1625
    endloop
  endfacet
  facet normal -0.83205 2.30039e-17 -0.5547
    outer loop
      vertex 43 0 40.5
      vertex 40 40 45
      vertex 49.225 2.66786 31.1625
    endloop
  endfacet
  facet normal -0.83205 0 -0.5547
    outer loop
      vertex 43 0 40.5
      vertex 40 -40 45
      vertex 40 40 45
    endloop
  endfacet
  facet normal -0.83205 -3.06718e-17 -0.5547
    outer loop
      vertex 49.225 -2.66786 31.1625
      vertex 40 -40 45
      vertex 43 0 40.5
    endloop
  endfacet
  facet normal -0.83205 0 -0.5547
    outer loop
      vertex 40 -40 45
      vertex 49.225 -2.66786 31.1625
      vertex 49.225 -49.225 31.1625
    endloop
  endfacet
  facet normal -1 0 0
    outer loop
      vertex 40 -40 45
      vertex 40 40 50
      vertex 40 40 45
    endloop
  endfacet
  facet normal -1 -0 0
    outer loop
      vertex 40 40 50
      vertex 40 -40 45
      vertex 40 -40 50
    endloop
  endfacet
  facet normal 0 -0.83205 -0.5547
    outer loop
      vertex -40 40 45
      vertex 0 43 40.5
      vertex 40 40 45
    endloop
  endfacet
  facet normal -0 -0.83205 -0.5547
    outer loop
      vertex -2.66786 49.225 31.1625
      vertex -40 40 45
      vertex -49.225 49.225 31.1625
    endloop
  endfacet
  facet normal -1.53359e-17 -0.83205 -0.5547
    outer loop
      vertex -40 40 45
      vertex -2.66786 49.225 31.1625
      vertex 0 43 40.5
    endloop
  endfacet
  facet normal 3.06718e-17 -0.83205 -0.5547
    outer loop
      vertex 2.66786 49.225 31.1625
      vertex 40 40 45
      vertex 0 43 40.5
    endloop
  endfacet
  facet normal 0 -0.83205 -0.5547
    outer loop
      vertex 40 40 45
      vertex 2.66786 49.225 31.1625
      vertex 49.225 49.225 31.1625
    endloop
  endfacet
  facet normal 0 -1 0
    outer loop
      vertex -40 40 45
      vertex 40 40 50
      vertex -40 40 50
    endloop
  endfacet
  facet normal 0 -1 -0
    outer loop
      vertex 40 40 50
      vertex -40 40 45
      vertex 40 40 45
    endloop
  endfacet
  facet normal 0 1 -0
    outer loop
      vertex 40 -40 45
      vertex -40 -40 50
      vertex 40 -40 50
    endloop
  endfacet
  facet normal 0 1 0
    outer loop
      vertex -40 -40 50
      vertex 40 -40 45
      vertex -40 -40 45
    endloop
  endfacet
  facet normal 0 0.83205 -0.5547
    outer loop
      vertex 40 -40 45
      vertex 0 -43 40.5
      vertex -40 -40 45
    endloop
  endfacet
  facet normal 0 0.83205 -0.5547
    outer loop
      vertex 2.66786 -49.225 31.1625
      vertex 40 -40 45
      vertex 49.225 -49.225 31.1625
    endloop
  endfacet
  facet normal 1.53359e-17 0.83205 -0.5547
    outer loop
      vertex 40 -40 45
      vertex 2.66786 -49.225 31.1625
      vertex 0 -43 40.5
    endloop
  endfacet
  facet normal -3.06718e-17 0.83205 -0.5547
    outer loop
      vertex -2.66786 -49.225 31.1625
      vertex -40 -40 45
      vertex 0 -43 40.5
    endloop
  endfacet
  facet normal 0 0.83205 -0.5547
    outer loop
      vertex -40 -40 45
      vertex -2.66786 -49.225 31.1625
      vertex -49.225 -49.225 31.1625
    endloop
  endfacet
endsolid OpenSCAD_Model
