solid OpenSCAD_Model
  facet normal -1 0 0
    outer loop
      vertex -100 -100 -100
      vertex -100 100 100
      vertex -100 100 -100
    endloop
  endfacet
  facet normal -1 -0 0
    outer loop
      vertex -100 100 100
      vertex -100 -100 -100
      vertex -100 -100 100
    endloop
  endfacet
  facet normal 0 0 1
    outer loop
      vertex 100 100 100
      vertex 90 90 100
      vertex 100 -100 100
    endloop
  endfacet
  facet normal 0 0 1
    outer loop
      vertex 100 100 100
      vertex -90 90 100
      vertex 90 90 100
    endloop
  endfacet
  facet normal 0 0 1
    outer loop
      vertex -90 90 100
      vertex -100 100 100
      vertex -90 -90 100
    endloop
  endfacet
  facet normal -0 0 1
    outer loop
      vertex -100 100 100
      vertex -90 90 100
      vertex 100 100 100
    endloop
  endfacet
  facet normal -0 0 1
    outer loop
      vertex 90 -90 100
      vertex 100 -100 100
      vertex 90 90 100
    endloop
  endfacet
  facet normal -0 0 1
    outer loop
      vertex -90 -90 100
      vertex 100 -100 100
      vertex 90 -90 100
    endloop
  endfacet
  facet normal 0 0 1
    outer loop
      vertex -90 -90 100
      vertex -100 -100 100
      vertex 100 -100 100
    endloop
  endfacet
  facet normal 0 0 1
    outer loop
      vertex -100 -100 100
      vertex -90 -90 100
      vertex -100 100 100
    endloop
  endfacet
  facet normal 1 -0 0
    outer loop
      vertex 100 -100 100
      vertex 100 100 -100
      vertex 100 100 100
    endloop
  endfacet
  facet normal 1 0 0
    outer loop
      vertex 100 100 -100
      vertex 100 -100 100
      vertex 100 -100 -100
    endloop
  endfacet
  facet normal 0 1 -0
    outer loop
      vertex 100 100 -100
      vertex -100 100 100
      vertex 100 100 100
    endloop
  endfacet
  facet normal 0 1 0
    outer loop
      vertex -100 100 100
      vertex 100 100 -100
      vertex -100 100 -100
    endloop
  endfacet
  facet normal 0 0 -1
    outer loop
      vertex -100 -100 -100
      vertex 100 100 -100
      vertex 100 -100 -100
    endloop
  endfacet
  facet normal -0 0 -1
    outer loop
      vertex 100 100 -100
      vertex -100 -100 -100
      vertex -100 100 -100
    endloop
  endfacet
  facet normal 0 -1 0
    outer loop
      vertex -100 -100 -100
      vertex 100 -100 100
      vertex -100 -100 100
    endloop
  endfacet
  facet normal 0 -1 -0
    outer loop
      vertex 100 -100 100
      vertex -100 -100 -100
      vertex 100 -100 -100
    endloop
  endfacet
  facet normal 1 -0 0
    outer loop
      vertex -99.225 -99.225 -8.89286
      vertex -99.225 -2.66786 -98.99
      vertex -99.225 -2.66786 -8.89286
    endloop
  endfacet
  facet normal 1 0 0
    outer loop
      vertex -99.225 -2.66786 -98.99
      vertex -99.225 -99.225 -8.89286
      vertex -99.225 -99.225 -98.99
    endloop
  endfacet
  facet normal 1 -0 0
    outer loop
      vertex -99.225 2.66786 -8.89286
      vertex -99.225 99.225 -98.99
      vertex -99.225 99.225 -8.89286
    endloop
  endfacet
  facet normal 1 0 0
    outer loop
      vertex -99.225 99.225 -98.99
      vertex -99.225 2.66786 -8.89286
      vertex -99.225 2.66786 -98.99
    endloop
  endfacet
  facet normal 1 -0 0
    outer loop
      vertex -99.225 -99.225 81.1625
      vertex -99.225 -2.66786 2.66786
      vertex -99.225 -2.66786 81.1625
    endloop
  endfacet
  facet normal 1 0 0
    outer loop
      vertex -99.225 -2.66786 2.66786
      vertex -99.225 -99.225 81.1625
      vertex -99.225 -99.225 2.66786
    endloop
  endfacet
  facet normal 1 -0 0
    outer loop
      vertex -99.225 2.66786 81.1625
      vertex -99.225 99.225 2.66786
      vertex -99.225 99.225 81.1625
    endloop
  endfacet
  facet normal 1 0 0
    outer loop
      vertex -99.225 99.225 2.66786
      vertex -99.225 2.66786 81.1625
      vertex -99.225 2.66786 2.66786
    endloop
  endfacet
  facet normal -1 0 0
    outer loop
      vertex 99.225 2.66786 -98.99
      vertex 99.225 99.225 -8.89286
      vertex 99.225 99.225 -98.99
    endloop
  endfacet
  facet normal -1 -0 0
    outer loop
      vertex 99.225 99.225 -8.89286
      vertex 99.225 2.66786 -98.99
      vertex 99.225 2.66786 -8.89286
    endloop
  endfacet
  facet normal -1 0 0
    outer loop
      vertex 99.225 -99.225 -98.99
      vertex 99.225 -2.66786 -8.89286
      vertex 99.225 -2.66786 -98.99
    endloop
  endfacet
  facet normal -1 -0 0
    outer loop
      vertex 99.225 -2.66786 -8.89286
      vertex 99.225 -99.225 -98.99
      vertex 99.225 -99.225 -8.89286
    endloop
  endfacet
  facet normal -1 0 0
    outer loop
      vertex 99.225 -99.225 2.66786
      vertex 99.225 -2.66786 81.1625
      vertex 99.225 -2.66786 2.66786
    endloop
  endfacet
  facet normal -1 -0 0
    outer loop
      vertex 99.225 -2.66786 81.1625
      vertex 99.225 -99.225 2.66786
      vertex 99.225 -99.225 81.1625
    endloop
  endfacet
  facet normal -1 0 0
    outer loop
      vertex 99.225 2.66786 2.66786
      vertex 99.225 99.225 81.1625
      vertex 99.225 99.225 2.66786
    endloop
  endfacet
  facet normal -1 -0 0
    outer loop
      vertex 99.225 99.225 81.1625
      vertex 99.225 2.66786 2.66786
      vertex 99.225 2.66786 81.1625
    endloop
  endfacet
  facet normal -0 0 1
    outer loop
      vertex -98.99 -2.56714 -98.99
      vertex -2.56714 -98.99 -98.99
      vertex -2.56714 -2.56714 -98.99
    endloop
  endfacet
  facet normal 0 0 1
    outer loop
      vertex -99.225 -99.225 -98.99
      vertex -2.56714 -98.99 -98.99
      vertex -98.99 -2.56714 -98.99
    endloop
  endfacet
  facet normal 0 0 1
    outer loop
      vertex -99.225 -99.225 -98.99
      vertex -98.99 -2.56714 -98.99
      vertex -99.225 -2.66786 -98.99
    endloop
  endfacet
  facet normal 0 0 1
    outer loop
      vertex -2.56714 -98.99 -98.99
      vertex -99.225 -99.225 -98.99
      vertex -2.66786 -99.225 -98.99
    endloop
  endfacet
  facet normal 0 0 1
    outer loop
      vertex 99.225 99.225 -98.99
      vertex 98.99 2.56714 -98.99
      vertex 99.225 2.66786 -98.99
    endloop
  endfacet
  facet normal 0 0 1
    outer loop
      vertex 2.56714 98.99 -98.99
      vertex 99.225 99.225 -98.99
      vertex 2.66786 99.225 -98.99
    endloop
  endfacet
  facet normal 0 0 1
    outer loop
      vertex 99.225 99.225 -98.99
      vertex 2.56714 98.99 -98.99
      vertex 98.99 2.56714 -98.99
    endloop
  endfacet
  facet normal 0 0 1
    outer loop
      vertex 98.99 2.56714 -98.99
      vertex 2.56714 98.99 -98.99
      vertex 2.56714 2.56714 -98.99
    endloop
  endfacet
  facet normal -0 0 1
    outer loop
      vertex -99.225 99.225 -98.99
      vertex -2.56714 98.99 -98.99
      vertex -2.66786 99.225 -98.99
    endloop
  endfacet
  facet normal 0 0 1
    outer loop
      vertex -2.56714 98.99 -98.99
      vertex -98.99 2.56714 -98.99
      vertex -2.56714 2.56714 -98.99
    endloop
  endfacet
  facet normal 0 0 1
    outer loop
      vertex -2.56714 98.99 -98.99
      vertex -99.225 99.225 -98.99
      vertex -98.99 2.56714 -98.99
    endloop
  endfacet
  facet normal 0 0 1
    outer loop
      vertex -98.99 2.56714 -98.99
      vertex -99.225 99.225 -98.99
      vertex -99.225 2.66786 -98.99
    endloop
  endfacet
  facet normal 0 0 1
    outer loop
      vertex 98.99 -2.56714 -98.99
      vertex 99.225 -99.225 -98.99
      vertex 99.225 -2.66786 -98.99
    endloop
  endfacet
  facet normal -0 0 1
    outer loop
      vertex 2.56714 -98.99 -98.99
      vertex 99.225 -99.225 -98.99
      vertex 98.99 -2.56714 -98.99
    endloop
  endfacet
  facet normal 0 0 1
    outer loop
      vertex 2.56714 -98.99 -98.99
      vertex 98.99 -2.56714 -98.99
      vertex 2.56714 -2.56714 -98.99
    endloop
  endfacet
  facet normal 0 0 1
    outer loop
      vertex 99.225 -99.225 -98.99
      vertex 2.56714 -98.99 -98.99
      vertex 2.66786 -99.225 -98.99
    endloop
  endfacet
  facet normal 0 1 -0
    outer loop
      vertex -2.66786 -99.225 -98.99
      vertex -99.225 -99.225 -8.89286
      vertex -2.66786 -99.225 -8.89286
    endloop
  endfacet
  facet normal 0 1 0
    outer loop
      vertex -99.225 -99.225 -8.89286
      vertex -2.66786 -99.225 -98.99
      vertex -99.225 -99.225 -98.99
    endloop
  endfacet
  facet normal 0 1 -0
    outer loop
      vertex 99.225 -99.225 -98.99
      vertex 2.66786 -99.225 -8.89286
      vertex 99.225 -99.225 -8.89286
    endloop
  endfacet
  facet normal 0 1 0
    outer loop
      vertex 2.66786 -99.225 -8.89286
      vertex 99.225 -99.225 -98.99
      vertex 2.66786 -99.225 -98.99
    endloop
  endfacet
  facet normal 0 1 -0
    outer loop
      vertex -2.66786 -99.225 2.66786
      vertex -99.225 -99.225 81.1625
      vertex -2.66786 -99.225 81.1625
    endloop
  endfacet
  facet normal 0 1 0
    outer loop
      vertex -99.225 -99.225 81.1625
      vertex -2.66786 -99.225 2.66786
      vertex -99.225 -99.225 2.66786
    endloop
  endfacet
  facet normal 0 1 -0
    outer loop
      vertex 99.225 -99.225 2.66786
      vertex 2.66786 -99.225 81.1625
      vertex 99.225 -99.225 81.1625
    endloop
  endfacet
  facet normal 0 1 0
    outer loop
      vertex 2.66786 -99.225 81.1625
      vertex 99.225 -99.225 2.66786
      vertex 2.66786 -99.225 2.66786
    endloop
  endfacet
  facet normal 0 -1 0
    outer loop
      vertex 2.66786 99.225 -98.99
      vertex 99.225 99.225 -8.89286
      vertex 2.66786 99.225 -8.89286
    endloop
  endfacet
  facet normal 0 -1 -0
    outer loop
      vertex 99.225 99.225 -8.89286
      vertex 2.66786 99.225 -98.99
      vertex 99.225 99.225 -98.99
    endloop
  endfacet
  facet normal 0 -1 0
    outer loop
      vertex -99.225 99.225 -98.99
      vertex -2.66786 99.225 -8.89286
      vertex -99.225 99.225 -8.89286
    endloop
  endfacet
  facet normal 0 -1 -0
    outer loop
      vertex -2.66786 99.225 -8.89286
      vertex -99.225 99.225 -98.99
      vertex -2.66786 99.225 -98.99
    endloop
  endfacet
  facet normal 0 -1 0
    outer loop
      vertex -99.225 99.225 2.66786
      vertex -2.66786 99.225 81.1625
      vertex -99.225 99.225 81.1625
    endloop
  endfacet
  facet normal 0 -1 -0
    outer loop
      vertex -2.66786 99.225 81.1625
      vertex -99.225 99.225 2.66786
      vertex -2.66786 99.225 2.66786
    endloop
  endfacet
  facet normal 0 -1 0
    outer loop
      vertex 2.66786 99.225 2.66786
      vertex 99.225 99.225 81.1625
      vertex 2.66786 99.225 81.1625
    endloop
  endfacet
  facet normal 0 -1 -0
    outer loop
      vertex 99.225 99.225 81.1625
      vertex 2.66786 99.225 2.66786
      vertex 99.225 99.225 2.66786
    endloop
  endfacet
  facet normal 0 -0.919145 0.393919
    outer loop
      vertex -2.56714 -2.56714 -98.99
      vertex -93 0 -93
      vertex -98.99 -2.56714 -98.99
    endloop
  endfacet
  facet normal 0 -0.919145 0.393919
    outer loop
      vertex -93 0 -93
      vertex -2.56714 -2.56714 -98.99
      vertex 0 0 -93
    endloop
  endfacet
  facet normal 0 -0.919145 0.393919
    outer loop
      vertex 2.56714 -2.56714 -98.99
      vertex 93 0 -93
      vertex 0 0 -93
    endloop
  endfacet
  facet normal 0 -0.919145 0.393919
    outer loop
      vertex 93 0 -93
      vertex 2.56714 -2.56714 -98.99
      vertex 98.99 -2.56714 -98.99
    endloop
  endfacet
  facet normal 0 0.919145 0.393919
    outer loop
      vertex -2.56714 2.56714 -98.99
      vertex -93 0 -93
      vertex 0 0 -93
    endloop
  endfacet
  facet normal 0 0.919145 0.393919
    outer loop
      vertex -93 0 -93
      vertex -2.56714 2.56714 -98.99
      vertex -98.99 2.56714 -98.99
    endloop
  endfacet
  facet normal -0 0.919145 0.393919
    outer loop
      vertex 2.56714 2.56714 -98.99
      vertex 93 0 -93
      vertex 98.99 2.56714 -98.99
    endloop
  endfacet
  facet normal 0 0.919145 0.393919
    outer loop
      vertex 93 0 -93
      vertex 2.56714 2.56714 -98.99
      vertex 0 0 -93
    endloop
  endfacet
  facet normal 0.919145 -0 0.393919
    outer loop
      vertex 0 -93 -93
      vertex 2.56714 -2.56714 -98.99
      vertex 0 0 -93
    endloop
  endfacet
  facet normal 0.919145 0 0.393919
    outer loop
      vertex 2.56714 -2.56714 -98.99
      vertex 0 -93 -93
      vertex 2.56714 -98.99 -98.99
    endloop
  endfacet
  facet normal 0.919145 0 0.393919
    outer loop
      vertex 0 93 -93
      vertex 2.56714 2.56714 -98.99
      vertex 2.56714 98.99 -98.99
    endloop
  endfacet
  facet normal 0.919145 0 0.393919
    outer loop
      vertex 2.56714 2.56714 -98.99
      vertex 0 93 -93
      vertex 0 0 -93
    endloop
  endfacet
  facet normal -0.919145 0 0.393919
    outer loop
      vertex -2.56714 -2.56714 -98.99
      vertex 0 -93 -93
      vertex 0 0 -93
    endloop
  endfacet
  facet normal -0.919145 0 0.393919
    outer loop
      vertex 0 -93 -93
      vertex -2.56714 -2.56714 -98.99
      vertex -2.56714 -98.99 -98.99
    endloop
  endfacet
  facet normal -0.919145 0 0.393919
    outer loop
      vertex -2.56714 2.56714 -98.99
      vertex 0 93 -93
      vertex -2.56714 98.99 -98.99
    endloop
  endfacet
  facet normal -0.919145 0 0.393919
    outer loop
      vertex 0 93 -93
      vertex -2.56714 2.56714 -98.99
      vertex 0 0 -93
    endloop
  endfacet
  facet normal 0.39392 -0.919145 0
    outer loop
      vertex -99.225 -2.66786 -8.89286
      vertex -93 0 -93
      vertex -93 0 0
    endloop
  endfacet
  facet normal 0.39392 -0.919145 0
    outer loop
      vertex -99.225 -2.66786 -98.99
      vertex -93 0 -93
      vertex -99.225 -2.66786 -8.89286
    endloop
  endfacet
  facet normal 0.393938 -0.919137 -2.27882e-05
    outer loop
      vertex -93 0 -93
      vertex -99.225 -2.66786 -98.99
      vertex -98.99 -2.56714 -98.99
    endloop
  endfacet
  facet normal 0.39392 -0.919145 0
    outer loop
      vertex -93 0 0
      vertex -99.225 -2.66786 81.1625
      vertex -99.225 -2.66786 2.66786
    endloop
  endfacet
  facet normal 0.39392 -0.919145 0
    outer loop
      vertex -99.225 -2.66786 81.1625
      vertex -93 0 0
      vertex -93 0 90.5
    endloop
  endfacet
  facet normal 0.39392 0.919145 -0
    outer loop
      vertex -93 0 -93
      vertex -99.225 2.66786 -8.89286
      vertex -93 0 0
    endloop
  endfacet
  facet normal 0.393938 0.919137 -2.27882e-05
    outer loop
      vertex -99.225 2.66786 -98.99
      vertex -93 0 -93
      vertex -98.99 2.56714 -98.99
    endloop
  endfacet
  facet normal 0.39392 0.919145 0
    outer loop
      vertex -93 0 -93
      vertex -99.225 2.66786 -98.99
      vertex -99.225 2.66786 -8.89286
    endloop
  endfacet
  facet normal 0.39392 0.919145 -0
    outer loop
      vertex -93 0 0
      vertex -99.225 2.66786 81.1625
      vertex -93 0 90.5
    endloop
  endfacet
  facet normal 0.39392 0.919145 0
    outer loop
      vertex -99.225 2.66786 81.1625
      vertex -93 0 0
      vertex -99.225 2.66786 2.66786
    endloop
  endfacet
  facet normal -0.39392 0.919145 0
    outer loop
      vertex 99.225 2.66786 -8.89286
      vertex 93 0 -93
      vertex 93 0 0
    endloop
  endfacet
  facet normal -0.39392 0.919145 0
    outer loop
      vertex 99.225 2.66786 -98.99
      vertex 93 0 -93
      vertex 99.225 2.66786 -8.89286
    endloop
  endfacet
  facet normal -0.393938 0.919137 -2.27882e-05
    outer loop
      vertex 93 0 -93
      vertex 99.225 2.66786 -98.99
      vertex 98.99 2.56714 -98.99
    endloop
  endfacet
  facet normal -0.39392 0.919145 0
    outer loop
      vertex 93 0 0
      vertex 99.225 2.66786 81.1625
      vertex 99.225 2.66786 2.66786
    endloop
  endfacet
  facet normal -0.39392 0.919145 0
    outer loop
      vertex 99.225 2.66786 81.1625
      vertex 93 0 0
      vertex 93 0 90.5
    endloop
  endfacet
  facet normal -0.39392 -0.919145 0
    outer loop
      vertex 93 0 -93
      vertex 99.225 -2.66786 -8.89286
      vertex 93 0 0
    endloop
  endfacet
  facet normal -0.393938 -0.919137 -2.27882e-05
    outer loop
      vertex 99.225 -2.66786 -98.99
      vertex 93 0 -93
      vertex 98.99 -2.56714 -98.99
    endloop
  endfacet
  facet normal -0.39392 -0.919145 0
    outer loop
      vertex 93 0 -93
      vertex 99.225 -2.66786 -98.99
      vertex 99.225 -2.66786 -8.89286
    endloop
  endfacet
  facet normal -0.39392 -0.919145 0
    outer loop
      vertex 93 0 0
      vertex 99.225 -2.66786 81.1625
      vertex 93 0 90.5
    endloop
  endfacet
  facet normal -0.39392 -0.919145 -0
    outer loop
      vertex 99.225 -2.66786 81.1625
      vertex 93 0 0
      vertex 99.225 -2.66786 2.66786
    endloop
  endfacet
  facet normal -0.919137 -0.393938 -2.27882e-05
    outer loop
      vertex 0 93 -93
      vertex -2.66786 99.225 -98.99
      vertex -2.56714 98.99 -98.99
    endloop
  endfacet
  facet normal -0.919145 -0.39392 0
    outer loop
      vertex -2.66786 99.225 -98.99
      vertex 0 93 -93
      vertex -2.66786 99.225 -8.89286
    endloop
  endfacet
  facet normal -0.919145 -0.39392 0
    outer loop
      vertex -2.66786 99.225 -8.89286
      vertex 0 93 -93
      vertex 0 93 0
    endloop
  endfacet
  facet normal -0.919145 -0.39392 0
    outer loop
      vertex 0 93 0
      vertex -2.66786 99.225 81.1625
      vertex -2.66786 99.225 2.66786
    endloop
  endfacet
  facet normal -0.919145 -0.39392 0
    outer loop
      vertex -2.66786 99.225 81.1625
      vertex 0 93 0
      vertex 0 93 90.5
    endloop
  endfacet
  facet normal 0.919145 -0.39392 0
    outer loop
      vertex 0 93 -93
      vertex 2.66786 99.225 -98.99
      vertex 2.66786 99.225 -8.89286
    endloop
  endfacet
  facet normal 0.919145 -0.39392 0
    outer loop
      vertex 0 93 -93
      vertex 2.66786 99.225 -8.89286
      vertex 0 93 0
    endloop
  endfacet
  facet normal 0.919137 -0.393938 -2.27882e-05
    outer loop
      vertex 2.66786 99.225 -98.99
      vertex 0 93 -93
      vertex 2.56714 98.99 -98.99
    endloop
  endfacet
  facet normal 0.919145 -0.39392 0
    outer loop
      vertex 0 93 0
      vertex 2.66786 99.225 81.1625
      vertex 0 93 90.5
    endloop
  endfacet
  facet normal 0.919145 -0.39392 0
    outer loop
      vertex 2.66786 99.225 81.1625
      vertex 0 93 0
      vertex 2.66786 99.225 2.66786
    endloop
  endfacet
  facet normal 0.919145 0.39392 0
    outer loop
      vertex 2.66786 -99.225 -8.89286
      vertex 0 -93 -93
      vertex 0 -93 0
    endloop
  endfacet
  facet normal 0.919145 0.39392 -0
    outer loop
      vertex 2.66786 -99.225 -98.99
      vertex 0 -93 -93
      vertex 2.66786 -99.225 -8.89286
    endloop
  endfacet
  facet normal 0.919137 0.393938 -2.27882e-05
    outer loop
      vertex 0 -93 -93
      vertex 2.66786 -99.225 -98.99
      vertex 2.56714 -98.99 -98.99
    endloop
  endfacet
  facet normal 0.919145 0.39392 0
    outer loop
      vertex 2.66786 -99.225 81.1625
      vertex 0 -93 0
      vertex 0 -93 90.5
    endloop
  endfacet
  facet normal 0.919145 0.39392 0
    outer loop
      vertex 0 -93 0
      vertex 2.66786 -99.225 81.1625
      vertex 2.66786 -99.225 2.66786
    endloop
  endfacet
  facet normal -0.919137 0.393938 -2.27882e-05
    outer loop
      vertex -2.66786 -99.225 -98.99
      vertex 0 -93 -93
      vertex -2.56714 -98.99 -98.99
    endloop
  endfacet
  facet normal -0.919145 0.39392 0
    outer loop
      vertex 0 -93 -93
      vertex -2.66786 -99.225 -98.99
      vertex -2.66786 -99.225 -8.89286
    endloop
  endfacet
  facet normal -0.919145 0.39392 0
    outer loop
      vertex 0 -93 -93
      vertex -2.66786 -99.225 -8.89286
      vertex 0 -93 0
    endloop
  endfacet
  facet normal -0.919145 0.39392 0
    outer loop
      vertex -2.66786 -99.225 81.1625
      vertex 0 -93 0
      vertex -2.66786 -99.225 2.66786
    endloop
  endfacet
  facet normal -0.919145 0.39392 0
    outer loop
      vertex 0 -93 0
      vertex -2.66786 -99.225 81.1625
      vertex 0 -93 90.5
    endloop
  endfacet
  facet normal 0.819232 0 -0.573462
    outer loop
      vertex -93 -93 0
      vertex -99.225 -2.66786 -8.89286
      vertex -93 0 0
    endloop
  endfacet
  facet normal 0.819232 0 -0.573462
    outer loop
      vertex -99.225 -2.66786 -8.89286
      vertex -93 -93 0
      vertex -99.225 -99.225 -8.89286
    endloop
  endfacet
  facet normal 0.819232 0 -0.573462
    outer loop
      vertex -93 93 0
      vertex -99.225 2.66786 -8.89286
      vertex -99.225 99.225 -8.89286
    endloop
  endfacet
  facet normal 0.819232 0 -0.573462
    outer loop
      vertex -99.225 2.66786 -8.89286
      vertex -93 93 0
      vertex -93 0 0
    endloop
  endfacet
  facet normal 0.39392 0 0.919145
    outer loop
      vertex -99.225 -2.66786 2.66786
      vertex -93 -93 0
      vertex -93 0 0
    endloop
  endfacet
  facet normal 0.39392 0 0.919145
    outer loop
      vertex -93 -93 0
      vertex -99.225 -2.66786 2.66786
      vertex -99.225 -99.225 2.66786
    endloop
  endfacet
  facet normal 0.39392 -0 0.919145
    outer loop
      vertex -99.225 2.66786 2.66786
      vertex -93 93 0
      vertex -99.225 99.225 2.66786
    endloop
  endfacet
  facet normal 0.39392 0 0.919145
    outer loop
      vertex -93 93 0
      vertex -99.225 2.66786 2.66786
      vertex -93 0 0
    endloop
  endfacet
  facet normal -0.819232 0 -0.573462
    outer loop
      vertex 99.225 2.66786 -8.89286
      vertex 93 93 0
      vertex 99.225 99.225 -8.89286
    endloop
  endfacet
  facet normal -0.819232 -0 -0.573462
    outer loop
      vertex 93 93 0
      vertex 99.225 2.66786 -8.89286
      vertex 93 0 0
    endloop
  endfacet
  facet normal -0.819232 0 -0.573462
    outer loop
      vertex 99.225 -2.66786 -8.89286
      vertex 93 -93 0
      vertex 93 0 0
    endloop
  endfacet
  facet normal -0.819232 0 -0.573462
    outer loop
      vertex 93 -93 0
      vertex 99.225 -2.66786 -8.89286
      vertex 99.225 -99.225 -8.89286
    endloop
  endfacet
  facet normal -0.39392 0 0.919145
    outer loop
      vertex 93 93 0
      vertex 99.225 2.66786 2.66786
      vertex 99.225 99.225 2.66786
    endloop
  endfacet
  facet normal -0.39392 0 0.919145
    outer loop
      vertex 99.225 2.66786 2.66786
      vertex 93 93 0
      vertex 93 0 0
    endloop
  endfacet
  facet normal -0.39392 0 0.919145
    outer loop
      vertex 93 -93 0
      vertex 99.225 -2.66786 2.66786
      vertex 93 0 0
    endloop
  endfacet
  facet normal -0.39392 0 0.919145
    outer loop
      vertex 99.225 -2.66786 2.66786
      vertex 93 -93 0
      vertex 99.225 -99.225 2.66786
    endloop
  endfacet
  facet normal 0 -0.819232 -0.573462
    outer loop
      vertex 2.66786 99.225 -8.89286
      vertex 93 93 0
      vertex 0 93 0
    endloop
  endfacet
  facet normal 0 -0.819232 -0.573462
    outer loop
      vertex 93 93 0
      vertex 2.66786 99.225 -8.89286
      vertex 99.225 99.225 -8.89286
    endloop
  endfacet
  facet normal -0 -0.819232 -0.573462
    outer loop
      vertex -2.66786 99.225 -8.89286
      vertex -93 93 0
      vertex -99.225 99.225 -8.89286
    endloop
  endfacet
  facet normal 0 -0.819232 -0.573462
    outer loop
      vertex -93 93 0
      vertex -2.66786 99.225 -8.89286
      vertex 0 93 0
    endloop
  endfacet
  facet normal 0 -0.39392 0.919145
    outer loop
      vertex 2.66786 99.225 2.66786
      vertex 93 93 0
      vertex 99.225 99.225 2.66786
    endloop
  endfacet
  facet normal 0 -0.39392 0.919145
    outer loop
      vertex 93 93 0
      vertex 2.66786 99.225 2.66786
      vertex 0 93 0
    endloop
  endfacet
  facet normal 0 -0.39392 0.919145
    outer loop
      vertex -2.66786 99.225 2.66786
      vertex -93 93 0
      vertex 0 93 0
    endloop
  endfacet
  facet normal 0 -0.39392 0.919145
    outer loop
      vertex -93 93 0
      vertex -2.66786 99.225 2.66786
      vertex -99.225 99.225 2.66786
    endloop
  endfacet
  facet normal 0 0.819232 -0.573462
    outer loop
      vertex 2.66786 -99.225 -8.89286
      vertex 93 -93 0
      vertex 99.225 -99.225 -8.89286
    endloop
  endfacet
  facet normal 0 0.819232 -0.573462
    outer loop
      vertex 93 -93 0
      vertex 2.66786 -99.225 -8.89286
      vertex 0 -93 0
    endloop
  endfacet
  facet normal 0 0.819232 -0.573462
    outer loop
      vertex -2.66786 -99.225 -8.89286
      vertex -93 -93 0
      vertex 0 -93 0
    endloop
  endfacet
  facet normal 0 0.819232 -0.573462
    outer loop
      vertex -93 -93 0
      vertex -2.66786 -99.225 -8.89286
      vertex -99.225 -99.225 -8.89286
    endloop
  endfacet
  facet normal 0 0.39392 0.919145
    outer loop
      vertex 93 -93 0
      vertex 2.66786 -99.225 2.66786
      vertex 99.225 -99.225 2.66786
    endloop
  endfacet
  facet normal 0 0.39392 0.919145
    outer loop
      vertex 2.66786 -99.225 2.66786
      vertex 93 -93 0
      vertex 0 -93 0
    endloop
  endfacet
  facet normal -0 0.39392 0.919145
    outer loop
      vertex -93 -93 0
      vertex -2.66786 -99.225 2.66786
      vertex 0 -93 0
    endloop
  endfacet
  facet normal 0 0.39392 0.919145
    outer loop
      vertex -2.66786 -99.225 2.66786
      vertex -93 -93 0
      vertex -99.225 -99.225 2.66786
    endloop
  endfacet
  facet normal 1 -0 0
    outer loop
      vertex -90 -90 100
      vertex -90 90 95
      vertex -90 90 100
    endloop
  endfacet
  facet normal 1 0 0
    outer loop
      vertex -90 90 95
      vertex -90 -90 100
      vertex -90 -90 95
    endloop
  endfacet
  facet normal 0.83205 0 -0.5547
    outer loop
      vertex -90 90 95
      vertex -99.225 2.66786 81.1625
      vertex -99.225 99.225 81.1625
    endloop
  endfacet
  facet normal 0.83205 -4.16157e-17 -0.5547
    outer loop
      vertex -90 90 95
      vertex -93 0 90.5
      vertex -99.225 2.66786 81.1625
    endloop
  endfacet
  facet normal 0.83205 0 -0.5547
    outer loop
      vertex -90 -90 95
      vertex -93 0 90.5
      vertex -90 90 95
    endloop
  endfacet
  facet normal 0.83205 4.16157e-17 -0.5547
    outer loop
      vertex -90 -90 95
      vertex -99.225 -2.66786 81.1625
      vertex -93 0 90.5
    endloop
  endfacet
  facet normal 0.83205 0 -0.5547
    outer loop
      vertex -99.225 -2.66786 81.1625
      vertex -90 -90 95
      vertex -99.225 -99.225 81.1625
    endloop
  endfacet
  facet normal -0.83205 0 -0.5547
    outer loop
      vertex 99.225 2.66786 81.1625
      vertex 90 90 95
      vertex 99.225 99.225 81.1625
    endloop
  endfacet
  facet normal -0.83205 -4.16157e-17 -0.5547
    outer loop
      vertex 93 0 90.5
      vertex 90 90 95
      vertex 99.225 2.66786 81.1625
    endloop
  endfacet
  facet normal -0.83205 0 -0.5547
    outer loop
      vertex 93 0 90.5
      vertex 90 -90 95
      vertex 90 90 95
    endloop
  endfacet
  facet normal -0.83205 4.16157e-17 -0.5547
    outer loop
      vertex 99.225 -2.66786 81.1625
      vertex 90 -90 95
      vertex 93 0 90.5
    endloop
  endfacet
  facet normal -0.83205 0 -0.5547
    outer loop
      vertex 90 -90 95
      vertex 99.225 -2.66786 81.1625
      vertex 99.225 -99.225 81.1625
    endloop
  endfacet
  facet normal -1 0 0
    outer loop
      vertex 90 -90 95
      vertex 90 90 100
      vertex 90 90 95
    endloop
  endfacet
  facet normal -1 -0 0
    outer loop
      vertex 90 90 100
      vertex 90 -90 95
      vertex 90 -90 100
    endloop
  endfacet
  facet normal 0 -0.83205 -0.5547
    outer loop
      vertex -90 90 95
      vertex 0 93 90.5
      vertex 90 90 95
    endloop
  endfacet
  facet normal -0 -0.83205 -0.5547
    outer loop
      vertex -2.66786 99.225 81.1625
      vertex -90 90 95
      vertex -99.225 99.225 81.1625
    endloop
  endfacet
  facet normal 4.16157e-17 -0.83205 -0.5547
    outer loop
      vertex -90 90 95
      vertex -2.66786 99.225 81.1625
      vertex 0 93 90.5
    endloop
  endfacet
  facet normal -4.16157e-17 -0.83205 -0.5547
    outer loop
      vertex 2.66786 99.225 81.1625
      vertex 90 90 95
      vertex 0 93 90.5
    endloop
  endfacet
  facet normal 0 -0.83205 -0.5547
    outer loop
      vertex 90 90 95
      vertex 2.66786 99.225 81.1625
      vertex 99.225 99.225 81.1625
    endloop
  endfacet
  facet normal 0 -1 0
    outer loop
      vertex -90 90 95
      vertex 90 90 100
      vertex -90 90 100
    endloop
  endfacet
  facet normal 0 -1 -0
    outer loop
      vertex 90 90 100
      vertex -90 90 95
      vertex 90 90 95
    endloop
  endfacet
  facet normal 0 1 -0
    outer loop
      vertex 90 -90 95
      vertex -90 -90 100
      vertex 90 -90 100
    endloop
  endfacet
  facet normal 0 1 0
    outer loop
      vertex -90 -90 100
      vertex 90 -90 95
      vertex -90 -90 95
    endloop
  endfacet
  facet normal 0 0.83205 -0.5547
    outer loop
      vertex 90 -90 95
      vertex 0 -93 90.5
      vertex -90 -90 95
    endloop
  endfacet
  facet normal 0 0.83205 -0.5547
    outer loop
      vertex 2.66786 -99.225 81.1625
      vertex 90 -90 95
      vertex 99.225 -99.225 81.1625
    endloop
  endfacet
  facet normal -4.16157e-17 0.83205 -0.5547
    outer loop
      vertex 90 -90 95
      vertex 2.66786 -99.225 81.1625
      vertex 0 -93 90.5
    endloop
  endfacet
  facet normal 4.16157e-17 0.83205 -0.5547
    outer loop
      vertex -2.66786 -99.225 81.1625
      vertex -90 -90 95
      vertex 0 -93 90.5
    endloop
  endfacet
  facet normal 0 0.83205 -0.5547
    outer loop
      vertex -90 -90 95
      vertex -2.66786 -99.225 81.1625
      vertex -99.225 -99.225 81.1625
    endloop
  endfacet
endsolid OpenSCAD_Model
