solid OpenSCAD_Model
  facet normal -1 0 0
    outer loop
      vertex -25 -25 -25
      vertex -25 25 25
      vertex -25 25 -25
    endloop
  endfacet
  facet normal -1 -0 0
    outer loop
      vertex -25 25 25
      vertex -25 -25 -25
      vertex -25 -25 25
    endloop
  endfacet
  facet normal 0 0 1
    outer loop
      vertex 25 25 25
      vertex 15 15 25
      vertex 25 -25 25
    endloop
  endfacet
  facet normal 0 0 1
    outer loop
      vertex 25 25 25
      vertex -15 15 25
      vertex 15 15 25
    endloop
  endfacet
  facet normal 0 0 1
    outer loop
      vertex -15 15 25
      vertex -25 25 25
      vertex -15 -15 25
    endloop
  endfacet
  facet normal -0 0 1
    outer loop
      vertex -25 25 25
      vertex -15 15 25
      vertex 25 25 25
    endloop
  endfacet
  facet normal -0 0 1
    outer loop
      vertex 15 -15 25
      vertex 25 -25 25
      vertex 15 15 25
    endloop
  endfacet
  facet normal -0 0 1
    outer loop
      vertex -15 -15 25
      vertex 25 -25 25
      vertex 15 -15 25
    endloop
  endfacet
  facet normal 0 0 1
    outer loop
      vertex -15 -15 25
      vertex -25 -25 25
      vertex 25 -25 25
    endloop
  endfacet
  facet normal 0 0 1
    outer loop
      vertex -25 -25 25
      vertex -15 -15 25
      vertex -25 25 25
    endloop
  endfacet
  facet normal 1 -0 0
    outer loop
      vertex 25 -25 25
      vertex 25 25 -25
      vertex 25 25 25
    endloop
  endfacet
  facet normal 1 0 0
    outer loop
      vertex 25 25 -25
      vertex 25 -25 25
      vertex 25 -25 -25
    endloop
  endfacet
  facet normal 0 1 -0
    outer loop
      vertex 25 25 -25
      vertex -25 25 25
      vertex 25 25 25
    endloop
  endfacet
  facet normal 0 1 0
    outer loop
      vertex -25 25 25
      vertex 25 25 -25
      vertex -25 25 -25
    endloop
  endfacet
  facet normal 0 0 -1
    outer loop
      vertex -25 -25 -25
      vertex 25 25 -25
      vertex 25 -25 -25
    endloop
  endfacet
  facet normal -0 0 -1
    outer loop
      vertex 25 25 -25
      vertex -25 -25 -25
      vertex -25 25 -25
    endloop
  endfacet
  facet normal 0 -1 0
    outer loop
      vertex -25 -25 -25
      vertex 25 -25 25
      vertex -25 -25 25
    endloop
  endfacet
  facet normal 0 -1 -0
    outer loop
      vertex 25 -25 25
      vertex -25 -25 -25
      vertex 25 -25 -25
    endloop
  endfacet
  facet normal 1 -0 0
    outer loop
      vertex -24.225 -24.225 -8.89286
      vertex -24.225 -2.66786 -23.99
      vertex -24.225 -2.66786 -8.89286
    endloop
  endfacet
  facet normal 1 0 0
    outer loop
      vertex -24.225 -2.66786 -23.99
      vertex -24.225 -24.225 -8.89286
      vertex -24.225 -24.225 -23.99
    endloop
  endfacet
  facet normal 1 -0 0
    outer loop
      vertex -24.225 2.66786 -8.89286
      vertex -24.225 24.225 -23.99
      vertex -24.225 24.225 -8.89286
    endloop
  endfacet
  facet normal 1 0 0
    outer loop
      vertex -24.225 24.225 -23.99
      vertex -24.225 2.66786 -8.89286
      vertex -24.225 2.66786 -23.99
    endloop
  endfacet
  facet normal 1 -0 0
    outer loop
      vertex -24.225 -24.225 6.1625
      vertex -24.225 -2.66786 2.66786
      vertex -24.225 -2.66786 6.1625
    endloop
  endfacet
  facet normal 1 0 0
    outer loop
      vertex -24.225 -2.66786 2.66786
      vertex -24.225 -24.225 6.1625
      vertex -24.225 -24.225 2.66786
    endloop
  endfacet
  facet normal 1 -0 0
    outer loop
      vertex -24.225 2.66786 6.1625
      vertex -24.225 24.225 2.66786
      vertex -24.225 24.225 6.1625
    endloop
  endfacet
  facet normal 1 0 0
    outer loop
      vertex -24.225 24.225 2.66786
      vertex -24.225 2.66786 6.1625
      vertex -24.225 2.66786 2.66786
    endloop
  endfacet
  facet normal -1 0 0
    outer loop
      vertex 24.225 2.66786 -23.99
      vertex 24.225 24.225 -8.89286
      vertex 24.225 24.225 -23.99
    endloop
  endfacet
  facet normal -1 -0 0
    outer loop
      vertex 24.225 24.225 -8.89286
      vertex 24.225 2.66786 -23.99
      vertex 24.225 2.66786 -8.89286
    endloop
  endfacet
  facet normal -1 0 0
    outer loop
      vertex 24.225 -24.225 -23.99
      vertex 24.225 -2.66786 -8.89286
      vertex 24.225 -2.66786 -23.99
    endloop
  endfacet
  facet normal -1 -0 0
    outer loop
      vertex 24.225 -2.66786 -8.89286
      vertex 24.225 -24.225 -23.99
      vertex 24.225 -24.225 -8.89286
    endloop
  endfacet
  facet normal -1 0 0
    outer loop
      vertex 24.225 -24.225 2.66786
      vertex 24.225 -2.66786 6.1625
      vertex 24.225 -2.66786 2.66786
    endloop
  endfacet
  facet normal -1 -0 0
    outer loop
      vertex 24.225 -2.66786 6.1625
      vertex 24.225 -24.225 2.66786
      vertex 24.225 -24.225 6.1625
    endloop
  endfacet
  facet normal -1 0 0
    outer loop
      vertex 24.225 2.66786 2.66786
      vertex 24.225 24.225 6.1625
      vertex 24.225 24.225 2.66786
    endloop
  endfacet
  facet normal -1 -0 0
    outer loop
      vertex 24.225 24.225 6.1625
      vertex 24.225 2.66786 2.66786
      vertex 24.225 2.66786 6.1625
    endloop
  endfacet
  facet normal -0 0 1
    outer loop
      vertex -23.99 -2.56714 -23.99
      vertex -2.56714 -23.99 -23.99
      vertex -2.56714 -2.56714 -23.99
    endloop
  endfacet
  facet normal 0 0 1
    outer loop
      vertex -24.225 -24.225 -23.99
      vertex -2.56714 -23.99 -23.99
      vertex -23.99 -2.56714 -23.99
    endloop
  endfacet
  facet normal 0 0 1
    outer loop
      vertex -24.225 -24.225 -23.99
      vertex -23.99 -2.56714 -23.99
      vertex -24.225 -2.66786 -23.99
    endloop
  endfacet
  facet normal 0 0 1
    outer loop
      vertex -2.56714 -23.99 -23.99
      vertex -24.225 -24.225 -23.99
      vertex -2.66786 -24.225 -23.99
    endloop
  endfacet
  facet normal 0 0 1
    outer loop
      vertex 24.225 24.225 -23.99
      vertex 23.99 2.56714 -23.99
      vertex 24.225 2.66786 -23.99
    endloop
  endfacet
  facet normal 0 0 1
    outer loop
      vertex 2.56714 23.99 -23.99
      vertex 24.225 24.225 -23.99
      vertex 2.66786 24.225 -23.99
    endloop
  endfacet
  facet normal 0 0 1
    outer loop
      vertex 24.225 24.225 -23.99
      vertex 2.56714 23.99 -23.99
      vertex 23.99 2.56714 -23.99
    endloop
  endfacet
  facet normal 0 0 1
    outer loop
      vertex 23.99 2.56714 -23.99
      vertex 2.56714 23.99 -23.99
      vertex 2.56714 2.56714 -23.99
    endloop
  endfacet
  facet normal -0 0 1
    outer loop
      vertex -24.225 24.225 -23.99
      vertex -2.56714 23.99 -23.99
      vertex -2.66786 24.225 -23.99
    endloop
  endfacet
  facet normal 0 0 1
    outer loop
      vertex -2.56714 23.99 -23.99
      vertex -23.99 2.56714 -23.99
      vertex -2.56714 2.56714 -23.99
    endloop
  endfacet
  facet normal 0 0 1
    outer loop
      vertex -2.56714 23.99 -23.99
      vertex -24.225 24.225 -23.99
      vertex -23.99 2.56714 -23.99
    endloop
  endfacet
  facet normal 0 0 1
    outer loop
      vertex -23.99 2.56714 -23.99
      vertex -24.225 24.225 -23.99
      vertex -24.225 2.66786 -23.99
    endloop
  endfacet
  facet normal 0 0 1
    outer loop
      vertex 23.99 -2.56714 -23.99
      vertex 24.225 -24.225 -23.99
      vertex 24.225 -2.66786 -23.99
    endloop
  endfacet
  facet normal -0 0 1
    outer loop
      vertex 2.56714 -23.99 -23.99
      vertex 24.225 -24.225 -23.99
      vertex 23.99 -2.56714 -23.99
    endloop
  endfacet
  facet normal 0 0 1
    outer loop
      vertex 2.56714 -23.99 -23.99
      vertex 23.99 -2.56714 -23.99
      vertex 2.56714 -2.56714 -23.99
    endloop
  endfacet
  facet normal 0 0 1
    outer loop
      vertex 24.225 -24.225 -23.99
      vertex 2.56714 -23.99 -23.99
      vertex 2.66786 -24.225 -23.99
    endloop
  endfacet
  facet normal 0 1 -0
    outer loop
      vertex -2.66786 -24.225 -23.99
      vertex -24.225 -24.225 -8.89286
      vertex -2.66786 -24.225 -8.89286
    endloop
  endfacet
  facet normal 0 1 0
    outer loop
      vertex -24.225 -24.225 -8.89286
      vertex -2.66786 -24.225 -23.99
      vertex -24.225 -24.225 -23.99
    endloop
  endfacet
  facet normal 0 1 -0
    outer loop
      vertex 24.225 -24.225 -23.99
      vertex 2.66786 -24.225 -8.89286
      vertex 24.225 -24.225 -8.89286
    endloop
  endfacet
  facet normal 0 1 0
    outer loop
      vertex 2.66786 -24.225 -8.89286
      vertex 24.225 -24.225 -23.99
      vertex 2.66786 -24.225 -23.99
    endloop
  endfacet
  facet normal 0 1 -0
    outer loop
      vertex -2.66786 -24.225 2.66786
      vertex -24.225 -24.225 6.1625
      vertex -2.66786 -24.225 6.1625
    endloop
  endfacet
  facet normal 0 1 0
    outer loop
      vertex -24.225 -24.225 6.1625
      vertex -2.66786 -24.225 2.66786
      vertex -24.225 -24.225 2.66786
    endloop
  endfacet
  facet normal 0 1 -0
    outer loop
      vertex 24.225 -24.225 2.66786
      vertex 2.66786 -24.225 6.1625
      vertex 24.225 -24.225 6.1625
    endloop
  endfacet
  facet normal 0 1 0
    outer loop
      vertex 2.66786 -24.225 6.1625
      vertex 24.225 -24.225 2.66786
      vertex 2.66786 -24.225 2.66786
    endloop
  endfacet
  facet normal 0 -1 0
    outer loop
      vertex 2.66786 24.225 -23.99
      vertex 24.225 24.225 -8.89286
      vertex 2.66786 24.225 -8.89286
    endloop
  endfacet
  facet normal 0 -1 -0
    outer loop
      vertex 24.225 24.225 -8.89286
      vertex 2.66786 24.225 -23.99
      vertex 24.225 24.225 -23.99
    endloop
  endfacet
  facet normal 0 -1 0
    outer loop
      vertex -24.225 24.225 -23.99
      vertex -2.66786 24.225 -8.89286
      vertex -24.225 24.225 -8.89286
    endloop
  endfacet
  facet normal 0 -1 -0
    outer loop
      vertex -2.66786 24.225 -8.89286
      vertex -24.225 24.225 -23.99
      vertex -2.66786 24.225 -23.99
    endloop
  endfacet
  facet normal 0 -1 0
    outer loop
      vertex -24.225 24.225 2.66786
      vertex -2.66786 24.225 6.1625
      vertex -24.225 24.225 6.1625
    endloop
  endfacet
  facet normal 0 -1 -0
    outer loop
      vertex -2.66786 24.225 6.1625
      vertex -24.225 24.225 2.66786
      vertex -2.66786 24.225 2.66786
    endloop
  endfacet
  facet normal 0 -1 0
    outer loop
      vertex 2.66786 24.225 2.66786
      vertex 24.225 24.225 6.1625
      vertex 2.66786 24.225 6.1625
    endloop
  endfacet
  facet normal 0 -1 -0
    outer loop
      vertex 24.225 24.225 6.1625
      vertex 2.66786 24.225 2.66786
      vertex 24.225 24.225 2.66786
    endloop
  endfacet
  facet normal 0 -0.919145 0.393919
    outer loop
      vertex -2.56714 -2.56714 -23.99
      vertex -18 0 -18
      vertex -23.99 -2.56714 -23.99
    endloop
  endfacet
  facet normal 0 -0.919145 0.393919
    outer loop
      vertex -18 0 -18
      vertex -2.56714 -2.56714 -23.99
      vertex 0 0 -18
    endloop
  endfacet
  facet normal 0 -0.919145 0.393919
    outer loop
      vertex 2.56714 -2.56714 -23.99
      vertex 18 0 -18
      vertex 0 0 -18
    endloop
  endfacet
  facet normal 0 -0.919145 0.393919
    outer loop
      vertex 18 0 -18
      vertex 2.56714 -2.56714 -23.99
      vertex 23.99 -2.56714 -23.99
    endloop
  endfacet
  facet normal 0 0.919145 0.393919
    outer loop
      vertex -2.56714 2.56714 -23.99
      vertex -18 0 -18
      vertex 0 0 -18
    endloop
  endfacet
  facet normal 0 0.919145 0.393919
    outer loop
      vertex -18 0 -18
      vertex -2.56714 2.56714 -23.99
      vertex -23.99 2.56714 -23.99
    endloop
  endfacet
  facet normal -0 0.919145 0.393919
    outer loop
      vertex 2.56714 2.56714 -23.99
      vertex 18 0 -18
      vertex 23.99 2.56714 -23.99
    endloop
  endfacet
  facet normal 0 0.919145 0.393919
    outer loop
      vertex 18 0 -18
      vertex 2.56714 2.56714 -23.99
      vertex 0 0 -18
    endloop
  endfacet
  facet normal 0.919145 -0 0.393919
    outer loop
      vertex 0 -18 -18
      vertex 2.56714 -2.56714 -23.99
      vertex 0 0 -18
    endloop
  endfacet
  facet normal 0.919145 0 0.393919
    outer loop
      vertex 2.56714 -2.56714 -23.99
      vertex 0 -18 -18
      vertex 2.56714 -23.99 -23.99
    endloop
  endfacet
  facet normal 0.919145 0 0.393919
    outer loop
      vertex 0 18 -18
      vertex 2.56714 2.56714 -23.99
      vertex 2.56714 23.99 -23.99
    endloop
  endfacet
  facet normal 0.919145 0 0.393919
    outer loop
      vertex 2.56714 2.56714 -23.99
      vertex 0 18 -18
      vertex 0 0 -18
    endloop
  endfacet
  facet normal -0.919145 0 0.393919
    outer loop
      vertex -2.56714 -2.56714 -23.99
      vertex 0 -18 -18
      vertex 0 0 -18
    endloop
  endfacet
  facet normal -0.919145 0 0.393919
    outer loop
      vertex 0 -18 -18
      vertex -2.56714 -2.56714 -23.99
      vertex -2.56714 -23.99 -23.99
    endloop
  endfacet
  facet normal -0.919145 0 0.393919
    outer loop
      vertex -2.56714 2.56714 -23.99
      vertex 0 18 -18
      vertex -2.56714 23.99 -23.99
    endloop
  endfacet
  facet normal -0.919145 0 0.393919
    outer loop
      vertex 0 18 -18
      vertex -2.56714 2.56714 -23.99
      vertex 0 0 -18
    endloop
  endfacet
  facet normal 0.39392 -0.919145 0
    outer loop
      vertex -24.225 -2.66786 -8.89286
      vertex -18 0 -18
      vertex -18 0 0
    endloop
  endfacet
  facet normal 0.39392 -0.919145 0
    outer loop
      vertex -24.225 -2.66786 -23.99
      vertex -18 0 -18
      vertex -24.225 -2.66786 -8.89286
    endloop
  endfacet
  facet normal 0.393938 -0.919137 -2.27882e-05
    outer loop
      vertex -18 0 -18
      vertex -24.225 -2.66786 -23.99
      vertex -23.99 -2.56714 -23.99
    endloop
  endfacet
  facet normal 0.39392 -0.919145 0
    outer loop
      vertex -18 0 0
      vertex -24.225 -2.66786 6.1625
      vertex -24.225 -2.66786 2.66786
    endloop
  endfacet
  facet normal 0.39392 -0.919145 0
    outer loop
      vertex -24.225 -2.66786 6.1625
      vertex -18 0 0
      vertex -18 0 15.5
    endloop
  endfacet
  facet normal 0.39392 0.919145 -0
    outer loop
      vertex -18 0 -18
      vertex -24.225 2.66786 -8.89286
      vertex -18 0 0
    endloop
  endfacet
  facet normal 0.393938 0.919137 -2.27882e-05
    outer loop
      vertex -24.225 2.66786 -23.99
      vertex -18 0 -18
      vertex -23.99 2.56714 -23.99
    endloop
  endfacet
  facet normal 0.39392 0.919145 0
    outer loop
      vertex -18 0 -18
      vertex -24.225 2.66786 -23.99
      vertex -24.225 2.66786 -8.89286
    endloop
  endfacet
  facet normal 0.39392 0.919145 -0
    outer loop
      vertex -18 0 0
      vertex -24.225 2.66786 6.1625
      vertex -18 0 15.5
    endloop
  endfacet
  facet normal 0.39392 0.919145 0
    outer loop
      vertex -24.225 2.66786 6.1625
      vertex -18 0 0
      vertex -24.225 2.66786 2.66786
    endloop
  endfacet
  facet normal -0.39392 0.919145 0
    outer loop
      vertex 24.225 2.66786 -8.89286
      vertex 18 0 -18
      vertex 18 0 0
    endloop
  endfacet
  facet normal -0.39392 0.919145 0
    outer loop
      vertex 24.225 2.66786 -23.99
      vertex 18 0 -18
      vertex 24.225 2.66786 -8.89286
    endloop
  endfacet
  facet normal -0.393938 0.919137 -2.27882e-05
    outer loop
      vertex 18 0 -18
      vertex 24.225 2.66786 -23.99
      vertex 23.99 2.56714 -23.99
    endloop
  endfacet
  facet normal -0.39392 0.919145 0
    outer loop
      vertex 18 0 0
      vertex 24.225 2.66786 6.1625
      vertex 24.225 2.66786 2.66786
    endloop
  endfacet
  facet normal -0.39392 0.919145 0
    outer loop
      vertex 24.225 2.66786 6.1625
      vertex 18 0 0
      vertex 18 0 15.5
    endloop
  endfacet
  facet normal -0.39392 -0.919145 0
    outer loop
      vertex 18 0 -18
      vertex 24.225 -2.66786 -8.89286
      vertex 18 0 0
    endloop
  endfacet
  facet normal -0.393938 -0.919137 -2.27882e-05
    outer loop
      vertex 24.225 -2.66786 -23.99
      vertex 18 0 -18
      vertex 23.99 -2.56714 -23.99
    endloop
  endfacet
  facet normal -0.39392 -0.919145 0
    outer loop
      vertex 18 0 -18
      vertex 24.225 -2.66786 -23.99
      vertex 24.225 -2.66786 -8.89286
    endloop
  endfacet
  facet normal -0.39392 -0.919145 0
    outer loop
      vertex 18 0 0
      vertex 24.225 -2.66786 6.1625
      vertex 18 0 15.5
    endloop
  endfacet
  facet normal -0.39392 -0.919145 -0
    outer loop
      vertex 24.225 -2.66786 6.1625
      vertex 18 0 0
      vertex 24.225 -2.66786 2.66786
    endloop
  endfacet
  facet normal -0.919137 -0.393938 -2.27882e-05
    outer loop
      vertex 0 18 -18
      vertex -2.66786 24.225 -23.99
      vertex -2.56714 23.99 -23.99
    endloop
  endfacet
  facet normal -0.919145 -0.39392 0
    outer loop
      vertex -2.66786 24.225 -23.99
      vertex 0 18 -18
      vertex -2.66786 24.225 -8.89286
    endloop
  endfacet
  facet normal -0.919145 -0.39392 0
    outer loop
      vertex -2.66786 24.225 -8.89286
      vertex 0 18 -18
      vertex 0 18 0
    endloop
  endfacet
  facet normal -0.919145 -0.39392 0
    outer loop
      vertex 0 18 0
      vertex -2.66786 24.225 6.1625
      vertex -2.66786 24.225 2.66786
    endloop
  endfacet
  facet normal -0.919145 -0.39392 0
    outer loop
      vertex -2.66786 24.225 6.1625
      vertex 0 18 0
      vertex 0 18 15.5
    endloop
  endfacet
  facet normal 0.919145 -0.39392 0
    outer loop
      vertex 0 18 -18
      vertex 2.66786 24.225 -23.99
      vertex 2.66786 24.225 -8.89286
    endloop
  endfacet
  facet normal 0.919145 -0.39392 0
    outer loop
      vertex 0 18 -18
      vertex 2.66786 24.225 -8.89286
      vertex 0 18 0
    endloop
  endfacet
  facet normal 0.919137 -0.393938 -2.27882e-05
    outer loop
      vertex 2.66786 24.225 -23.99
      vertex 0 18 -18
      vertex 2.56714 23.99 -23.99
    endloop
  endfacet
  facet normal 0.919145 -0.39392 0
    outer loop
      vertex 0 18 0
      vertex 2.66786 24.225 6.1625
      vertex 0 18 15.5
    endloop
  endfacet
  facet normal 0.919145 -0.39392 0
    outer loop
      vertex 2.66786 24.225 6.1625
      vertex 0 18 0
      vertex 2.66786 24.225 2.66786
    endloop
  endfacet
  facet normal 0.919145 0.39392 0
    outer loop
      vertex 2.66786 -24.225 -8.89286
      vertex 0 -18 -18
      vertex 0 -18 0
    endloop
  endfacet
  facet normal 0.919145 0.39392 -0
    outer loop
      vertex 2.66786 -24.225 -23.99
      vertex 0 -18 -18
      vertex 2.66786 -24.225 -8.89286
    endloop
  endfacet
  facet normal 0.919137 0.393938 -2.27882e-05
    outer loop
      vertex 0 -18 -18
      vertex 2.66786 -24.225 -23.99
      vertex 2.56714 -23.99 -23.99
    endloop
  endfacet
  facet normal 0.919145 0.39392 0
    outer loop
      vertex 2.66786 -24.225 6.1625
      vertex 0 -18 0
      vertex 0 -18 15.5
    endloop
  endfacet
  facet normal 0.919145 0.39392 0
    outer loop
      vertex 0 -18 0
      vertex 2.66786 -24.225 6.1625
      vertex 2.66786 -24.225 2.66786
    endloop
  endfacet
  facet normal -0.919137 0.393938 -2.27882e-05
    outer loop
      vertex -2.66786 -24.225 -23.99
      vertex 0 -18 -18
      vertex -2.56714 -23.99 -23.99
    endloop
  endfacet
  facet normal -0.919145 0.39392 0
    outer loop
      vertex 0 -18 -18
      vertex -2.66786 -24.225 -23.99
      vertex -2.66786 -24.225 -8.89286
    endloop
  endfacet
  facet normal -0.919145 0.39392 0
    outer loop
      vertex 0 -18 -18
      vertex -2.66786 -24.225 -8.89286
      vertex 0 -18 0
    endloop
  endfacet
  facet normal -0.919145 0.39392 0
    outer loop
      vertex -2.66786 -24.225 6.1625
      vertex 0 -18 0
      vertex -2.66786 -24.225 2.66786
    endloop
  endfacet
  facet normal -0.919145 0.39392 0
    outer loop
      vertex 0 -18 0
      vertex -2.66786 -24.225 6.1625
      vertex 0 -18 15.5
    endloop
  endfacet
  facet normal 0.819232 0 -0.573462
    outer loop
      vertex -18 -18 0
      vertex -24.225 -2.66786 -8.89286
      vertex -18 0 0
    endloop
  endfacet
  facet normal 0.819232 0 -0.573462
    outer loop
      vertex -24.225 -2.66786 -8.89286
      vertex -18 -18 0
      vertex -24.225 -24.225 -8.89286
    endloop
  endfacet
  facet normal 0.819232 0 -0.573462
    outer loop
      vertex -18 18 0
      vertex -24.225 2.66786 -8.89286
      vertex -24.225 24.225 -8.89286
    endloop
  endfacet
  facet normal 0.819232 0 -0.573462
    outer loop
      vertex -24.225 2.66786 -8.89286
      vertex -18 18 0
      vertex -18 0 0
    endloop
  endfacet
  facet normal 0.39392 0 0.919145
    outer loop
      vertex -24.225 -2.66786 2.66786
      vertex -18 -18 0
      vertex -18 0 0
    endloop
  endfacet
  facet normal 0.39392 0 0.919145
    outer loop
      vertex -18 -18 0
      vertex -24.225 -2.66786 2.66786
      vertex -24.225 -24.225 2.66786
    endloop
  endfacet
  facet normal 0.39392 -0 0.919145
    outer loop
      vertex -24.225 2.66786 2.66786
      vertex -18 18 0
      vertex -24.225 24.225 2.66786
    endloop
  endfacet
  facet normal 0.39392 0 0.919145
    outer loop
      vertex -18 18 0
      vertex -24.225 2.66786 2.66786
      vertex -18 0 0
    endloop
  endfacet
  facet normal -0.819232 0 -0.573462
    outer loop
      vertex 24.225 2.66786 -8.89286
      vertex 18 18 0
      vertex 24.225 24.225 -8.89286
    endloop
  endfacet
  facet normal -0.819232 -0 -0.573462
    outer loop
      vertex 18 18 0
      vertex 24.225 2.66786 -8.89286
      vertex 18 0 0
    endloop
  endfacet
  facet normal -0.819232 0 -0.573462
    outer loop
      vertex 24.225 -2.66786 -8.89286
      vertex 18 -18 0
      vertex 18 0 0
    endloop
  endfacet
  facet normal -0.819232 0 -0.573462
    outer loop
      vertex 18 -18 0
      vertex 24.225 -2.66786 -8.89286
      vertex 24.225 -24.225 -8.89286
    endloop
  endfacet
  facet normal -0.39392 0 0.919145
    outer loop
      vertex 18 18 0
      vertex 24.225 2.66786 2.66786
      vertex 24.225 24.225 2.66786
    endloop
  endfacet
  facet normal -0.39392 0 0.919145
    outer loop
      vertex 24.225 2.66786 2.66786
      vertex 18 18 0
      vertex 18 0 0
    endloop
  endfacet
  facet normal -0.39392 0 0.919145
    outer loop
      vertex 18 -18 0
      vertex 24.225 -2.66786 2.66786
      vertex 18 0 0
    endloop
  endfacet
  facet normal -0.39392 0 0.919145
    outer loop
      vertex 24.225 -2.66786 2.66786
      vertex 18 -18 0
      vertex 24.225 -24.225 2.66786
    endloop
  endfacet
  facet normal 0 -0.819232 -0.573462
    outer loop
      vertex 2.66786 24.225 -8.89286
      vertex 18 18 0
      vertex 0 18 0
    endloop
  endfacet
  facet normal 0 -0.819232 -0.573462
    outer loop
      vertex 18 18 0
      vertex 2.66786 24.225 -8.89286
      vertex 24.225 24.225 -8.89286
    endloop
  endfacet
  facet normal -0 -0.819232 -0.573462
    outer loop
      vertex -2.66786 24.225 -8.89286
      vertex -18 18 0
      vertex -24.225 24.225 -8.89286
    endloop
  endfacet
  facet normal 0 -0.819232 -0.573462
    outer loop
      vertex -18 18 0
      vertex -2.66786 24.225 -8.89286
      vertex 0 18 0
    endloop
  endfacet
  facet normal 0 -0.39392 0.919145
    outer loop
      vertex 2.66786 24.225 2.66786
      vertex 18 18 0
      vertex 24.225 24.225 2.66786
    endloop
  endfacet
  facet normal 0 -0.39392 0.919145
    outer loop
      vertex 18 18 0
      vertex 2.66786 24.225 2.66786
      vertex 0 18 0
    endloop
  endfacet
  facet normal 0 -0.39392 0.919145
    outer loop
      vertex -2.66786 24.225 2.66786
      vertex -18 18 0
      vertex 0 18 0
    endloop
  endfacet
  facet normal 0 -0.39392 0.919145
    outer loop
      vertex -18 18 0
      vertex -2.66786 24.225 2.66786
      vertex -24.225 24.225 2.66786
    endloop
  endfacet
  facet normal 0 0.819232 -0.573462
    outer loop
      vertex 2.66786 -24.225 -8.89286
      vertex 18 -18 0
      vertex 24.225 -24.225 -8.89286
    endloop
  endfacet
  facet normal 0 0.819232 -0.573462
    outer loop
      vertex 18 -18 0
      vertex 2.66786 -24.225 -8.89286
      vertex 0 -18 0
    endloop
  endfacet
  facet normal 0 0.819232 -0.573462
    outer loop
      vertex -2.66786 -24.225 -8.89286
      vertex -18 -18 0
      vertex 0 -18 0
    endloop
  endfacet
  facet normal 0 0.819232 -0.573462
    outer loop
      vertex -18 -18 0
      vertex -2.66786 -24.225 -8.89286
      vertex -24.225 -24.225 -8.89286
    endloop
  endfacet
  facet normal 0 0.39392 0.919145
    outer loop
      vertex 18 -18 0
      vertex 2.66786 -24.225 2.66786
      vertex 24.225 -24.225 2.66786
    endloop
  endfacet
  facet normal 0 0.39392 0.919145
    outer loop
      vertex 2.66786 -24.225 2.66786
      vertex 18 -18 0
      vertex 0 -18 0
    endloop
  endfacet
  facet normal -0 0.39392 0.919145
    outer loop
      vertex -18 -18 0
      vertex -2.66786 -24.225 2.66786
      vertex 0 -18 0
    endloop
  endfacet
  facet normal 0 0.39392 0.919145
    outer loop
      vertex -2.66786 -24.225 2.66786
      vertex -18 -18 0
      vertex -24.225 -24.225 2.66786
    endloop
  endfacet
  facet normal 1 -0 0
    outer loop
      vertex -15 -15 25
      vertex -15 15 20
      vertex -15 15 25
    endloop
  endfacet
  facet normal 1 0 0
    outer loop
      vertex -15 15 20
      vertex -15 -15 25
      vertex -15 -15 20
    endloop
  endfacet
  facet normal 0.83205 0 -0.5547
    outer loop
      vertex -15 15 20
      vertex -24.225 2.66786 6.1625
      vertex -24.225 24.225 6.1625
    endloop
  endfacet
  facet normal 0.83205 0 -0.5547
    outer loop
      vertex -15 15 20
      vertex -18 0 15.5
      vertex -24.225 2.66786 6.1625
    endloop
  endfacet
  facet normal 0.83205 0 -0.5547
    outer loop
      vertex -15 -15 20
      vertex -18 0 15.5
      vertex -15 15 20
    endloop
  endfacet
  facet normal 0.83205 0 -0.5547
    outer loop
      vertex -15 -15 20
      vertex -24.225 -2.66786 6.1625
      vertex -18 0 15.5
    endloop
  endfacet
  facet normal 0.83205 0 -0.5547
    outer loop
      vertex -24.225 -2.66786 6.1625
      vertex -15 -15 20
      vertex -24.225 -24.225 6.1625
    endloop
  endfacet
  facet normal -0.83205 0 -0.5547
    outer loop
      vertex 24.225 2.66786 6.1625
      vertex 15 15 20
      vertex 24.225 24.225 6.1625
    endloop
  endfacet
  facet normal -0.83205 1.94389e-17 -0.5547
    outer loop
      vertex 18 0 15.5
      vertex 15 15 20
      vertex 24.225 2.66786 6.1625
    endloop
  endfacet
  facet normal -0.83205 0 -0.5547
    outer loop
      vertex 18 0 15.5
      vertex 15 -15 20
      vertex 15 15 20
    endloop
  endfacet
  facet normal -0.83205 0 -0.5547
    outer loop
      vertex 24.225 -2.66786 6.1625
      vertex 15 -15 20
      vertex 18 0 15.5
    endloop
  endfacet
  facet normal -0.83205 0 -0.5547
    outer loop
      vertex 15 -15 20
      vertex 24.225 -2.66786 6.1625
      vertex 24.225 -24.225 6.1625
    endloop
  endfacet
  facet normal -1 0 0
    outer loop
      vertex 15 -15 20
      vertex 15 15 25
      vertex 15 15 20
    endloop
  endfacet
  facet normal -1 -0 0
    outer loop
      vertex 15 15 25
      vertex 15 -15 20
      vertex 15 -15 25
    endloop
  endfacet
  facet normal 0 -0.83205 -0.5547
    outer loop
      vertex -15 15 20
      vertex 0 18 15.5
      vertex 15 15 20
    endloop
  endfacet
  facet normal -0 -0.83205 -0.5547
    outer loop
      vertex -2.66786 24.225 6.1625
      vertex -15 15 20
      vertex -24.225 24.225 6.1625
    endloop
  endfacet
  facet normal 0 -0.83205 -0.5547
    outer loop
      vertex -15 15 20
      vertex -2.66786 24.225 6.1625
      vertex 0 18 15.5
    endloop
  endfacet
  facet normal 0 -0.83205 -0.5547
    outer loop
      vertex 2.66786 24.225 6.1625
      vertex 15 15 20
      vertex 0 18 15.5
    endloop
  endfacet
  facet normal 0 -0.83205 -0.5547
    outer loop
      vertex 15 15 20
      vertex 2.66786 24.225 6.1625
      vertex 24.225 24.225 6.1625
    endloop
  endfacet
  facet normal 0 -1 0
    outer loop
      vertex -15 15 20
      vertex 15 15 25
      vertex -15 15 25
    endloop
  endfacet
  facet normal 0 -1 -0
    outer loop
      vertex 15 15 25
      vertex -15 15 20
      vertex 15 15 20
    endloop
  endfacet
  facet normal 0 1 -0
    outer loop
      vertex 15 -15 20
      vertex -15 -15 25
      vertex 15 -15 25
    endloop
  endfacet
  facet normal 0 1 0
    outer loop
      vertex -15 -15 25
      vertex 15 -15 20
      vertex -15 -15 20
    endloop
  endfacet
  facet normal 0 0.83205 -0.5547
    outer loop
      vertex 15 -15 20
      vertex 0 -18 15.5
      vertex -15 -15 20
    endloop
  endfacet
  facet normal 0 0.83205 -0.5547
    outer loop
      vertex 2.66786 -24.225 6.1625
      vertex 15 -15 20
      vertex 24.225 -24.225 6.1625
    endloop
  endfacet
  facet normal 0 0.83205 -0.5547
    outer loop
      vertex 15 -15 20
      vertex 2.66786 -24.225 6.1625
      vertex 0 -18 15.5
    endloop
  endfacet
  facet normal 0 0.83205 -0.5547
    outer loop
      vertex -2.66786 -24.225 6.1625
      vertex -15 -15 20
      vertex 0 -18 15.5
    endloop
  endfacet
  facet normal 0 0.83205 -0.5547
    outer loop
      vertex -15 -15 20
      vertex -2.66786 -24.225 6.1625
      vertex -24.225 -24.225 6.1625
    endloop
  endfacet
endsolid OpenSCAD_Model
