solid OpenSCAD_Model
  facet normal -1 0 0
    outer loop
      vertex -100 -100 -100
      vertex -100 100 100
      vertex -100 100 -100
    endloop
  endfacet
  facet normal -1 -0 0
    outer loop
      vertex -100 100 100
      vertex -100 -100 -100
      vertex -100 -100 100
    endloop
  endfacet
  facet normal 0 0 1
    outer loop
      vertex 100 100 100
      vertex 90 90 100
      vertex 100 -100 100
    endloop
  endfacet
  facet normal 0 0 1
    outer loop
      vertex 100 100 100
      vertex -90 90 100
      vertex 90 90 100
    endloop
  endfacet
  facet normal 0 0 1
    outer loop
      vertex -90 90 100
      vertex -100 100 100
      vertex -90 -90 100
    endloop
  endfacet
  facet normal -0 0 1
    outer loop
      vertex -100 100 100
      vertex -90 90 100
      vertex 100 100 100
    endloop
  endfacet
  facet normal -0 0 1
    outer loop
      vertex 90 -90 100
      vertex 100 -100 100
      vertex 90 90 100
    endloop
  endfacet
  facet normal -0 0 1
    outer loop
      vertex -90 -90 100
      vertex 100 -100 100
      vertex 90 -90 100
    endloop
  endfacet
  facet normal 0 0 1
    outer loop
      vertex -90 -90 100
      vertex -100 -100 100
      vertex 100 -100 100
    endloop
  endfacet
  facet normal 0 0 1
    outer loop
      vertex -100 -100 100
      vertex -90 -90 100
      vertex -100 100 100
    endloop
  endfacet
  facet normal 1 -0 0
    outer loop
      vertex 100 -100 100
      vertex 100 100 -100
      vertex 100 100 100
    endloop
  endfacet
  facet normal 1 0 0
    outer loop
      vertex 100 100 -100
      vertex 100 -100 100
      vertex 100 -100 -100
    endloop
  endfacet
  facet normal 0 1 -0
    outer loop
      vertex 100 100 -100
      vertex -100 100 100
      vertex 100 100 100
    endloop
  endfacet
  facet normal 0 1 0
    outer loop
      vertex -100 100 100
      vertex 100 100 -100
      vertex -100 100 -100
    endloop
  endfacet
  facet normal 0 0 -1
    outer loop
      vertex -100 -100 -100
      vertex 100 100 -100
      vertex 100 -100 -100
    endloop
  endfacet
  facet normal -0 0 -1
    outer loop
      vertex 100 100 -100
      vertex -100 -100 -100
      vertex -100 100 -100
    endloop
  endfacet
  facet normal 0 -1 0
    outer loop
      vertex -100 -100 -100
      vertex 100 -100 100
      vertex -100 -100 100
    endloop
  endfacet
  facet normal 0 -1 -0
    outer loop
      vertex 100 -100 100
      vertex -100 -100 -100
      vertex 100 -100 -100
    endloop
  endfacet
  facet normal 1 -0 0
    outer loop
      vertex -99.225 -99.225 -13.8375
      vertex -99.225 -0.375 -98.99
      vertex -99.225 -0.375 -13.8375
    endloop
  endfacet
  facet normal 1 0 0
    outer loop
      vertex -99.225 -0.375 -98.99
      vertex -99.225 -99.225 -13.8375
      vertex -99.225 -99.225 -98.99
    endloop
  endfacet
  facet normal 1 -0 0
    outer loop
      vertex -99.225 0.375 -13.8375
      vertex -99.225 99.225 -98.99
      vertex -99.225 99.225 -13.8375
    endloop
  endfacet
  facet normal 1 0 0
    outer loop
      vertex -99.225 99.225 -98.99
      vertex -99.225 0.375 -13.8375
      vertex -99.225 0.375 -98.99
    endloop
  endfacet
  facet normal 1 -0 0
    outer loop
      vertex -99.225 0.375 81.1625
      vertex -99.225 99.225 4.6125
      vertex -99.225 99.225 81.1625
    endloop
  endfacet
  facet normal 1 0 0
    outer loop
      vertex -99.225 99.225 4.6125
      vertex -99.225 0.375 81.1625
      vertex -99.225 0.375 4.6125
    endloop
  endfacet
  facet normal 1 -0 0
    outer loop
      vertex -99.225 -99.225 81.1625
      vertex -99.225 -0.375 4.6125
      vertex -99.225 -0.375 81.1625
    endloop
  endfacet
  facet normal 1 0 0
    outer loop
      vertex -99.225 -0.375 4.6125
      vertex -99.225 -99.225 81.1625
      vertex -99.225 -99.225 4.6125
    endloop
  endfacet
  facet normal -1 0 0
    outer loop
      vertex 99.225 0.375 -98.99
      vertex 99.225 99.225 -13.8375
      vertex 99.225 99.225 -98.99
    endloop
  endfacet
  facet normal -1 -0 0
    outer loop
      vertex 99.225 99.225 -13.8375
      vertex 99.225 0.375 -98.99
      vertex 99.225 0.375 -13.8375
    endloop
  endfacet
  facet normal -1 0 0
    outer loop
      vertex 99.225 -99.225 -98.99
      vertex 99.225 -0.375 -13.8375
      vertex 99.225 -0.375 -98.99
    endloop
  endfacet
  facet normal -1 -0 0
    outer loop
      vertex 99.225 -0.375 -13.8375
      vertex 99.225 -99.225 -98.99
      vertex 99.225 -99.225 -13.8375
    endloop
  endfacet
  facet normal -1 0 0
    outer loop
      vertex 99.225 0.375 4.6125
      vertex 99.225 99.225 81.1625
      vertex 99.225 99.225 4.6125
    endloop
  endfacet
  facet normal -1 -0 0
    outer loop
      vertex 99.225 99.225 81.1625
      vertex 99.225 0.375 4.6125
      vertex 99.225 0.375 81.1625
    endloop
  endfacet
  facet normal -1 0 0
    outer loop
      vertex 99.225 -99.225 4.6125
      vertex 99.225 -0.375 81.1625
      vertex 99.225 -0.375 4.6125
    endloop
  endfacet
  facet normal -1 -0 0
    outer loop
      vertex 99.225 -0.375 81.1625
      vertex 99.225 -99.225 4.6125
      vertex 99.225 -99.225 81.1625
    endloop
  endfacet
  facet normal 0 0 1
    outer loop
      vertex 99.225 99.225 -98.99
      vertex 90 0.375 -98.99
      vertex 99.225 0.375 -98.99
    endloop
  endfacet
  facet normal 0 0 1
    outer loop
      vertex 99.225 99.225 -98.99
      vertex 0.375 90 -98.99
      vertex 90 0.375 -98.99
    endloop
  endfacet
  facet normal 0 0 1
    outer loop
      vertex 0.375 90 -98.99
      vertex 99.225 99.225 -98.99
      vertex 0.375 99.225 -98.99
    endloop
  endfacet
  facet normal -0 0 1
    outer loop
      vertex 90 -0.375 -98.99
      vertex 99.225 -99.225 -98.99
      vertex 99.225 -0.375 -98.99
    endloop
  endfacet
  facet normal 0 0 1
    outer loop
      vertex 90 0.375 -98.99
      vertex 0.375 90 -98.99
      vertex 90 -0.375 -98.99
    endloop
  endfacet
  facet normal 0 0 1
    outer loop
      vertex 0.375 -90 -98.99
      vertex 90 -0.375 -98.99
      vertex 0.375 90 -98.99
    endloop
  endfacet
  facet normal 0 0 1
    outer loop
      vertex 90 -0.375 -98.99
      vertex 0.375 -90 -98.99
      vertex 99.225 -99.225 -98.99
    endloop
  endfacet
  facet normal 0 0 1
    outer loop
      vertex 99.225 -99.225 -98.99
      vertex 0.375 -90 -98.99
      vertex 0.375 -99.225 -98.99
    endloop
  endfacet
  facet normal -0 0 1
    outer loop
      vertex -99.225 99.225 -98.99
      vertex -0.375 90 -98.99
      vertex -0.375 99.225 -98.99
    endloop
  endfacet
  facet normal 0 0 1
    outer loop
      vertex -0.375 90 -98.99
      vertex -90 0.375 -98.99
      vertex -0.375 -90 -98.99
    endloop
  endfacet
  facet normal -0 0 1
    outer loop
      vertex -90 -0.375 -98.99
      vertex -0.375 -90 -98.99
      vertex -90 0.375 -98.99
    endloop
  endfacet
  facet normal 0 0 1
    outer loop
      vertex -0.375 90 -98.99
      vertex -99.225 99.225 -98.99
      vertex -90 0.375 -98.99
    endloop
  endfacet
  facet normal 0 0 1
    outer loop
      vertex -90 0.375 -98.99
      vertex -99.225 99.225 -98.99
      vertex -99.225 0.375 -98.99
    endloop
  endfacet
  facet normal -0 0 1
    outer loop
      vertex -0.375 90 -98.99
      vertex 0.375 -90 -98.99
      vertex 0.375 90 -98.99
    endloop
  endfacet
  facet normal 0 0 1
    outer loop
      vertex 0.375 -90 -98.99
      vertex -0.375 90 -98.99
      vertex -0.375 -90 -98.99
    endloop
  endfacet
  facet normal 0 0 1
    outer loop
      vertex -99.225 -99.225 -98.99
      vertex -0.375 -90 -98.99
      vertex -90 -0.375 -98.99
    endloop
  endfacet
  facet normal 0 0 1
    outer loop
      vertex -99.225 -99.225 -98.99
      vertex -90 -0.375 -98.99
      vertex -99.225 -0.375 -98.99
    endloop
  endfacet
  facet normal 0 0 1
    outer loop
      vertex -0.375 -90 -98.99
      vertex -99.225 -99.225 -98.99
      vertex -0.375 -99.225 -98.99
    endloop
  endfacet
  facet normal 0 1 -0
    outer loop
      vertex -0.375 -99.225 -98.99
      vertex -99.225 -99.225 -13.8375
      vertex -0.375 -99.225 -13.8375
    endloop
  endfacet
  facet normal 0 1 0
    outer loop
      vertex -99.225 -99.225 -13.8375
      vertex -0.375 -99.225 -98.99
      vertex -99.225 -99.225 -98.99
    endloop
  endfacet
  facet normal 0 1 -0
    outer loop
      vertex 99.225 -99.225 -98.99
      vertex 0.375 -99.225 -13.8375
      vertex 99.225 -99.225 -13.8375
    endloop
  endfacet
  facet normal 0 1 0
    outer loop
      vertex 0.375 -99.225 -13.8375
      vertex 99.225 -99.225 -98.99
      vertex 0.375 -99.225 -98.99
    endloop
  endfacet
  facet normal 0 1 -0
    outer loop
      vertex -0.375 -99.225 4.6125
      vertex -99.225 -99.225 81.1625
      vertex -0.375 -99.225 81.1625
    endloop
  endfacet
  facet normal 0 1 0
    outer loop
      vertex -99.225 -99.225 81.1625
      vertex -0.375 -99.225 4.6125
      vertex -99.225 -99.225 4.6125
    endloop
  endfacet
  facet normal 0 1 -0
    outer loop
      vertex 99.225 -99.225 4.6125
      vertex 0.375 -99.225 81.1625
      vertex 99.225 -99.225 81.1625
    endloop
  endfacet
  facet normal 0 1 0
    outer loop
      vertex 0.375 -99.225 81.1625
      vertex 99.225 -99.225 4.6125
      vertex 0.375 -99.225 4.6125
    endloop
  endfacet
  facet normal 0 -1 0
    outer loop
      vertex 0.375 99.225 -98.99
      vertex 99.225 99.225 -13.8375
      vertex 0.375 99.225 -13.8375
    endloop
  endfacet
  facet normal 0 -1 -0
    outer loop
      vertex 99.225 99.225 -13.8375
      vertex 0.375 99.225 -98.99
      vertex 99.225 99.225 -98.99
    endloop
  endfacet
  facet normal 0 -1 0
    outer loop
      vertex -99.225 99.225 -98.99
      vertex -0.375 99.225 -13.8375
      vertex -99.225 99.225 -13.8375
    endloop
  endfacet
  facet normal 0 -1 -0
    outer loop
      vertex -0.375 99.225 -13.8375
      vertex -99.225 99.225 -98.99
      vertex -0.375 99.225 -98.99
    endloop
  endfacet
  facet normal 0 -1 0
    outer loop
      vertex -99.225 99.225 4.6125
      vertex -0.375 99.225 81.1625
      vertex -99.225 99.225 81.1625
    endloop
  endfacet
  facet normal 0 -1 -0
    outer loop
      vertex -0.375 99.225 81.1625
      vertex -99.225 99.225 4.6125
      vertex -0.375 99.225 4.6125
    endloop
  endfacet
  facet normal 0 -1 0
    outer loop
      vertex 0.375 99.225 4.6125
      vertex 99.225 99.225 81.1625
      vertex 0.375 99.225 81.1625
    endloop
  endfacet
  facet normal 0 -1 -0
    outer loop
      vertex 99.225 99.225 81.1625
      vertex 0.375 99.225 4.6125
      vertex 99.225 99.225 4.6125
    endloop
  endfacet
  facet normal -1 0 0
    outer loop
      vertex 90 -0.375 0
      vertex 90 0.375 0
      vertex 90 0.375 -98.99
    endloop
  endfacet
  facet normal -1 0 0
    outer loop
      vertex 90 -0.375 0
      vertex 90 0.375 -98.99
      vertex 90 -0.375 -98.99
    endloop
  endfacet
  facet normal -1 0 0
    outer loop
      vertex 90 0.375 95
      vertex 90 90 100
      vertex 90 90 95
    endloop
  endfacet
  facet normal -1 0 0
    outer loop
      vertex 90 0.375 0
      vertex 90 -0.375 0
      vertex 90 0.375 95
    endloop
  endfacet
  facet normal -1 0 0
    outer loop
      vertex 90 -0.375 95
      vertex 90 0.375 95
      vertex 90 -0.375 0
    endloop
  endfacet
  facet normal -1 0 0
    outer loop
      vertex 90 -0.375 95
      vertex 90 90 100
      vertex 90 0.375 95
    endloop
  endfacet
  facet normal -1 0 0
    outer loop
      vertex 90 -90 100
      vertex 90 -0.375 95
      vertex 90 -90 95
    endloop
  endfacet
  facet normal -1 0 0
    outer loop
      vertex 90 -0.375 95
      vertex 90 -90 100
      vertex 90 90 100
    endloop
  endfacet
  facet normal 0 1 0
    outer loop
      vertex 90 0.375 -98.99
      vertex 99.225 0.375 -13.8375
      vertex 99.225 0.375 -98.99
    endloop
  endfacet
  facet normal 0 1 0
    outer loop
      vertex 99.225 0.375 -13.8375
      vertex 90 0.375 -98.99
      vertex 90 0.375 0
    endloop
  endfacet
  facet normal 0 1 0
    outer loop
      vertex 90 0.375 0
      vertex 99.225 0.375 81.1625
      vertex 99.225 0.375 4.6125
    endloop
  endfacet
  facet normal 0 1 0
    outer loop
      vertex 99.225 0.375 81.1625
      vertex 90 0.375 0
      vertex 90 0.375 95
    endloop
  endfacet
  facet normal 0 -1 0
    outer loop
      vertex 90 -0.375 -98.99
      vertex 99.225 -0.375 -13.8375
      vertex 90 -0.375 0
    endloop
  endfacet
  facet normal 0 -1 -0
    outer loop
      vertex 99.225 -0.375 -13.8375
      vertex 90 -0.375 -98.99
      vertex 99.225 -0.375 -98.99
    endloop
  endfacet
  facet normal 0 -1 0
    outer loop
      vertex 90 -0.375 0
      vertex 99.225 -0.375 81.1625
      vertex 90 -0.375 95
    endloop
  endfacet
  facet normal 0 -1 -0
    outer loop
      vertex 99.225 -0.375 81.1625
      vertex 90 -0.375 0
      vertex 99.225 -0.375 4.6125
    endloop
  endfacet
  facet normal 1 0 0
    outer loop
      vertex -90 90 100
      vertex -90 0.375 95
      vertex -90 90 95
    endloop
  endfacet
  facet normal 1 0 0
    outer loop
      vertex -90 -0.375 0
      vertex -90 0.375 0
      vertex -90 0.375 95
    endloop
  endfacet
  facet normal 1 0 0
    outer loop
      vertex -90 -0.375 0
      vertex -90 0.375 95
      vertex -90 -0.375 95
    endloop
  endfacet
  facet normal 1 0 0
    outer loop
      vertex -90 90 100
      vertex -90 -0.375 95
      vertex -90 0.375 95
    endloop
  endfacet
  facet normal 1 -0 0
    outer loop
      vertex -90 -90 100
      vertex -90 -0.375 95
      vertex -90 90 100
    endloop
  endfacet
  facet normal 1 0 0
    outer loop
      vertex -90 -0.375 95
      vertex -90 -90 100
      vertex -90 -90 95
    endloop
  endfacet
  facet normal 1 0 0
    outer loop
      vertex -90 0.375 0
      vertex -90 -0.375 0
      vertex -90 0.375 -98.99
    endloop
  endfacet
  facet normal 1 0 0
    outer loop
      vertex -90 0.375 -98.99
      vertex -90 -0.375 0
      vertex -90 -0.375 -98.99
    endloop
  endfacet
  facet normal 0 1 -0
    outer loop
      vertex -90 0.375 -98.99
      vertex -99.225 0.375 -13.8375
      vertex -90 0.375 0
    endloop
  endfacet
  facet normal 0 1 0
    outer loop
      vertex -99.225 0.375 -13.8375
      vertex -90 0.375 -98.99
      vertex -99.225 0.375 -98.99
    endloop
  endfacet
  facet normal 0 1 -0
    outer loop
      vertex -90 0.375 0
      vertex -99.225 0.375 81.1625
      vertex -90 0.375 95
    endloop
  endfacet
  facet normal 0 1 0
    outer loop
      vertex -99.225 0.375 81.1625
      vertex -90 0.375 0
      vertex -99.225 0.375 4.6125
    endloop
  endfacet
  facet normal 0 -1 0
    outer loop
      vertex -90 -0.375 -98.99
      vertex -99.225 -0.375 -13.8375
      vertex -99.225 -0.375 -98.99
    endloop
  endfacet
  facet normal 0 -1 0
    outer loop
      vertex -99.225 -0.375 -13.8375
      vertex -90 -0.375 -98.99
      vertex -90 -0.375 0
    endloop
  endfacet
  facet normal 0 -1 0
    outer loop
      vertex -90 -0.375 0
      vertex -99.225 -0.375 81.1625
      vertex -99.225 -0.375 4.6125
    endloop
  endfacet
  facet normal 0 -1 0
    outer loop
      vertex -99.225 -0.375 81.1625
      vertex -90 -0.375 0
      vertex -90 -0.375 95
    endloop
  endfacet
  facet normal -1 0 0
    outer loop
      vertex -0.375 90 -98.99
      vertex -0.375 99.225 -13.8375
      vertex -0.375 99.225 -98.99
    endloop
  endfacet
  facet normal -1 -0 0
    outer loop
      vertex -0.375 99.225 -13.8375
      vertex -0.375 90 -98.99
      vertex -0.375 90 0
    endloop
  endfacet
  facet normal -1 0 0
    outer loop
      vertex -0.375 90 0
      vertex -0.375 99.225 81.1625
      vertex -0.375 99.225 4.6125
    endloop
  endfacet
  facet normal -1 -0 0
    outer loop
      vertex -0.375 99.225 81.1625
      vertex -0.375 90 0
      vertex -0.375 90 95
    endloop
  endfacet
  facet normal 0 -1 0
    outer loop
      vertex -0.375 90 0
      vertex 0.375 90 95
      vertex -0.375 90 95
    endloop
  endfacet
  facet normal 0 -1 0
    outer loop
      vertex -0.375 90 0
      vertex 0.375 90 0
      vertex 0.375 90 95
    endloop
  endfacet
  facet normal 0 -1 0
    outer loop
      vertex -0.375 90 -98.99
      vertex 0.375 90 0
      vertex -0.375 90 0
    endloop
  endfacet
  facet normal 0 -1 -0
    outer loop
      vertex 0.375 90 0
      vertex -0.375 90 -98.99
      vertex 0.375 90 -98.99
    endloop
  endfacet
  facet normal 0 -1 0
    outer loop
      vertex -0.375 90 95
      vertex -90 90 100
      vertex -90 90 95
    endloop
  endfacet
  facet normal 0 -1 0
    outer loop
      vertex -90 90 100
      vertex -0.375 90 95
      vertex 90 90 100
    endloop
  endfacet
  facet normal 0 -1 0
    outer loop
      vertex 0.375 90 95
      vertex 90 90 100
      vertex -0.375 90 95
    endloop
  endfacet
  facet normal 0 -1 -0
    outer loop
      vertex 90 90 100
      vertex 0.375 90 95
      vertex 90 90 95
    endloop
  endfacet
  facet normal 1 0 0
    outer loop
      vertex 0.375 90 -98.99
      vertex 0.375 99.225 -13.8375
      vertex 0.375 90 0
    endloop
  endfacet
  facet normal 1 0 0
    outer loop
      vertex 0.375 99.225 -13.8375
      vertex 0.375 90 -98.99
      vertex 0.375 99.225 -98.99
    endloop
  endfacet
  facet normal 1 0 0
    outer loop
      vertex 0.375 90 0
      vertex 0.375 99.225 81.1625
      vertex 0.375 90 95
    endloop
  endfacet
  facet normal 1 0 0
    outer loop
      vertex 0.375 99.225 81.1625
      vertex 0.375 90 0
      vertex 0.375 99.225 4.6125
    endloop
  endfacet
  facet normal 0 1 -0
    outer loop
      vertex 0.375 -90 0
      vertex -0.375 -90 95
      vertex 0.375 -90 95
    endloop
  endfacet
  facet normal 0 1 0
    outer loop
      vertex 0.375 -90 0
      vertex -0.375 -90 0
      vertex -0.375 -90 95
    endloop
  endfacet
  facet normal 0 1 -0
    outer loop
      vertex 0.375 -90 -98.99
      vertex -0.375 -90 0
      vertex 0.375 -90 0
    endloop
  endfacet
  facet normal 0 1 0
    outer loop
      vertex -0.375 -90 0
      vertex 0.375 -90 -98.99
      vertex -0.375 -90 -98.99
    endloop
  endfacet
  facet normal 0 1 0
    outer loop
      vertex 0.375 -90 95
      vertex 90 -90 100
      vertex 90 -90 95
    endloop
  endfacet
  facet normal 0 1 0
    outer loop
      vertex 90 -90 100
      vertex 0.375 -90 95
      vertex -90 -90 100
    endloop
  endfacet
  facet normal 0 1 -0
    outer loop
      vertex -0.375 -90 95
      vertex -90 -90 100
      vertex 0.375 -90 95
    endloop
  endfacet
  facet normal 0 1 0
    outer loop
      vertex -90 -90 100
      vertex -0.375 -90 95
      vertex -90 -90 95
    endloop
  endfacet
  facet normal 1 -0 0
    outer loop
      vertex 0.375 -99.225 -13.8375
      vertex 0.375 -90 -98.99
      vertex 0.375 -90 0
    endloop
  endfacet
  facet normal 1 0 0
    outer loop
      vertex 0.375 -90 -98.99
      vertex 0.375 -99.225 -13.8375
      vertex 0.375 -99.225 -98.99
    endloop
  endfacet
  facet normal 1 -0 0
    outer loop
      vertex 0.375 -99.225 81.1625
      vertex 0.375 -90 0
      vertex 0.375 -90 95
    endloop
  endfacet
  facet normal 1 0 0
    outer loop
      vertex 0.375 -90 0
      vertex 0.375 -99.225 81.1625
      vertex 0.375 -99.225 4.6125
    endloop
  endfacet
  facet normal -1 0 0
    outer loop
      vertex -0.375 -99.225 -13.8375
      vertex -0.375 -90 -98.99
      vertex -0.375 -99.225 -98.99
    endloop
  endfacet
  facet normal -1 0 0
    outer loop
      vertex -0.375 -90 -98.99
      vertex -0.375 -99.225 -13.8375
      vertex -0.375 -90 0
    endloop
  endfacet
  facet normal -1 0 0
    outer loop
      vertex -0.375 -99.225 81.1625
      vertex -0.375 -90 0
      vertex -0.375 -99.225 4.6125
    endloop
  endfacet
  facet normal -1 0 0
    outer loop
      vertex -0.375 -90 0
      vertex -0.375 -99.225 81.1625
      vertex -0.375 -90 95
    endloop
  endfacet
  facet normal 0.83205 0 -0.5547
    outer loop
      vertex -99.225 0.375 -13.8375
      vertex -90 90 0
      vertex -90 0.375 0
    endloop
  endfacet
  facet normal 0.83205 0 -0.5547
    outer loop
      vertex -90 90 0
      vertex -99.225 0.375 -13.8375
      vertex -99.225 99.225 -13.8375
    endloop
  endfacet
  facet normal 0.83205 0 -0.5547
    outer loop
      vertex -90 -90 0
      vertex -99.225 -0.375 -13.8375
      vertex -90 -0.375 0
    endloop
  endfacet
  facet normal 0.83205 0 -0.5547
    outer loop
      vertex -99.225 -0.375 -13.8375
      vertex -90 -90 0
      vertex -99.225 -99.225 -13.8375
    endloop
  endfacet
  facet normal 0.447214 -0 0.894427
    outer loop
      vertex -99.225 0.375 4.6125
      vertex -90 90 0
      vertex -99.225 99.225 4.6125
    endloop
  endfacet
  facet normal 0.447214 0 0.894427
    outer loop
      vertex -90 90 0
      vertex -99.225 0.375 4.6125
      vertex -90 0.375 0
    endloop
  endfacet
  facet normal 0.447214 0 0.894427
    outer loop
      vertex -99.225 -0.375 4.6125
      vertex -90 -90 0
      vertex -90 -0.375 0
    endloop
  endfacet
  facet normal 0.447214 0 0.894427
    outer loop
      vertex -90 -90 0
      vertex -99.225 -0.375 4.6125
      vertex -99.225 -99.225 4.6125
    endloop
  endfacet
  facet normal -0.83205 0 -0.5547
    outer loop
      vertex 99.225 0.375 -13.8375
      vertex 90 90 0
      vertex 99.225 99.225 -13.8375
    endloop
  endfacet
  facet normal -0.83205 -0 -0.5547
    outer loop
      vertex 90 90 0
      vertex 99.225 0.375 -13.8375
      vertex 90 0.375 0
    endloop
  endfacet
  facet normal -0.83205 0 -0.5547
    outer loop
      vertex 99.225 -0.375 -13.8375
      vertex 90 -90 0
      vertex 90 -0.375 0
    endloop
  endfacet
  facet normal -0.83205 0 -0.5547
    outer loop
      vertex 90 -90 0
      vertex 99.225 -0.375 -13.8375
      vertex 99.225 -99.225 -13.8375
    endloop
  endfacet
  facet normal -0.447214 0 0.894427
    outer loop
      vertex 90 90 0
      vertex 99.225 0.375 4.6125
      vertex 99.225 99.225 4.6125
    endloop
  endfacet
  facet normal -0.447214 0 0.894427
    outer loop
      vertex 99.225 0.375 4.6125
      vertex 90 90 0
      vertex 90 0.375 0
    endloop
  endfacet
  facet normal -0.447214 0 0.894427
    outer loop
      vertex 90 -90 0
      vertex 99.225 -0.375 4.6125
      vertex 90 -0.375 0
    endloop
  endfacet
  facet normal -0.447214 0 0.894427
    outer loop
      vertex 99.225 -0.375 4.6125
      vertex 90 -90 0
      vertex 99.225 -99.225 4.6125
    endloop
  endfacet
  facet normal 0 -0.83205 -0.5547
    outer loop
      vertex 0.375 99.225 -13.8375
      vertex 90 90 0
      vertex 0.375 90 0
    endloop
  endfacet
  facet normal 0 -0.83205 -0.5547
    outer loop
      vertex 90 90 0
      vertex 0.375 99.225 -13.8375
      vertex 99.225 99.225 -13.8375
    endloop
  endfacet
  facet normal -0 -0.83205 -0.5547
    outer loop
      vertex -0.375 99.225 -13.8375
      vertex -90 90 0
      vertex -99.225 99.225 -13.8375
    endloop
  endfacet
  facet normal 0 -0.83205 -0.5547
    outer loop
      vertex -90 90 0
      vertex -0.375 99.225 -13.8375
      vertex -0.375 90 0
    endloop
  endfacet
  facet normal 0 -0.447214 0.894427
    outer loop
      vertex 0.375 99.225 4.6125
      vertex 90 90 0
      vertex 99.225 99.225 4.6125
    endloop
  endfacet
  facet normal 0 -0.447214 0.894427
    outer loop
      vertex 90 90 0
      vertex 0.375 99.225 4.6125
      vertex 0.375 90 0
    endloop
  endfacet
  facet normal 0 -0.447214 0.894427
    outer loop
      vertex -0.375 99.225 4.6125
      vertex -90 90 0
      vertex -0.375 90 0
    endloop
  endfacet
  facet normal 0 -0.447214 0.894427
    outer loop
      vertex -90 90 0
      vertex -0.375 99.225 4.6125
      vertex -99.225 99.225 4.6125
    endloop
  endfacet
  facet normal 0 0.83205 -0.5547
    outer loop
      vertex -0.375 -99.225 -13.8375
      vertex -90 -90 0
      vertex -0.375 -90 0
    endloop
  endfacet
  facet normal 0 0.83205 -0.5547
    outer loop
      vertex -90 -90 0
      vertex -0.375 -99.225 -13.8375
      vertex -99.225 -99.225 -13.8375
    endloop
  endfacet
  facet normal 0 0.83205 -0.5547
    outer loop
      vertex 0.375 -99.225 -13.8375
      vertex 90 -90 0
      vertex 99.225 -99.225 -13.8375
    endloop
  endfacet
  facet normal 0 0.83205 -0.5547
    outer loop
      vertex 90 -90 0
      vertex 0.375 -99.225 -13.8375
      vertex 0.375 -90 0
    endloop
  endfacet
  facet normal -0 0.447214 0.894427
    outer loop
      vertex -90 -90 0
      vertex -0.375 -99.225 4.6125
      vertex -0.375 -90 0
    endloop
  endfacet
  facet normal 0 0.447214 0.894427
    outer loop
      vertex -0.375 -99.225 4.6125
      vertex -90 -90 0
      vertex -99.225 -99.225 4.6125
    endloop
  endfacet
  facet normal 0 0.447214 0.894427
    outer loop
      vertex 0.375 -99.225 4.6125
      vertex 90 -90 0
      vertex 0.375 -90 0
    endloop
  endfacet
  facet normal 0 0.447214 0.894427
    outer loop
      vertex 90 -90 0
      vertex 0.375 -99.225 4.6125
      vertex 99.225 -99.225 4.6125
    endloop
  endfacet
  facet normal 0.83205 0 -0.5547
    outer loop
      vertex -99.225 0.375 81.1625
      vertex -90 90 95
      vertex -90 0.375 95
    endloop
  endfacet
  facet normal 0.83205 0 -0.5547
    outer loop
      vertex -90 90 95
      vertex -99.225 0.375 81.1625
      vertex -99.225 99.225 81.1625
    endloop
  endfacet
  facet normal 0.83205 0 -0.5547
    outer loop
      vertex -90 -90 95
      vertex -99.225 -0.375 81.1625
      vertex -90 -0.375 95
    endloop
  endfacet
  facet normal 0.83205 0 -0.5547
    outer loop
      vertex -99.225 -0.375 81.1625
      vertex -90 -90 95
      vertex -99.225 -99.225 81.1625
    endloop
  endfacet
  facet normal -0.83205 0 -0.5547
    outer loop
      vertex 99.225 0.375 81.1625
      vertex 90 90 95
      vertex 99.225 99.225 81.1625
    endloop
  endfacet
  facet normal -0.83205 -0 -0.5547
    outer loop
      vertex 90 90 95
      vertex 99.225 0.375 81.1625
      vertex 90 0.375 95
    endloop
  endfacet
  facet normal -0.83205 0 -0.5547
    outer loop
      vertex 99.225 -0.375 81.1625
      vertex 90 -90 95
      vertex 90 -0.375 95
    endloop
  endfacet
  facet normal -0.83205 0 -0.5547
    outer loop
      vertex 90 -90 95
      vertex 99.225 -0.375 81.1625
      vertex 99.225 -99.225 81.1625
    endloop
  endfacet
  facet normal 0 -0.83205 -0.5547
    outer loop
      vertex 0.375 99.225 81.1625
      vertex 90 90 95
      vertex 0.375 90 95
    endloop
  endfacet
  facet normal 0 -0.83205 -0.5547
    outer loop
      vertex 90 90 95
      vertex 0.375 99.225 81.1625
      vertex 99.225 99.225 81.1625
    endloop
  endfacet
  facet normal -0 -0.83205 -0.5547
    outer loop
      vertex -0.375 99.225 81.1625
      vertex -90 90 95
      vertex -99.225 99.225 81.1625
    endloop
  endfacet
  facet normal 0 -0.83205 -0.5547
    outer loop
      vertex -90 90 95
      vertex -0.375 99.225 81.1625
      vertex -0.375 90 95
    endloop
  endfacet
  facet normal 0 0.83205 -0.5547
    outer loop
      vertex -0.375 -99.225 81.1625
      vertex -90 -90 95
      vertex -0.375 -90 95
    endloop
  endfacet
  facet normal 0 0.83205 -0.5547
    outer loop
      vertex -90 -90 95
      vertex -0.375 -99.225 81.1625
      vertex -99.225 -99.225 81.1625
    endloop
  endfacet
  facet normal 0 0.83205 -0.5547
    outer loop
      vertex 0.375 -99.225 81.1625
      vertex 90 -90 95
      vertex 99.225 -99.225 81.1625
    endloop
  endfacet
  facet normal 0 0.83205 -0.5547
    outer loop
      vertex 90 -90 95
      vertex 0.375 -99.225 81.1625
      vertex 0.375 -90 95
    endloop
  endfacet
endsolid OpenSCAD_Model
