solid OpenSCAD_Model
  facet normal 0.649934 -0.649934 -0.393919
    outer loop
      vertex 0 -4.24264 25
      vertex -20.7574 -20.7574 18
      vertex 0 0 18
    endloop
  endfacet
  facet normal 0.649935 -0.649945 -0.393898
    outer loop
      vertex 0 -4.24264 25
      vertex -20.2399 -21.3474 19.8274
      vertex -20.7574 -20.7574 18
    endloop
  endfacet
  facet normal 0.649928 -0.649921 -0.393949
    outer loop
      vertex 0 -4.24264 25
      vertex -19.8038 -22 21.6235
      vertex -20.2399 -21.3474 19.8274
    endloop
  endfacet
  facet normal 0.649936 -0.649936 -0.393912
    outer loop
      vertex 0 -4.24264 25
      vertex -19.4567 -22.7039 23.3576
      vertex -19.8038 -22 21.6235
    endloop
  endfacet
  facet normal 0.649929 -0.649927 -0.393938
    outer loop
      vertex -19.4567 -22.7039 23.3576
      vertex 0 -4.24264 25
      vertex -19.2044 -23.4471 25
    endloop
  endfacet
  facet normal 0.649927 -0.649929 -0.393939
    outer loop
      vertex 4.24264 0 25
      vertex 20.2399 17.6949 22.1991
      vertex 20.7574 16.5147 25
    endloop
  endfacet
  facet normal 0.649933 -0.649932 -0.393923
    outer loop
      vertex 4.24264 0 25
      vertex 19.8038 19 19.3263
      vertex 20.2399 17.6949 22.1991
    endloop
  endfacet
  facet normal 0.649934 -0.649934 -0.393919
    outer loop
      vertex 19.6448 19.6448 18
      vertex 4.24264 0 25
      vertex 0 0 18
    endloop
  endfacet
  facet normal 0.649948 -0.649935 -0.393893
    outer loop
      vertex 4.24264 0 25
      vertex 19.6448 19.6448 18
      vertex 19.8038 19 19.3263
    endloop
  endfacet
  facet normal 0 0 1
    outer loop
      vertex -4.24264 0 25
      vertex -19.2044 -23.4471 25
      vertex 0 -4.24264 25
    endloop
  endfacet
  facet normal 0 -0 1
    outer loop
      vertex -19.2044 -23.4471 25
      vertex -4.24264 0 25
      vertex -23.4471 -19.2044 25
    endloop
  endfacet
  facet normal -0 0 1
    outer loop
      vertex 21.3474 15.4798 25
      vertex 25 13 25
      vertex 25 25 25
    endloop
  endfacet
  facet normal -0 -0 1
    outer loop
      vertex 22 14.6077 25
      vertex 25 13 25
      vertex 21.3474 15.4798 25
    endloop
  endfacet
  facet normal -0 -0 1
    outer loop
      vertex 23.4471 13.4089 25
      vertex 25 13 25
      vertex 22.7039 13.9134 25
    endloop
  endfacet
  facet normal 0 0 1
    outer loop
      vertex 25 13 25
      vertex 23.4471 13.4089 25
      vertex 24.2168 13.1027 25
    endloop
  endfacet
  facet normal -0 -0 1
    outer loop
      vertex 22.7039 13.9134 25
      vertex 25 13 25
      vertex 22 14.6077 25
    endloop
  endfacet
  facet normal 0 0 1
    outer loop
      vertex 25 25 25
      vertex 20.7574 16.5147 25
      vertex 21.3474 15.4798 25
    endloop
  endfacet
  facet normal 0 0 1
    outer loop
      vertex 25 25 25
      vertex 19.064 23.3066 25
      vertex 20.7574 16.5147 25
    endloop
  endfacet
  facet normal 0 0 1
    outer loop
      vertex 25 25 25
      vertex 19.0513 23.4337 25
      vertex 19.064 23.3066 25
    endloop
  endfacet
  facet normal 0 0 1
    outer loop
      vertex 25 25 25
      vertex 19.0259 24.21 25
      vertex 19.0513 23.4337 25
    endloop
  endfacet
  facet normal 0 0 1
    outer loop
      vertex 25 25 25
      vertex -19.0259 24.21 25
      vertex 19.0259 24.21 25
    endloop
  endfacet
  facet normal 0 0 1
    outer loop
      vertex -25 25 25
      vertex -19.0513 23.4337 25
      vertex -19.0259 24.21 25
    endloop
  endfacet
  facet normal 0 0 1
    outer loop
      vertex -19.0513 23.4337 25
      vertex -25 25 25
      vertex -19.064 23.3066 25
    endloop
  endfacet
  facet normal 0 0 1
    outer loop
      vertex -19.064 23.3066 25
      vertex -25 25 25
      vertex -20.7574 16.5147 25
    endloop
  endfacet
  facet normal 0 0 1
    outer loop
      vertex -20.7574 16.5147 25
      vertex -25 25 25
      vertex -21.3474 15.4798 25
    endloop
  endfacet
  facet normal 0 0 1
    outer loop
      vertex -25 13 25
      vertex -21.3474 15.4798 25
      vertex -25 25 25
    endloop
  endfacet
  facet normal 0 0 1
    outer loop
      vertex -21.3474 15.4798 25
      vertex -25 13 25
      vertex -22 14.6077 25
    endloop
  endfacet
  facet normal 0 0 1
    outer loop
      vertex -22 14.6077 25
      vertex -25 13 25
      vertex -22.7039 13.9134 25
    endloop
  endfacet
  facet normal -0 0 1
    outer loop
      vertex -25 25 25
      vertex -19.0259 24.21 25
      vertex 25 25 25
    endloop
  endfacet
  facet normal 0 0 1
    outer loop
      vertex -22.7039 13.9134 25
      vertex -25 13 25
      vertex -23.4471 13.4089 25
    endloop
  endfacet
  facet normal 0 0 1
    outer loop
      vertex -23.4471 13.4089 25
      vertex -25 13 25
      vertex -24.2168 13.1027 25
    endloop
  endfacet
  facet normal 0 0 1
    outer loop
      vertex 0 4.24264 25
      vertex 20.7574 16.5147 25
      vertex 19.064 23.3066 25
    endloop
  endfacet
  facet normal 0 0 1
    outer loop
      vertex 20.7574 16.5147 25
      vertex 0 4.24264 25
      vertex 4.24264 0 25
    endloop
  endfacet
  facet normal 0 0 1
    outer loop
      vertex 4.24264 0 25
      vertex 19.2044 -23.4471 25
      vertex 23.4471 -19.2044 25
    endloop
  endfacet
  facet normal 0 0 1
    outer loop
      vertex 0 -4.24264 25
      vertex 4.24264 0 25
      vertex 0 4.24264 25
    endloop
  endfacet
  facet normal 0 0 1
    outer loop
      vertex 4.24264 0 25
      vertex 0 -4.24264 25
      vertex 19.2044 -23.4471 25
    endloop
  endfacet
  facet normal 0 0 1
    outer loop
      vertex 0 4.24264 25
      vertex -4.24264 0 25
      vertex 0 -4.24264 25
    endloop
  endfacet
  facet normal -0 0 1
    outer loop
      vertex -20.7574 16.5147 25
      vertex 0 4.24264 25
      vertex -19.064 23.3066 25
    endloop
  endfacet
  facet normal 0 0 1
    outer loop
      vertex 0 4.24264 25
      vertex -20.7574 16.5147 25
      vertex -4.24264 0 25
    endloop
  endfacet
  facet normal -0 0 1
    outer loop
      vertex 24.2168 -19.0513 25
      vertex 25 -25 25
      vertex 25 -19 25
    endloop
  endfacet
  facet normal -0 0 1
    outer loop
      vertex 23.4471 -19.2044 25
      vertex 25 -25 25
      vertex 24.2168 -19.0513 25
    endloop
  endfacet
  facet normal -0 0 1
    outer loop
      vertex 19.2044 -23.4471 25
      vertex 25 -25 25
      vertex 23.4471 -19.2044 25
    endloop
  endfacet
  facet normal -0 0 1
    outer loop
      vertex 19.0513 -24.2168 25
      vertex 25 -25 25
      vertex 19.2044 -23.4471 25
    endloop
  endfacet
  facet normal 0 0 1
    outer loop
      vertex 25 -25 25
      vertex 19.0513 -24.2168 25
      vertex 19 -25 25
    endloop
  endfacet
  facet normal 0 0 1
    outer loop
      vertex -25 -25 25
      vertex -19.0513 -24.2168 25
      vertex -19.2044 -23.4471 25
    endloop
  endfacet
  facet normal 0 0 1
    outer loop
      vertex -25 -25 25
      vertex -19.2044 -23.4471 25
      vertex -23.4471 -19.2044 25
    endloop
  endfacet
  facet normal 0 0 1
    outer loop
      vertex -25 -25 25
      vertex -23.4471 -19.2044 25
      vertex -24.2168 -19.0513 25
    endloop
  endfacet
  facet normal 0 0 1
    outer loop
      vertex -25 -25 25
      vertex -24.2168 -19.0513 25
      vertex -25 -19 25
    endloop
  endfacet
  facet normal 0 0 1
    outer loop
      vertex -19.0513 -24.2168 25
      vertex -25 -25 25
      vertex -19 -25 25
    endloop
  endfacet
  facet normal -0.649934 0.649934 -0.393919
    outer loop
      vertex -22.7039 -19.4567 23.3576
      vertex -4.24264 0 25
      vertex 0 0 18
    endloop
  endfacet
  facet normal -0.649927 0.649929 -0.393938
    outer loop
      vertex -4.24264 0 25
      vertex -22.7039 -19.4567 23.3576
      vertex -23.4471 -19.2044 25
    endloop
  endfacet
  facet normal -0.649935 0.649937 -0.393912
    outer loop
      vertex 0 0 18
      vertex -22 -19.8038 21.6235
      vertex -22.7039 -19.4567 23.3576
    endloop
  endfacet
  facet normal -0.649927 0.649922 -0.39395
    outer loop
      vertex 0 0 18
      vertex -21.3474 -20.2399 19.8274
      vertex -22 -19.8038 21.6235
    endloop
  endfacet
  facet normal -0.64994 0.64994 -0.393898
    outer loop
      vertex -21.3474 -20.2399 19.8274
      vertex 0 0 18
      vertex -20.7574 -20.7574 18
    endloop
  endfacet
  facet normal -0.649941 0.649943 -0.393892
    outer loop
      vertex 19.2044 21.8942 22.4378
      vertex 0 4.24264 25
      vertex 19.064 23.3066 25
    endloop
  endfacet
  facet normal -0.64993 0.64993 -0.393932
    outer loop
      vertex 0 0 18
      vertex 19.2044 21.8942 22.4378
      vertex 19.4567 20.4078 19.5692
    endloop
  endfacet
  facet normal -0.649931 0.649931 -0.393927
    outer loop
      vertex 0 0 18
      vertex 19.4567 20.4078 19.5692
      vertex 19.6448 19.6448 18
    endloop
  endfacet
  facet normal -0.649935 0.649932 -0.393918
    outer loop
      vertex 19.2044 21.8942 22.4378
      vertex 0 0 18
      vertex 0 4.24264 25
    endloop
  endfacet
  facet normal 0.649941 0.649943 -0.393892
    outer loop
      vertex 0 4.24264 25
      vertex -19.2044 21.8942 22.4378
      vertex -19.064 23.3066 25
    endloop
  endfacet
  facet normal 0.649935 0.649932 -0.393918
    outer loop
      vertex 0 0 18
      vertex -19.2044 21.8942 22.4378
      vertex 0 4.24264 25
    endloop
  endfacet
  facet normal 0.64993 0.64993 -0.393932
    outer loop
      vertex -19.2044 21.8942 22.4378
      vertex 0 0 18
      vertex -19.4567 20.4078 19.5692
    endloop
  endfacet
  facet normal 0.649931 0.649931 -0.393927
    outer loop
      vertex -19.4567 20.4078 19.5692
      vertex 0 0 18
      vertex -19.6448 19.6448 18
    endloop
  endfacet
  facet normal 0.649927 0.649929 -0.393938
    outer loop
      vertex 22.7039 -19.4567 23.3576
      vertex 4.24264 0 25
      vertex 23.4471 -19.2044 25
    endloop
  endfacet
  facet normal 0.649934 0.649934 -0.393919
    outer loop
      vertex 4.24264 0 25
      vertex 22.7039 -19.4567 23.3576
      vertex 0 0 18
    endloop
  endfacet
  facet normal 0.649935 0.649937 -0.393912
    outer loop
      vertex 22 -19.8038 21.6235
      vertex 0 0 18
      vertex 22.7039 -19.4567 23.3576
    endloop
  endfacet
  facet normal 0.649927 0.649922 -0.39395
    outer loop
      vertex 21.3474 -20.2399 19.8274
      vertex 0 0 18
      vertex 22 -19.8038 21.6235
    endloop
  endfacet
  facet normal 0.64994 0.64994 -0.393898
    outer loop
      vertex 0 0 18
      vertex 21.3474 -20.2399 19.8274
      vertex 20.7574 -20.7574 18
    endloop
  endfacet
  facet normal -0.649941 -0.649941 -0.393895
    outer loop
      vertex 0 0 18
      vertex -19.8038 19 19.3263
      vertex -19.6448 19.6448 18
    endloop
  endfacet
  facet normal -0.649934 -0.649931 -0.393923
    outer loop
      vertex 0 0 18
      vertex -20.2399 17.6949 22.1991
      vertex -19.8038 19 19.3263
    endloop
  endfacet
  facet normal -0.649931 -0.649925 -0.393938
    outer loop
      vertex 0 0 18
      vertex -20.7574 16.5147 25
      vertex -20.2399 17.6949 22.1991
    endloop
  endfacet
  facet normal -0.649933 -0.649935 -0.393919
    outer loop
      vertex -20.7574 16.5147 25
      vertex 0 0 18
      vertex -4.24264 0 25
    endloop
  endfacet
  facet normal -0.649934 -0.649934 -0.393919
    outer loop
      vertex 20.7574 -20.7574 18
      vertex 0 -4.24264 25
      vertex 0 0 18
    endloop
  endfacet
  facet normal -0.649935 -0.649945 -0.393898
    outer loop
      vertex 20.2399 -21.3474 19.8274
      vertex 0 -4.24264 25
      vertex 20.7574 -20.7574 18
    endloop
  endfacet
  facet normal -0.649928 -0.649921 -0.393949
    outer loop
      vertex 19.8038 -22 21.6235
      vertex 0 -4.24264 25
      vertex 20.2399 -21.3474 19.8274
    endloop
  endfacet
  facet normal -0.649936 -0.649936 -0.393912
    outer loop
      vertex 19.4567 -22.7039 23.3576
      vertex 0 -4.24264 25
      vertex 19.8038 -22 21.6235
    endloop
  endfacet
  facet normal -0.649929 -0.649927 -0.393938
    outer loop
      vertex 0 -4.24264 25
      vertex 19.4567 -22.7039 23.3576
      vertex 19.2044 -23.4471 25
    endloop
  endfacet
  facet normal -1 0 0
    outer loop
      vertex -25 25 -25.35
      vertex -25 13 -18
      vertex -25 25 25
    endloop
  endfacet
  facet normal -1 0 0
    outer loop
      vertex -25 -25 -25.35
      vertex -25 13 -18
      vertex -25 25 -25.35
    endloop
  endfacet
  facet normal -1 -0 0
    outer loop
      vertex -25 13 -18
      vertex -25 -25 -25.35
      vertex -25 -19 -18
    endloop
  endfacet
  facet normal -1 0 0
    outer loop
      vertex -25 -25 25
      vertex -25 -19 -18
      vertex -25 -25 -25.35
    endloop
  endfacet
  facet normal -1 0 0
    outer loop
      vertex -25 -19 -18
      vertex -25 -25 25
      vertex -25 -19 25
    endloop
  endfacet
  facet normal -1 -0 0
    outer loop
      vertex -25 25 25
      vertex -25 13 -18
      vertex -25 13 25
    endloop
  endfacet
  facet normal 0 0 1
    outer loop
      vertex 0 -4.03051 -24.65
      vertex -18.1195 -22.15 -24.65
      vertex 18.1195 -22.15 -24.65
    endloop
  endfacet
  facet normal -0 0 1
    outer loop
      vertex -20.7574 16.5147 -24.65
      vertex -4.03051 0 -24.65
      vertex -20.6927 16.6622 -24.65
    endloop
  endfacet
  facet normal -0 0 1
    outer loop
      vertex -21.3474 15.4798 -24.65
      vertex -4.03051 0 -24.65
      vertex -20.7574 16.5147 -24.65
    endloop
  endfacet
  facet normal -0 0 1
    outer loop
      vertex -22 14.6077 -24.65
      vertex -4.03051 0 -24.65
      vertex -21.3474 15.4798 -24.65
    endloop
  endfacet
  facet normal -0 0 1
    outer loop
      vertex -22.15 14.4598 -24.65
      vertex -4.03051 0 -24.65
      vertex -22 14.6077 -24.65
    endloop
  endfacet
  facet normal 0 0 1
    outer loop
      vertex -4.03051 0 -24.65
      vertex -22.15 14.4598 -24.65
      vertex -22.15 -18.1195 -24.65
    endloop
  endfacet
  facet normal 0 0 1
    outer loop
      vertex 18.1195 22.15 -24.65
      vertex -18.1195 22.15 -24.65
      vertex 0 4.03051 -24.65
    endloop
  endfacet
  facet normal 0 0 1
    outer loop
      vertex 4.03051 0 -24.65
      vertex 22.15 14.4598 -24.65
      vertex 22 14.6077 -24.65
    endloop
  endfacet
  facet normal 0 0 1
    outer loop
      vertex 4.03051 0 -24.65
      vertex 22 14.6077 -24.65
      vertex 21.3474 15.4798 -24.65
    endloop
  endfacet
  facet normal 0 0 1
    outer loop
      vertex 4.03051 0 -24.65
      vertex 21.3474 15.4798 -24.65
      vertex 20.7574 16.5147 -24.65
    endloop
  endfacet
  facet normal 0 0 1
    outer loop
      vertex 4.03051 0 -24.65
      vertex 20.7574 16.5147 -24.65
      vertex 20.6927 16.6622 -24.65
    endloop
  endfacet
  facet normal 0 0 1
    outer loop
      vertex 22.15 14.4598 -24.65
      vertex 4.03051 0 -24.65
      vertex 22.15 -18.1195 -24.65
    endloop
  endfacet
  facet normal 1 0 0
    outer loop
      vertex 25 -19 25
      vertex 25 -25 25
      vertex 25 -19 -18
    endloop
  endfacet
  facet normal 1 0 0
    outer loop
      vertex 25 13 -18
      vertex 25 25 25
      vertex 25 13 25
    endloop
  endfacet
  facet normal 1 0 0
    outer loop
      vertex 25 25 25
      vertex 25 13 -18
      vertex 25 25 -25.35
    endloop
  endfacet
  facet normal 1 0 0
    outer loop
      vertex 25 -25 -25.35
      vertex 25 13 -18
      vertex 25 -19 -18
    endloop
  endfacet
  facet normal 1 0 0
    outer loop
      vertex 25 13 -18
      vertex 25 -25 -25.35
      vertex 25 25 -25.35
    endloop
  endfacet
  facet normal 1 0 0
    outer loop
      vertex 25 -25 -25.35
      vertex 25 -19 -18
      vertex 25 -25 25
    endloop
  endfacet
  facet normal 0 0 -1
    outer loop
      vertex -25 -25 -25.35
      vertex 25 25 -25.35
      vertex 25 -25 -25.35
    endloop
  endfacet
  facet normal -0 0 -1
    outer loop
      vertex 25 25 -25.35
      vertex -25 -25 -25.35
      vertex -25 25 -25.35
    endloop
  endfacet
  facet normal 0 -1 0
    outer loop
      vertex -25 -25 25
      vertex -19 -25 -18
      vertex -19 -25 25
    endloop
  endfacet
  facet normal 0 -1 -0
    outer loop
      vertex -19 -25 -18
      vertex -25 -25 -25.35
      vertex 19 -25 -18
    endloop
  endfacet
  facet normal 0 -1 0
    outer loop
      vertex -25 -25 -25.35
      vertex -19 -25 -18
      vertex -25 -25 25
    endloop
  endfacet
  facet normal 0 -1 0
    outer loop
      vertex 19 -25 -18
      vertex 25 -25 25
      vertex 19 -25 25
    endloop
  endfacet
  facet normal 0 -1 0
    outer loop
      vertex 19 -25 -18
      vertex 25 -25 -25.35
      vertex 25 -25 25
    endloop
  endfacet
  facet normal 0 -1 0
    outer loop
      vertex 25 -25 -25.35
      vertex 19 -25 -18
      vertex -25 -25 -25.35
    endloop
  endfacet
  facet normal 0 1 -0
    outer loop
      vertex 25 25 -25.35
      vertex -25 25 25
      vertex 25 25 25
    endloop
  endfacet
  facet normal 0 1 0
    outer loop
      vertex -25 25 25
      vertex 25 25 -25.35
      vertex -25 25 -25.35
    endloop
  endfacet
  facet normal 0 -1 0
    outer loop
      vertex -19.0259 24.21 -19.8433
      vertex 19.0259 24.21 25
      vertex -19.0259 24.21 25
    endloop
  endfacet
  facet normal 0 -1 -0
    outer loop
      vertex 19.0259 24.21 25
      vertex -19.0259 24.21 -19.8433
      vertex 19.0259 24.21 -19.8433
    endloop
  endfacet
  facet normal -2.22968e-05 -0.919148 0.393913
    outer loop
      vertex -18.1195 22.15 -24.65
      vertex -19.0259 24.21 -19.8433
      vertex -19.0513 23.4337 -21.6547
    endloop
  endfacet
  facet normal 0 -0.919146 0.393917
    outer loop
      vertex -19.0259 24.21 -19.8433
      vertex -18.1195 22.15 -24.65
      vertex 19.0259 24.21 -19.8433
    endloop
  endfacet
  facet normal -1.34044e-15 -0.919145 0.393919
    outer loop
      vertex -18.1195 22.15 -24.65
      vertex -19.0513 23.4337 -21.6547
      vertex -19.1371 22.5715 -23.6665
    endloop
  endfacet
  facet normal 0 -0.919146 0.393917
    outer loop
      vertex 18.1195 22.15 -24.65
      vertex 19.0259 24.21 -19.8433
      vertex -18.1195 22.15 -24.65
    endloop
  endfacet
  facet normal 2.22968e-05 -0.919148 0.393913
    outer loop
      vertex 19.0259 24.21 -19.8433
      vertex 18.1195 22.15 -24.65
      vertex 19.0513 23.4337 -21.6547
    endloop
  endfacet
  facet normal 1.34044e-15 -0.919145 0.393919
    outer loop
      vertex 19.0513 23.4337 -21.6547
      vertex 18.1195 22.15 -24.65
      vertex 19.1371 22.5715 -23.6665
    endloop
  endfacet
  facet normal 0.919141 0 0.393928
    outer loop
      vertex -22.7039 13.9134 -23.3576
      vertex -22.15 -18.1195 -24.65
      vertex -22.15 14.4598 -24.65
    endloop
  endfacet
  facet normal 0.919142 1.03199e-07 0.393926
    outer loop
      vertex -23.4471 13.4089 -21.6235
      vertex -22.15 -18.1195 -24.65
      vertex -22.7039 13.9134 -23.3576
    endloop
  endfacet
  facet normal 0.919155 3.58145e-06 0.393895
    outer loop
      vertex -24.2168 13.1027 -19.8274
      vertex -22.15 -18.1195 -24.65
      vertex -23.4471 13.4089 -21.6235
    endloop
  endfacet
  facet normal 0.91914 -3.03448e-06 0.393931
    outer loop
      vertex -25 13 -18
      vertex -22.15 -18.1195 -24.65
      vertex -24.2168 13.1027 -19.8274
    endloop
  endfacet
  facet normal 0.919145 -0 0.393919
    outer loop
      vertex -25 -19 -18
      vertex -22.15 -18.1195 -24.65
      vertex -25 13 -18
    endloop
  endfacet
  facet normal 0.919141 8.95495e-05 0.393929
    outer loop
      vertex -24.2168 -19.0513 -19.8274
      vertex -22.15 -18.1195 -24.65
      vertex -25 -19 -18
    endloop
  endfacet
  facet normal 0.919153 -8.54618e-05 0.393901
    outer loop
      vertex -23.4471 -19.2044 -21.6235
      vertex -22.15 -18.1195 -24.65
      vertex -24.2168 -19.0513 -19.8274
    endloop
  endfacet
  facet normal 0.919142 -2.19281e-06 0.393926
    outer loop
      vertex -22.15 -18.1195 -24.65
      vertex -23.4471 -19.2044 -21.6235
      vertex -22.7039 -19.4567 -23.3576
    endloop
  endfacet
  facet normal -8.95495e-05 0.919141 0.393929
    outer loop
      vertex 18.1195 -22.15 -24.65
      vertex 19 -25 -18
      vertex 19.0513 -24.2168 -19.8274
    endloop
  endfacet
  facet normal 0 0.919145 0.393919
    outer loop
      vertex 19 -25 -18
      vertex 18.1195 -22.15 -24.65
      vertex -19 -25 -18
    endloop
  endfacet
  facet normal 8.54618e-05 0.919153 0.393901
    outer loop
      vertex 18.1195 -22.15 -24.65
      vertex 19.0513 -24.2168 -19.8274
      vertex 19.2044 -23.4471 -21.6235
    endloop
  endfacet
  facet normal -0 0.919145 0.393919
    outer loop
      vertex -18.1195 -22.15 -24.65
      vertex -19 -25 -18
      vertex 18.1195 -22.15 -24.65
    endloop
  endfacet
  facet normal 2.19281e-06 0.919142 0.393926
    outer loop
      vertex 18.1195 -22.15 -24.65
      vertex 19.2044 -23.4471 -21.6235
      vertex 19.4567 -22.7039 -23.3576
    endloop
  endfacet
  facet normal 8.95495e-05 0.919141 0.393929
    outer loop
      vertex -19 -25 -18
      vertex -18.1195 -22.15 -24.65
      vertex -19.0513 -24.2168 -19.8274
    endloop
  endfacet
  facet normal -8.54618e-05 0.919153 0.393901
    outer loop
      vertex -19.0513 -24.2168 -19.8274
      vertex -18.1195 -22.15 -24.65
      vertex -19.2044 -23.4471 -21.6235
    endloop
  endfacet
  facet normal -2.19281e-06 0.919142 0.393926
    outer loop
      vertex -19.2044 -23.4471 -21.6235
      vertex -18.1195 -22.15 -24.65
      vertex -19.4567 -22.7039 -23.3576
    endloop
  endfacet
  facet normal -0.919141 0 0.393928
    outer loop
      vertex 22.15 -18.1195 -24.65
      vertex 22.7039 13.9134 -23.3576
      vertex 22.15 14.4598 -24.65
    endloop
  endfacet
  facet normal -0.919142 1.03199e-07 0.393926
    outer loop
      vertex 22.15 -18.1195 -24.65
      vertex 23.4471 13.4089 -21.6235
      vertex 22.7039 13.9134 -23.3576
    endloop
  endfacet
  facet normal -0.919155 3.58145e-06 0.393895
    outer loop
      vertex 22.15 -18.1195 -24.65
      vertex 24.2168 13.1027 -19.8274
      vertex 23.4471 13.4089 -21.6235
    endloop
  endfacet
  facet normal -0.91914 -3.03448e-06 0.393931
    outer loop
      vertex 22.15 -18.1195 -24.65
      vertex 25 13 -18
      vertex 24.2168 13.1027 -19.8274
    endloop
  endfacet
  facet normal -0.919145 0 0.393919
    outer loop
      vertex 22.15 -18.1195 -24.65
      vertex 25 -19 -18
      vertex 25 13 -18
    endloop
  endfacet
  facet normal -0.919141 8.95495e-05 0.393929
    outer loop
      vertex 22.15 -18.1195 -24.65
      vertex 24.2168 -19.0513 -19.8274
      vertex 25 -19 -18
    endloop
  endfacet
  facet normal -0.919153 -8.54618e-05 0.393901
    outer loop
      vertex 22.15 -18.1195 -24.65
      vertex 23.4471 -19.2044 -21.6235
      vertex 24.2168 -19.0513 -19.8274
    endloop
  endfacet
  facet normal -0.919142 -2.19281e-06 0.393926
    outer loop
      vertex 23.4471 -19.2044 -21.6235
      vertex 22.15 -18.1195 -24.65
      vertex 22.7039 -19.4567 -23.3576
    endloop
  endfacet
  facet normal 0.649941 -0.649941 0.393895
    outer loop
      vertex 0 0 -18
      vertex 19.8038 19 -19.3263
      vertex 19.6448 19.6448 -18
    endloop
  endfacet
  facet normal 0.649934 -0.649931 0.393923
    outer loop
      vertex 0 0 -18
      vertex 20.2399 17.6949 -22.1991
      vertex 19.8038 19 -19.3263
    endloop
  endfacet
  facet normal 0.649933 -0.64993 0.393926
    outer loop
      vertex 0 0 -18
      vertex 20.6927 16.6622 -24.65
      vertex 20.2399 17.6949 -22.1991
    endloop
  endfacet
  facet normal 0.649934 -0.649933 0.39392
    outer loop
      vertex 20.6927 16.6622 -24.65
      vertex 0 0 -18
      vertex 4.03051 0 -24.65
    endloop
  endfacet
  facet normal 0.649934 -0.649934 0.393919
    outer loop
      vertex -20.7574 -20.7574 -18
      vertex 0 -4.03051 -24.65
      vertex 0 0 -18
    endloop
  endfacet
  facet normal 0.649936 -0.649945 0.393898
    outer loop
      vertex -20.2399 -21.3474 -19.8274
      vertex 0 -4.03051 -24.65
      vertex -20.7574 -20.7574 -18
    endloop
  endfacet
  facet normal 0.649996 -0.649857 0.393942
    outer loop
      vertex -18.1195 -22.15 -24.65
      vertex -20.2399 -21.3474 -19.8274
      vertex -19.8038 -22 -21.6235
    endloop
  endfacet
  facet normal 0.649931 -0.649932 0.393926
    outer loop
      vertex -20.2399 -21.3474 -19.8274
      vertex -18.1195 -22.15 -24.65
      vertex 0 -4.03051 -24.65
    endloop
  endfacet
  facet normal 0.649934 -0.649937 0.393912
    outer loop
      vertex -18.1195 -22.15 -24.65
      vertex -19.8038 -22 -21.6235
      vertex -19.4567 -22.7039 -23.3576
    endloop
  endfacet
  facet normal -0.649931 0.649931 0.393927
    outer loop
      vertex 19.4567 20.4078 -19.5692
      vertex 0 0 -18
      vertex 19.6448 19.6448 -18
    endloop
  endfacet
  facet normal -0.649989 0.649882 0.393912
    outer loop
      vertex 18.1195 22.15 -24.65
      vertex 19.4567 20.4078 -19.5692
      vertex 19.2044 21.8942 -22.4378
    endloop
  endfacet
  facet normal -0.649913 0.649975 0.393886
    outer loop
      vertex 18.1195 22.15 -24.65
      vertex 19.2044 21.8942 -22.4378
      vertex 19.1371 22.5715 -23.6665
    endloop
  endfacet
  facet normal -0.649935 0.649934 0.393916
    outer loop
      vertex 19.4567 20.4078 -19.5692
      vertex 18.1195 22.15 -24.65
      vertex 0 0 -18
    endloop
  endfacet
  facet normal -0.649933 0.649934 0.39392
    outer loop
      vertex 0 0 -18
      vertex 18.1195 22.15 -24.65
      vertex 0 4.03051 -24.65
    endloop
  endfacet
  facet normal -0.649934 0.649934 0.393919
    outer loop
      vertex -4.03051 0 -24.65
      vertex -20.7574 -20.7574 -18
      vertex 0 0 -18
    endloop
  endfacet
  facet normal -0.649945 0.649936 0.393898
    outer loop
      vertex -20.7574 -20.7574 -18
      vertex -4.03051 0 -24.65
      vertex -21.3474 -20.2399 -19.8274
    endloop
  endfacet
  facet normal -0.649932 0.649931 0.393926
    outer loop
      vertex -22.15 -18.1195 -24.65
      vertex -21.3474 -20.2399 -19.8274
      vertex -4.03051 0 -24.65
    endloop
  endfacet
  facet normal -0.649857 0.649996 0.393942
    outer loop
      vertex -21.3474 -20.2399 -19.8274
      vertex -22.15 -18.1195 -24.65
      vertex -22 -19.8038 -21.6235
    endloop
  endfacet
  facet normal -0.649937 0.649934 0.393912
    outer loop
      vertex -22 -19.8038 -21.6235
      vertex -22.15 -18.1195 -24.65
      vertex -22.7039 -19.4567 -23.3576
    endloop
  endfacet
  facet normal -0.649934 -0.649934 0.393919
    outer loop
      vertex 0 -4.03051 -24.65
      vertex 20.7574 -20.7574 -18
      vertex 0 0 -18
    endloop
  endfacet
  facet normal -0.649936 -0.649945 0.393898
    outer loop
      vertex 0 -4.03051 -24.65
      vertex 20.2399 -21.3474 -19.8274
      vertex 20.7574 -20.7574 -18
    endloop
  endfacet
  facet normal -0.649931 -0.649932 0.393926
    outer loop
      vertex 18.1195 -22.15 -24.65
      vertex 20.2399 -21.3474 -19.8274
      vertex 0 -4.03051 -24.65
    endloop
  endfacet
  facet normal -0.649996 -0.649857 0.393942
    outer loop
      vertex 20.2399 -21.3474 -19.8274
      vertex 18.1195 -22.15 -24.65
      vertex 19.8038 -22 -21.6235
    endloop
  endfacet
  facet normal -0.649934 -0.649937 0.393912
    outer loop
      vertex 19.8038 -22 -21.6235
      vertex 18.1195 -22.15 -24.65
      vertex 19.4567 -22.7039 -23.3576
    endloop
  endfacet
  facet normal -0.649934 -0.649933 0.39392
    outer loop
      vertex 0 0 -18
      vertex -20.6927 16.6622 -24.65
      vertex -4.03051 0 -24.65
    endloop
  endfacet
  facet normal -0.649933 -0.64993 0.393926
    outer loop
      vertex -20.6927 16.6622 -24.65
      vertex 0 0 -18
      vertex -20.2399 17.6949 -22.1991
    endloop
  endfacet
  facet normal -0.649934 -0.649931 0.393923
    outer loop
      vertex -20.2399 17.6949 -22.1991
      vertex 0 0 -18
      vertex -19.8038 19 -19.3263
    endloop
  endfacet
  facet normal -0.649941 -0.649941 0.393895
    outer loop
      vertex -19.8038 19 -19.3263
      vertex 0 0 -18
      vertex -19.6448 19.6448 -18
    endloop
  endfacet
  facet normal 0.649934 0.649933 0.39392
    outer loop
      vertex 0 0 -18
      vertex 22.15 -18.1195 -24.65
      vertex 4.03051 0 -24.65
    endloop
  endfacet
  facet normal 0.649934 0.649937 0.393913
    outer loop
      vertex 22 -19.8038 -21.6235
      vertex 22.15 -18.1195 -24.65
      vertex 0 0 -18
    endloop
  endfacet
  facet normal 0.649937 0.649934 0.393912
    outer loop
      vertex 22.15 -18.1195 -24.65
      vertex 22 -19.8038 -21.6235
      vertex 22.7039 -19.4567 -23.3576
    endloop
  endfacet
  facet normal 0.649927 0.649922 0.39395
    outer loop
      vertex 0 0 -18
      vertex 21.3474 -20.2399 -19.8274
      vertex 22 -19.8038 -21.6235
    endloop
  endfacet
  facet normal 0.64994 0.64994 0.393898
    outer loop
      vertex 21.3474 -20.2399 -19.8274
      vertex 0 0 -18
      vertex 20.7574 -20.7574 -18
    endloop
  endfacet
  facet normal 0.649931 0.649931 0.393927
    outer loop
      vertex 0 0 -18
      vertex -19.4567 20.4078 -19.5692
      vertex -19.6448 19.6448 -18
    endloop
  endfacet
  facet normal 0.649935 0.649934 0.393916
    outer loop
      vertex -18.1195 22.15 -24.65
      vertex -19.4567 20.4078 -19.5692
      vertex 0 0 -18
    endloop
  endfacet
  facet normal 0.649989 0.649882 0.393912
    outer loop
      vertex -19.4567 20.4078 -19.5692
      vertex -18.1195 22.15 -24.65
      vertex -19.2044 21.8942 -22.4378
    endloop
  endfacet
  facet normal 0.649933 0.649934 0.39392
    outer loop
      vertex -18.1195 22.15 -24.65
      vertex 0 0 -18
      vertex 0 4.03051 -24.65
    endloop
  endfacet
  facet normal 0.649913 0.649975 0.393886
    outer loop
      vertex -19.2044 21.8942 -22.4378
      vertex -18.1195 22.15 -24.65
      vertex -19.1371 22.5715 -23.6665
    endloop
  endfacet
  facet normal -0.369642 -0.929174 0
    outer loop
      vertex 23.4471 13.4089 25
      vertex 24.2168 13.1027 -19.8274
      vertex 24.2168 13.1027 25
    endloop
  endfacet
  facet normal -0.369642 -0.929174 0
    outer loop
      vertex 24.2168 13.1027 -19.8274
      vertex 23.4471 13.4089 25
      vertex 23.4471 13.4089 -21.6235
    endloop
  endfacet
  facet normal -0.94845 -0.316925 0
    outer loop
      vertex 20.2399 17.6949 -22.1991
      vertex 19.8038 19 19.3263
      vertex 19.8038 19 -19.3263
    endloop
  endfacet
  facet normal -0.94845 -0.316925 0
    outer loop
      vertex 19.8038 19 19.3263
      vertex 20.2399 17.6949 -22.1991
      vertex 20.2399 17.6949 22.1991
    endloop
  endfacet
  facet normal -0.999465 -0.0327018 -0
    outer loop
      vertex 19.0513 23.4337 25
      vertex 19.0259 24.21 -19.8433
      vertex 19.0513 23.4337 -21.6547
    endloop
  endfacet
  facet normal -0.999465 -0.0327018 0
    outer loop
      vertex 19.0259 24.21 -19.8433
      vertex 19.0513 23.4337 25
      vertex 19.0259 24.21 25
    endloop
  endfacet
  facet normal -0.702235 -0.711945 0
    outer loop
      vertex 22 14.6077 25
      vertex 22.7039 13.9134 -23.3576
      vertex 22.7039 13.9134 25
    endloop
  endfacet
  facet normal -0.702235 -0.711945 0
    outer loop
      vertex 22 14.6077 -24.65
      vertex 22.7039 13.9134 -23.3576
      vertex 22 14.6077 25
    endloop
  endfacet
  facet normal -0.702105 -0.712074 -0.000140277
    outer loop
      vertex 22.7039 13.9134 -23.3576
      vertex 22 14.6077 -24.65
      vertex 22.15 14.4598 -24.65
    endloop
  endfacet
  facet normal -0.80065 -0.599133 0
    outer loop
      vertex 22 14.6077 -24.65
      vertex 21.3474 15.4798 25
      vertex 21.3474 15.4798 -24.65
    endloop
  endfacet
  facet normal -0.80065 -0.599133 0
    outer loop
      vertex 21.3474 15.4798 25
      vertex 22 14.6077 -24.65
      vertex 22 14.6077 25
    endloop
  endfacet
  facet normal -0.130016 -0.991512 0
    outer loop
      vertex 24.2168 13.1027 25
      vertex 25 13 -18
      vertex 25 13 25
    endloop
  endfacet
  facet normal -0.130016 -0.991512 0
    outer loop
      vertex 25 13 -18
      vertex 24.2168 13.1027 25
      vertex 24.2168 13.1027 -19.8274
    endloop
  endfacet
  facet normal -0.561643 -0.82738 0
    outer loop
      vertex 22.7039 13.9134 25
      vertex 23.4471 13.4089 -21.6235
      vertex 23.4471 13.4089 25
    endloop
  endfacet
  facet normal -0.561643 -0.82738 0
    outer loop
      vertex 23.4471 13.4089 -21.6235
      vertex 22.7039 13.9134 25
      vertex 22.7039 13.9134 -23.3576
    endloop
  endfacet
  facet normal -0.970931 -0.239361 0
    outer loop
      vertex 19.6448 19.6448 -18
      vertex 19.4567 20.4078 19.5692
      vertex 19.4567 20.4078 -19.5692
    endloop
  endfacet
  facet normal -0.970931 -0.239361 0
    outer loop
      vertex 19.6448 19.6448 -18
      vertex 19.6448 19.6448 18
      vertex 19.4567 20.4078 19.5692
    endloop
  endfacet
  facet normal -0.970917 -0.239417 0
    outer loop
      vertex 19.8038 19 -19.3263
      vertex 19.6448 19.6448 18
      vertex 19.6448 19.6448 -18
    endloop
  endfacet
  facet normal -0.970917 -0.239417 0
    outer loop
      vertex 19.6448 19.6448 18
      vertex 19.8038 19 -19.3263
      vertex 19.8038 19 19.3263
    endloop
  endfacet
  facet normal -0.995091 -0.0989597 0
    outer loop
      vertex 19.2044 21.8942 22.4378
      vertex 19.0513 23.4337 25
      vertex 19.0513 23.4337 -21.6547
    endloop
  endfacet
  facet normal -0.995093 -0.0989419 -3.5449e-05
    outer loop
      vertex 19.2044 21.8942 -22.4378
      vertex 19.0513 23.4337 -21.6547
      vertex 19.1371 22.5715 -23.6665
    endloop
  endfacet
  facet normal -0.995091 -0.0989597 0
    outer loop
      vertex 19.0513 23.4337 -21.6547
      vertex 19.2044 21.8942 -22.4378
      vertex 19.2044 21.8942 22.4378
    endloop
  endfacet
  facet normal -0.995045 -0.0994262 0.000283063
    outer loop
      vertex 19.0513 23.4337 25
      vertex 19.2044 21.8942 22.4378
      vertex 19.064 23.3066 25
    endloop
  endfacet
  facet normal -0.868739 -0.495271 0
    outer loop
      vertex 21.3474 15.4798 -24.65
      vertex 20.7574 16.5147 25
      vertex 20.7574 16.5147 -24.65
    endloop
  endfacet
  facet normal -0.868739 -0.495271 0
    outer loop
      vertex 20.7574 16.5147 25
      vertex 21.3474 15.4798 -24.65
      vertex 21.3474 15.4798 25
    endloop
  endfacet
  facet normal -0.985898 -0.167345 0
    outer loop
      vertex 19.4567 20.4078 -19.5692
      vertex 19.2044 21.8942 22.4378
      vertex 19.2044 21.8942 -22.4378
    endloop
  endfacet
  facet normal -0.985898 -0.167345 0
    outer loop
      vertex 19.2044 21.8942 22.4378
      vertex 19.4567 20.4078 -19.5692
      vertex 19.4567 20.4078 19.5692
    endloop
  endfacet
  facet normal -0.915772 -0.401698 7.01444e-05
    outer loop
      vertex 20.7574 16.5147 -24.65
      vertex 20.2399 17.6949 -22.1991
      vertex 20.6927 16.6622 -24.65
    endloop
  endfacet
  facet normal -0.915826 -0.401576 0
    outer loop
      vertex 20.2399 17.6949 -22.1991
      vertex 20.7574 16.5147 -24.65
      vertex 20.2399 17.6949 22.1991
    endloop
  endfacet
  facet normal -0.915826 -0.401576 0
    outer loop
      vertex 20.2399 17.6949 22.1991
      vertex 20.7574 16.5147 -24.65
      vertex 20.7574 16.5147 25
    endloop
  endfacet
  facet normal -0.0653605 0.997862 0
    outer loop
      vertex 25 -19 -18
      vertex 24.2168 -19.0513 25
      vertex 25 -19 25
    endloop
  endfacet
  facet normal -0.0653605 0.997862 0
    outer loop
      vertex 24.2168 -19.0513 25
      vertex 25 -19 -18
      vertex 24.2168 -19.0513 -19.8274
    endloop
  endfacet
  facet normal -0.751787 0.659406 0
    outer loop
      vertex 20.2399 -21.3474 -19.8274
      vertex 20.7574 -20.7574 18
      vertex 20.7574 -20.7574 -18
    endloop
  endfacet
  facet normal -0.751787 0.659406 0
    outer loop
      vertex 20.7574 -20.7574 18
      vertex 20.2399 -21.3474 -19.8274
      vertex 20.2399 -21.3474 19.8274
    endloop
  endfacet
  facet normal -0.442263 0.896885 0
    outer loop
      vertex 22.7039 -19.4567 23.3576
      vertex 22 -19.8038 -21.6235
      vertex 22 -19.8038 21.6235
    endloop
  endfacet
  facet normal -0.442263 0.896885 0
    outer loop
      vertex 22 -19.8038 -21.6235
      vertex 22.7039 -19.4567 23.3576
      vertex 22.7039 -19.4567 -23.3576
    endloop
  endfacet
  facet normal -0.946923 0.32146 0
    outer loop
      vertex 19.2044 -23.4471 -21.6235
      vertex 19.4567 -22.7039 23.3576
      vertex 19.4567 -22.7039 -23.3576
    endloop
  endfacet
  facet normal -0.946923 0.32146 0
    outer loop
      vertex 19.4567 -22.7039 23.3576
      vertex 19.2044 -23.4471 -21.6235
      vertex 19.2044 -23.4471 25
    endloop
  endfacet
  facet normal -0.896885 0.442263 0
    outer loop
      vertex 19.4567 -22.7039 -23.3576
      vertex 19.8038 -22 21.6235
      vertex 19.8038 -22 -21.6235
    endloop
  endfacet
  facet normal -0.896885 0.442263 0
    outer loop
      vertex 19.8038 -22 21.6235
      vertex 19.4567 -22.7039 -23.3576
      vertex 19.4567 -22.7039 23.3576
    endloop
  endfacet
  facet normal -0.980786 0.195087 0
    outer loop
      vertex 19.0513 -24.2168 -19.8274
      vertex 19.2044 -23.4471 25
      vertex 19.2044 -23.4471 -21.6235
    endloop
  endfacet
  facet normal -0.980786 0.195087 0
    outer loop
      vertex 19.2044 -23.4471 25
      vertex 19.0513 -24.2168 -19.8274
      vertex 19.0513 -24.2168 25
    endloop
  endfacet
  facet normal -0.659406 0.751787 0
    outer loop
      vertex 21.3474 -20.2399 19.8274
      vertex 20.7574 -20.7574 -18
      vertex 20.7574 -20.7574 18
    endloop
  endfacet
  facet normal -0.659406 0.751787 0
    outer loop
      vertex 20.7574 -20.7574 -18
      vertex 21.3474 -20.2399 19.8274
      vertex 21.3474 -20.2399 -19.8274
    endloop
  endfacet
  facet normal -0.32146 0.946923 0
    outer loop
      vertex 23.4471 -19.2044 -21.6235
      vertex 22.7039 -19.4567 23.3576
      vertex 23.4471 -19.2044 25
    endloop
  endfacet
  facet normal -0.32146 0.946923 0
    outer loop
      vertex 22.7039 -19.4567 23.3576
      vertex 23.4471 -19.2044 -21.6235
      vertex 22.7039 -19.4567 -23.3576
    endloop
  endfacet
  facet normal -0.831442 0.555611 0
    outer loop
      vertex 19.8038 -22 -21.6235
      vertex 20.2399 -21.3474 19.8274
      vertex 20.2399 -21.3474 -19.8274
    endloop
  endfacet
  facet normal -0.831442 0.555611 0
    outer loop
      vertex 20.2399 -21.3474 19.8274
      vertex 19.8038 -22 -21.6235
      vertex 19.8038 -22 21.6235
    endloop
  endfacet
  facet normal -0.997862 0.0653605 0
    outer loop
      vertex 19 -25 -18
      vertex 19.0513 -24.2168 25
      vertex 19.0513 -24.2168 -19.8274
    endloop
  endfacet
  facet normal -0.997862 0.0653605 0
    outer loop
      vertex 19.0513 -24.2168 25
      vertex 19 -25 -18
      vertex 19 -25 25
    endloop
  endfacet
  facet normal -0.555611 0.831442 0
    outer loop
      vertex 22 -19.8038 21.6235
      vertex 21.3474 -20.2399 -19.8274
      vertex 21.3474 -20.2399 19.8274
    endloop
  endfacet
  facet normal -0.555611 0.831442 0
    outer loop
      vertex 21.3474 -20.2399 -19.8274
      vertex 22 -19.8038 21.6235
      vertex 22 -19.8038 -21.6235
    endloop
  endfacet
  facet normal -0.195087 0.980786 0
    outer loop
      vertex 24.2168 -19.0513 -19.8274
      vertex 23.4471 -19.2044 25
      vertex 24.2168 -19.0513 25
    endloop
  endfacet
  facet normal -0.195087 0.980786 0
    outer loop
      vertex 23.4471 -19.2044 25
      vertex 24.2168 -19.0513 -19.8274
      vertex 23.4471 -19.2044 -21.6235
    endloop
  endfacet
  facet normal 0.130016 -0.991512 0
    outer loop
      vertex -25 13 -18
      vertex -24.2168 13.1027 25
      vertex -25 13 25
    endloop
  endfacet
  facet normal 0.130016 -0.991512 0
    outer loop
      vertex -24.2168 13.1027 25
      vertex -25 13 -18
      vertex -24.2168 13.1027 -19.8274
    endloop
  endfacet
  facet normal 0.970931 -0.239361 0
    outer loop
      vertex -19.6448 19.6448 18
      vertex -19.4567 20.4078 -19.5692
      vertex -19.4567 20.4078 19.5692
    endloop
  endfacet
  facet normal 0.970931 -0.239361 0
    outer loop
      vertex -19.6448 19.6448 18
      vertex -19.6448 19.6448 -18
      vertex -19.4567 20.4078 -19.5692
    endloop
  endfacet
  facet normal 0.970917 -0.239417 0
    outer loop
      vertex -19.8038 19 19.3263
      vertex -19.6448 19.6448 -18
      vertex -19.6448 19.6448 18
    endloop
  endfacet
  facet normal 0.970917 -0.239417 0
    outer loop
      vertex -19.6448 19.6448 -18
      vertex -19.8038 19 19.3263
      vertex -19.8038 19 -19.3263
    endloop
  endfacet
  facet normal 0.369642 -0.929174 0
    outer loop
      vertex -24.2168 13.1027 -19.8274
      vertex -23.4471 13.4089 25
      vertex -24.2168 13.1027 25
    endloop
  endfacet
  facet normal 0.369642 -0.929174 0
    outer loop
      vertex -23.4471 13.4089 25
      vertex -24.2168 13.1027 -19.8274
      vertex -23.4471 13.4089 -21.6235
    endloop
  endfacet
  facet normal 0.702235 -0.711945 0
    outer loop
      vertex -22.7039 13.9134 -23.3576
      vertex -22 14.6077 25
      vertex -22.7039 13.9134 25
    endloop
  endfacet
  facet normal 0.702105 -0.712074 -0.000140277
    outer loop
      vertex -22 14.6077 -24.65
      vertex -22.7039 13.9134 -23.3576
      vertex -22.15 14.4598 -24.65
    endloop
  endfacet
  facet normal 0.702235 -0.711945 0
    outer loop
      vertex -22.7039 13.9134 -23.3576
      vertex -22 14.6077 -24.65
      vertex -22 14.6077 25
    endloop
  endfacet
  facet normal 0.915826 -0.401576 0
    outer loop
      vertex -20.7574 16.5147 -24.65
      vertex -20.2399 17.6949 -22.1991
      vertex -20.2399 17.6949 22.1991
    endloop
  endfacet
  facet normal 0.915826 -0.401576 0
    outer loop
      vertex -20.7574 16.5147 -24.65
      vertex -20.2399 17.6949 22.1991
      vertex -20.7574 16.5147 25
    endloop
  endfacet
  facet normal 0.915772 -0.401698 7.01444e-05
    outer loop
      vertex -20.2399 17.6949 -22.1991
      vertex -20.7574 16.5147 -24.65
      vertex -20.6927 16.6622 -24.65
    endloop
  endfacet
  facet normal 0.985898 -0.167345 0
    outer loop
      vertex -19.4567 20.4078 19.5692
      vertex -19.2044 21.8942 -22.4378
      vertex -19.2044 21.8942 22.4378
    endloop
  endfacet
  facet normal 0.985898 -0.167345 0
    outer loop
      vertex -19.2044 21.8942 -22.4378
      vertex -19.4567 20.4078 19.5692
      vertex -19.4567 20.4078 -19.5692
    endloop
  endfacet
  facet normal 0.995045 -0.0994262 0.000283063
    outer loop
      vertex -19.2044 21.8942 22.4378
      vertex -19.0513 23.4337 25
      vertex -19.064 23.3066 25
    endloop
  endfacet
  facet normal 0.995091 -0.0989597 0
    outer loop
      vertex -19.0513 23.4337 25
      vertex -19.2044 21.8942 22.4378
      vertex -19.0513 23.4337 -21.6547
    endloop
  endfacet
  facet normal 0.995091 -0.0989597 0
    outer loop
      vertex -19.2044 21.8942 -22.4378
      vertex -19.0513 23.4337 -21.6547
      vertex -19.2044 21.8942 22.4378
    endloop
  endfacet
  facet normal 0.995093 -0.0989419 -3.5449e-05
    outer loop
      vertex -19.0513 23.4337 -21.6547
      vertex -19.2044 21.8942 -22.4378
      vertex -19.1371 22.5715 -23.6665
    endloop
  endfacet
  facet normal 0.94845 -0.316925 0
    outer loop
      vertex -20.2399 17.6949 22.1991
      vertex -19.8038 19 -19.3263
      vertex -19.8038 19 19.3263
    endloop
  endfacet
  facet normal 0.94845 -0.316925 0
    outer loop
      vertex -19.8038 19 -19.3263
      vertex -20.2399 17.6949 22.1991
      vertex -20.2399 17.6949 -22.1991
    endloop
  endfacet
  facet normal 0.999465 -0.0327018 0
    outer loop
      vertex -19.0513 23.4337 25
      vertex -19.0259 24.21 -19.8433
      vertex -19.0259 24.21 25
    endloop
  endfacet
  facet normal 0.999465 -0.0327018 0
    outer loop
      vertex -19.0259 24.21 -19.8433
      vertex -19.0513 23.4337 25
      vertex -19.0513 23.4337 -21.6547
    endloop
  endfacet
  facet normal 0.561643 -0.82738 0
    outer loop
      vertex -23.4471 13.4089 -21.6235
      vertex -22.7039 13.9134 25
      vertex -23.4471 13.4089 25
    endloop
  endfacet
  facet normal 0.561643 -0.82738 0
    outer loop
      vertex -22.7039 13.9134 25
      vertex -23.4471 13.4089 -21.6235
      vertex -22.7039 13.9134 -23.3576
    endloop
  endfacet
  facet normal 0.868739 -0.495271 0
    outer loop
      vertex -21.3474 15.4798 25
      vertex -20.7574 16.5147 -24.65
      vertex -20.7574 16.5147 25
    endloop
  endfacet
  facet normal 0.868739 -0.495271 0
    outer loop
      vertex -20.7574 16.5147 -24.65
      vertex -21.3474 15.4798 25
      vertex -21.3474 15.4798 -24.65
    endloop
  endfacet
  facet normal 0.80065 -0.599133 0
    outer loop
      vertex -22 14.6077 25
      vertex -21.3474 15.4798 -24.65
      vertex -21.3474 15.4798 25
    endloop
  endfacet
  facet normal 0.80065 -0.599133 0
    outer loop
      vertex -21.3474 15.4798 -24.65
      vertex -22 14.6077 25
      vertex -22 14.6077 -24.65
    endloop
  endfacet
  facet normal 0.555611 0.831442 -0
    outer loop
      vertex -21.3474 -20.2399 -19.8274
      vertex -22 -19.8038 21.6235
      vertex -21.3474 -20.2399 19.8274
    endloop
  endfacet
  facet normal 0.555611 0.831442 0
    outer loop
      vertex -22 -19.8038 21.6235
      vertex -21.3474 -20.2399 -19.8274
      vertex -22 -19.8038 -21.6235
    endloop
  endfacet
  facet normal 0.896885 0.442263 0
    outer loop
      vertex -19.4567 -22.7039 23.3576
      vertex -19.8038 -22 -21.6235
      vertex -19.8038 -22 21.6235
    endloop
  endfacet
  facet normal 0.896885 0.442263 0
    outer loop
      vertex -19.8038 -22 -21.6235
      vertex -19.4567 -22.7039 23.3576
      vertex -19.4567 -22.7039 -23.3576
    endloop
  endfacet
  facet normal 0.831442 0.555611 0
    outer loop
      vertex -19.8038 -22 21.6235
      vertex -20.2399 -21.3474 -19.8274
      vertex -20.2399 -21.3474 19.8274
    endloop
  endfacet
  facet normal 0.831442 0.555611 0
    outer loop
      vertex -20.2399 -21.3474 -19.8274
      vertex -19.8038 -22 21.6235
      vertex -19.8038 -22 -21.6235
    endloop
  endfacet
  facet normal 0.659406 0.751787 -0
    outer loop
      vertex -20.7574 -20.7574 -18
      vertex -21.3474 -20.2399 19.8274
      vertex -20.7574 -20.7574 18
    endloop
  endfacet
  facet normal 0.659406 0.751787 0
    outer loop
      vertex -21.3474 -20.2399 19.8274
      vertex -20.7574 -20.7574 -18
      vertex -21.3474 -20.2399 -19.8274
    endloop
  endfacet
  facet normal 0.32146 0.946923 0
    outer loop
      vertex -22.7039 -19.4567 23.3576
      vertex -23.4471 -19.2044 -21.6235
      vertex -23.4471 -19.2044 25
    endloop
  endfacet
  facet normal 0.32146 0.946923 0
    outer loop
      vertex -23.4471 -19.2044 -21.6235
      vertex -22.7039 -19.4567 23.3576
      vertex -22.7039 -19.4567 -23.3576
    endloop
  endfacet
  facet normal 0.0653605 0.997862 0
    outer loop
      vertex -24.2168 -19.0513 25
      vertex -25 -19 -18
      vertex -25 -19 25
    endloop
  endfacet
  facet normal 0.0653605 0.997862 0
    outer loop
      vertex -25 -19 -18
      vertex -24.2168 -19.0513 25
      vertex -24.2168 -19.0513 -19.8274
    endloop
  endfacet
  facet normal 0.980786 0.195087 -0
    outer loop
      vertex -19.0513 -24.2168 -19.8274
      vertex -19.2044 -23.4471 25
      vertex -19.0513 -24.2168 25
    endloop
  endfacet
  facet normal 0.980786 0.195087 0
    outer loop
      vertex -19.2044 -23.4471 25
      vertex -19.0513 -24.2168 -19.8274
      vertex -19.2044 -23.4471 -21.6235
    endloop
  endfacet
  facet normal 0.946923 0.32146 -0
    outer loop
      vertex -19.2044 -23.4471 -21.6235
      vertex -19.4567 -22.7039 23.3576
      vertex -19.2044 -23.4471 25
    endloop
  endfacet
  facet normal 0.946923 0.32146 0
    outer loop
      vertex -19.4567 -22.7039 23.3576
      vertex -19.2044 -23.4471 -21.6235
      vertex -19.4567 -22.7039 -23.3576
    endloop
  endfacet
  facet normal 0.751787 0.659406 0
    outer loop
      vertex -20.2399 -21.3474 19.8274
      vertex -20.7574 -20.7574 -18
      vertex -20.7574 -20.7574 18
    endloop
  endfacet
  facet normal 0.751787 0.659406 0
    outer loop
      vertex -20.7574 -20.7574 -18
      vertex -20.2399 -21.3474 19.8274
      vertex -20.2399 -21.3474 -19.8274
    endloop
  endfacet
  facet normal 0.442263 0.896885 -0
    outer loop
      vertex -22 -19.8038 -21.6235
      vertex -22.7039 -19.4567 23.3576
      vertex -22 -19.8038 21.6235
    endloop
  endfacet
  facet normal 0.442263 0.896885 0
    outer loop
      vertex -22.7039 -19.4567 23.3576
      vertex -22 -19.8038 -21.6235
      vertex -22.7039 -19.4567 -23.3576
    endloop
  endfacet
  facet normal 0.195087 0.980786 0
    outer loop
      vertex -23.4471 -19.2044 25
      vertex -24.2168 -19.0513 -19.8274
      vertex -24.2168 -19.0513 25
    endloop
  endfacet
  facet normal 0.195087 0.980786 0
    outer loop
      vertex -24.2168 -19.0513 -19.8274
      vertex -23.4471 -19.2044 25
      vertex -23.4471 -19.2044 -21.6235
    endloop
  endfacet
  facet normal 0.997862 0.0653605 -0
    outer loop
      vertex -19 -25 -18
      vertex -19.0513 -24.2168 25
      vertex -19 -25 25
    endloop
  endfacet
  facet normal 0.997862 0.0653605 0
    outer loop
      vertex -19.0513 -24.2168 25
      vertex -19 -25 -18
      vertex -19.0513 -24.2168 -19.8274
    endloop
  endfacet
endsolid OpenSCAD_Model
